<svg width="32" height="32" viewBox="0 0 32 32" xmlns="http://www.w3.org/2000/svg">
    <g fill="none" fill-rule="evenodd">
        <circle stroke="#D8DEE8" fill="#FFF" cx="16" cy="16" r="15.5"/>
        <g stroke="#16171D" stroke-linecap="round" stroke-linejoin="round">
            <path d="M21.132 16.366v.314c0 .52-.312.987-.79 1.186l-3.652 1.52a1.711 1.711 0 0 1-1.318 0l-3.65-1.52c-.48-.2-.792-.667-.792-1.186v-5.09c0-.52.312-.988.791-1.187l3.652-1.52c.42-.175.895-.175 1.317.001l3.651 1.521c.48.2.791.668.791 1.186v4.775zM16.03 12.795v6.657"/>
            <path d="m11.303 10.89 4.428 1.845c.192.08.408.08.6 0l4.48-1.867M8.978 16.467c-1.08.664-1.71 1.485-1.71 2.374 0 2.2 3.913 3.985 8.741 3.985 4.828 0 8.74-1.784 8.74-3.985 0-.89-.638-1.71-1.718-2.374"/>
            <path d="m8.7 18.182.278-1.715-1.728-.176"/>
        </g>
    </g>
</svg>
