<svg width="56" height="56" viewBox="0 0 56 56" xmlns="http://www.w3.org/2000/svg">
    <g fill="none" fill-rule="evenodd">
        <path d="M0 56h56V0H0z"/>
        <g fill="#FFF">
            <path d="M44.666 27.172a6.728 6.728 0 0 0-6.692-6.039H11.067a6.727 6.727 0 0 0-6.726 6.728v13.453c0 .93.753 1.682 1.682 1.682h3.362c.93 0 1.682-.753 1.682-1.682v-2.522h21.767"/>
            <path d="M53.277 37.52c0 5.7-4.62 10.32-10.32 10.32s-10.32-4.62-10.32-10.32c0-5.699 4.62-10.32 10.32-10.32s10.32 4.621 10.32 10.32z"/>
        </g>
        <path d="m7.704 21.133 2.81-7.865a5.887 5.887 0 0 1 5.542-3.907h16.93a5.887 5.887 0 0 1 5.542 3.907l2.81 7.865" fill="#E2E8EE"/>
        <g stroke="#16171D" stroke-linecap="round" stroke-linejoin="round">
            <path d="M44.666 27.172a6.728 6.728 0 0 0-6.692-6.039H11.067a6.727 6.727 0 0 0-6.726 6.728v13.453c0 .93.753 1.682 1.682 1.682h3.362c.93 0 1.682-.753 1.682-1.682v-2.522h21.57M7.704 21.133l2.81-7.865a5.887 5.887 0 0 1 5.542-3.907h16.93a5.887 5.887 0 0 1 5.542 3.907l2.81 7.865M5.231 17.468h.742c.955 0 1.73.775 1.73 1.73v2.474H4.366a.866.866 0 0 1-.865-.865v-1.608a1.73 1.73 0 0 1 1.731-1.731z"/>
            <path d="M43.81 17.468h-.741c-.956 0-1.731.775-1.731 1.73v2.474h3.338a.866.866 0 0 0 .866-.865v-1.608a1.73 1.73 0 0 0-1.731-1.731zM53.277 37.52c0 5.7-4.62 10.32-10.32 10.32s-10.32-4.62-10.32-10.32c0-5.699 4.62-10.32 10.32-10.32s10.32 4.621 10.32 10.32zM13.59 27.503h-3.363c-.93 0-1.682.753-1.682 1.682v1.68c0 .93.753 1.683 1.682 1.683h3.363a2.523 2.523 0 0 0 0-5.045zM18.907 30.025h11.227"/>
        </g>
        <path d="M48.305 35.672h0a2.828 2.828 0 0 0-5.421-1.129 2.83 2.83 0 0 0-3.038-1.665c-1.353.206-2.389 1.42-2.383 2.789.013 3.153 5.42 7.076 5.42 7.076s5.358-3.912 5.422-7.071z" stroke="#B70F28" stroke-linecap="round" stroke-linejoin="round"/>
    </g>
</svg>
