<svg width="56" height="56" viewBox="0 0 56 56" xmlns="http://www.w3.org/2000/svg">
    <g fill="none" fill-rule="evenodd">
        <path d="M19.625 24.327H5.56c-1.139 0-2.06.922-2.06 2.058V41.21a4.118 4.118 0 0 0 4.118 4.118H24.5l3.97 3.971a1.029 1.029 0 0 0 1.76-.725V32.228" fill="#E2E8EE"/>
        <path d="M50.441 32.227H26.676l-4.734 4.734a1.029 1.029 0 0 1-1.757-.728V12.576a6.176 6.176 0 0 1 6.176-6.177h24.08c1.136 0 2.058.922 2.058 2.058V30.17a2.058 2.058 0 0 1-2.058 2.058z" fill="#FFF"/>
        <g stroke="#B70F28" stroke-linecap="round" stroke-linejoin="round">
            <path d="M28.175 17.42a1.88 1.88 0 1 1 0 3.759 1.88 1.88 0 1 1 0-3.76zM36.35 17.42a1.88 1.88 0 1 1 0 3.759 1.88 1.88 0 1 1 0-3.76zM44.524 17.42a1.88 1.88 0 1 1 0 3.759 1.88 1.88 0 1 1 0-3.76z"/>
        </g>
        <g stroke="#16171D" stroke-linecap="round" stroke-linejoin="round">
            <path d="M19.625 24.327H5.56c-1.139 0-2.06.922-2.06 2.058V41.21a4.118 4.118 0 0 0 4.118 4.118H24.5l3.97 3.971a1.029 1.029 0 0 0 1.76-.725V32.228"/>
            <path d="M50.441 32.227H26.676l-4.734 4.734a1.029 1.029 0 0 1-1.757-.728V12.576a6.176 6.176 0 0 1 6.176-6.177h24.08c1.136 0 2.058.922 2.058 2.058V30.17a2.058 2.058 0 0 1-2.058 2.058z"/>
        </g>
    </g>
</svg>
