<svg width="56" height="56" viewBox="0 0 56 56" xmlns="http://www.w3.org/2000/svg">
    <g fill="none" fill-rule="evenodd">
        <path d="m38.626 20.629.18.352.31.638.471.996.622 1.349.363.797a4.888 4.888 0 0 0 3.67 2.814l2.3.382 1.705.296.998.183.626.122.343.072c1.309.329 2.286 1.584 2.286 3.404v5.059a3.595 3.595 0 0 1-3.593 3.595H16.282V18.314l19.299.001.148.014.112.018.134.027.075.018.163.047c.657.205 1.668.749 2.413 2.19zM16.282 28.682l-.003 13.505a3.304 3.304 0 0 1-3.31 3.309 3.308 3.308 0 0 1-3.31-3.309V28.521" fill="#FFF"/>
        <path d="M46.003 40.688a4.81 4.81 0 1 1-9.62-.002 4.81 4.81 0 0 1 9.62.002z" fill="#FFF"/>
        <path stroke="#FFF" d="M16.281 40.689V28.52"/>
        <path d="M9.66 10.507v5.731c0 .784.634 1.419 1.418 1.419h3.785c.781 0 1.416-.635 1.416-1.419v-5.735c4.338 1.617 7.168 6.32 5.826 11.435-.851 3.25-3.52 5.845-6.79 6.63C9.07 30.067 3.5 25.372 3.5 19.377a9.471 9.471 0 0 1 6.16-8.873v.002z" fill="#FFF"/>
        <g fill="#E2E8EE">
            <path d="m16.282 28.682-.003 13.505a3.304 3.304 0 0 1-3.31 3.309 3.308 3.308 0 0 1-3.31-3.309V28.521"/>
        </g>
        <g stroke="#16171D" stroke-linecap="round" stroke-linejoin="round">
            <path d="M16.632 40.688h19.23M22.9 18.314h12.646s1.883 0 3.08 2.315c.47.903 1.281 2.667 1.946 4.132a4.888 4.888 0 0 0 3.67 2.814c2.061.336 4.786.796 5.972 1.055 1.309.329 2.286 1.584 2.286 3.404v5.059a3.595 3.595 0 0 1-3.593 3.595h-2.345M16.282 28.682l-.003 13.505a3.304 3.304 0 0 1-3.31 3.309 3.308 3.308 0 0 1-3.31-3.309V28.521"/>
            <path d="M9.66 10.507v5.731c0 .784.634 1.419 1.418 1.419h3.785c.781 0 1.416-.635 1.416-1.419v-5.735c4.338 1.617 7.168 6.32 5.826 11.435-.851 3.25-3.52 5.845-6.79 6.63C9.07 30.067 3.5 25.372 3.5 19.377a9.471 9.471 0 0 1 6.16-8.873v.002z"/>
        </g>
        <g stroke="#B70F28" stroke-linecap="round" stroke-linejoin="round">
            <path d="M46.003 40.688a4.81 4.81 0 1 1-9.62-.002 4.81 4.81 0 0 1 9.62.002z"/>
        </g>
    </g>
</svg>
