<svg width="56" height="56" viewBox="0 0 56 56" xmlns="http://www.w3.org/2000/svg">
    <g fill="none" fill-rule="evenodd">
        <g fill="#FFF">
            <path d="M40.53 38.602h4.97a4.667 4.667 0 0 0 4.666-4.667V22.418c0-.759-.224-1.5-.644-2.133l-1.813-2.73a4.67 4.67 0 0 0-3.89-2.084H12.19c-1.562 0-3.02.78-3.888 2.08l-1.82 2.732a3.852 3.852 0 0 0-.649 2.14v11.512a4.669 4.669 0 0 0 4.67 4.667h4.97"/>
            <path d="M35.864 50.167H20.136a4.664 4.664 0 0 1-4.665-4.665V32.818H40.53v12.684a4.664 4.664 0 0 1-4.665 4.665z"/>
        </g>
        <path d="M40.53 15.47H15.47V10.5a4.664 4.664 0 0 1 4.665-4.665h15.729a4.664 4.664 0 0 1 4.664 4.665v4.972z" fill="#E2E8EE"/>
        <g stroke="#16171D">
            <path d="M40.53 38.602h4.97a4.667 4.667 0 0 0 4.666-4.667V22.418c0-.759-.224-1.5-.644-2.133l-1.813-2.73a4.67 4.67 0 0 0-3.89-2.084H12.19c-1.562 0-3.02.78-3.888 2.08l-1.82 2.732a3.852 3.852 0 0 0-.649 2.14v11.512a4.669 4.669 0 0 0 4.67 4.667h4.97" stroke-linecap="round" stroke-linejoin="round"/>
            <path d="M40.53 15.47H15.47V10.5a4.664 4.664 0 0 1 4.665-4.665h15.729a4.664 4.664 0 0 1 4.664 4.665v4.972z" stroke-linecap="round" stroke-linejoin="round"/>
            <path d="M44.676 21.588a1.48 1.48 0 1 1-2.962 0 1.48 1.48 0 0 1 2.962 0zM39.231 21.588a1.48 1.48 0 1 1-2.962 0 1.48 1.48 0 0 1 2.962 0z"/>
            <path d="M35.864 50.167H20.136a4.664 4.664 0 0 1-4.665-4.665V32.818H40.53v12.684a4.664 4.664 0 0 1-4.665 4.665zM11.616 32.82h32.767" stroke-linecap="round" stroke-linejoin="round"/>
        </g>
        <g stroke="#B70F28" stroke-linecap="round" stroke-linejoin="round">
            <path d="M21.254 38.602h13.494M21.254 44.384h9.637"/>
        </g>
    </g>
</svg>
