<svg width="56" height="56" viewBox="0 0 56 56" xmlns="http://www.w3.org/2000/svg">
    <g fill="none" fill-rule="evenodd">
        <g fill="#FFF">
            <path d="m30.452 24.611-6.545-1.868 2.077 6.22a13.109 13.109 0 0 0-2.077 7.124c0 7.37 5.976 13.345 13.344 13.345 7.37 0 13.345-5.976 13.345-13.345 0-7.368-5.976-13.344-13.345-13.344-2.482 0-4.815.685-6.8 1.868z"/>
            <path d="M35.685 49.432h-24.44a4.282 4.282 0 0 1-4.283-4.282V10.893a4.282 4.282 0 0 1 4.282-4.282h19.363a4.283 4.283 0 0 1 4.282 4.282v12.022"/>
        </g>
        <path d="M31.05 6.222H11.355A4.356 4.356 0 0 0 7 10.578v3.219h28.405v-3.22a4.356 4.356 0 0 0-4.355-4.355" fill="#E2E8EE"/>
        <g stroke="#16171D" stroke-linecap="round" stroke-linejoin="round">
            <path d="M35.685 49.432h-24.44a4.282 4.282 0 0 1-4.283-4.282V10.893a4.282 4.282 0 0 1 4.282-4.282h19.363a4.283 4.283 0 0 1 4.282 4.282v12.022M6.961 41.985h18.317M6.961 14.058h27.927"/>
            <path d="m30.452 24.611-6.545-1.868 2.077 6.22a13.109 13.109 0 0 0-2.077 7.124c0 7.37 5.976 13.345 13.344 13.345 7.37 0 13.345-5.976 13.345-13.345 0-7.368-5.976-13.344-13.345-13.344-2.482 0-4.815.685-6.8 1.868z"/>
        </g>
        <g stroke="#B70F28" stroke-linecap="round" stroke-linejoin="round">
            <path d="M31.054 31.645H43.45M31.054 36.365H43.45M31.054 41.084H43.45"/>
        </g>
    </g>
</svg>
