<svg width="72" height="72" viewBox="0 0 72 72" xmlns="http://www.w3.org/2000/svg">
    <g fill="none" fill-rule="evenodd">
        <path d="M0 72h72V0H0z"/>
        <path d="M55.01 57.938h.683A4.32 4.32 0 0 0 60 53.63V13.381a4.32 4.32 0 0 0-4.307-4.308H21.46c-2.37 0-4.307 1.912-4.307 4.281v.697" fill="#E2E8EE"/>
        <path d="M15.98 14.062H51.03a3.98 3.98 0 0 1 3.98 3.979v40.907a3.98 3.98 0 0 1-3.98 3.979H15.98A3.98 3.98 0 0 1 12 58.948V18.041a3.98 3.98 0 0 1 3.98-3.979z" fill="#FFF"/>
        <g stroke="#16171D" stroke-linecap="round">
            <path d="M55.01 57.938h.683A4.32 4.32 0 0 0 60 53.63V13.381a4.32 4.32 0 0 0-4.307-4.308H21.46c-2.37 0-4.307 1.912-4.307 4.281v.697"/>
            <path d="M15.98 14.062H51.03a3.98 3.98 0 0 1 3.98 3.979v40.907a3.98 3.98 0 0 1-3.98 3.979H15.98A3.98 3.98 0 0 1 12 58.948V18.041a3.98 3.98 0 0 1 3.98-3.979z"/>
            <path d="m25.286 55.779-.002-6.638-1.771-1.418 1.61-6.631 3.499-.002 1.613 6.633-1.772 1.418v6.443"/>
            <path d="M22.78 62.927v-4.292a2.866 2.866 0 0 1 2.858-2.857h2.472a2.867 2.867 0 0 1 2.858 2.857v4.292M38.255 62.927V50.556a5.377 5.377 0 0 1-2.696-4.667 5.37 5.37 0 0 1 2.811-4.735.535.535 0 0 1 .783.472l.004 3.366c0 .496.402.897.897.898l1.796.003a.9.9 0 0 0 .901-.899v-3.366c0-.4.431-.664.782-.473a5.371 5.371 0 0 1 2.81 4.734 5.373 5.373 0 0 1-2.696 4.667v.598l.006 11.64" stroke-linejoin="round"/>
        </g>
        <path d="m32.533 28.412 2.132-2.444h-1.393l-1.75 2.084v-2.084h-1.186v5.176h1.186v-2.267l1.352 1.746c.255.329.648.521 1.064.521h.809l-2.214-2.732zM43.313 29.398v.24c0 .542-.358.878-.935.878-.241 0-.598-.163-.598-.512 0-.54.743-.62 1.187-.62.07 0 .14.005.21.008.046.002.09.005.136.006m.844.944v-1.515c0-1.092-.495-1.6-1.557-1.6-.432 0-.852.12-1.25.356l-.044.027.005.08a.43.43 0 0 0 .198.334.412.412 0 0 0 .378.036c.197-.077.406-.12.606-.12.56 0 .797.222.818.783-.222-.01-.398-.01-.632-.01-.663 0-1.786.272-1.786 1.29 0 .78.52 1.228 1.427 1.228.562 0 .912-.265 1.095-.463a.56.56 0 0 0 .528.377h.255l-.013-.096a6.002 6.002 0 0 1-.028-.707M46.787 27.276c-.137-.027-.245-.05-.448-.05-.347 0-.703.206-.923.518a.654.654 0 0 0-.614-.431h-.149v3.832h.844v-1.751c0-.856.36-1.41.914-1.41.133 0 .248.02.341.059l.117.048v-.8l-.082-.015zM40.538 29.984l-.071.034s-.108.052-.146.068a2.8 2.8 0 0 1-.985.218c-.973 0-1.68-.735-1.68-1.748 0-1.029.706-1.748 1.714-1.748.15 0 .297.018.438.052a.627.627 0 0 0 .775-.56l.013-.151-.102-.045a2.822 2.822 0 0 0-1.158-.222c-1.608 0-2.731 1.091-2.731 2.653 0 1.637 1.069 2.695 2.724 2.695.477 0 .87-.062 1.169-.186l.103-.042-.063-1.018z" fill="#DB2730"/>
        <path fill="#DB2730" d="M34.214 29.073h1.707v-.818h-1.707zM27.84 25.326a3.087 3.087 0 0 0-2.823 2.824.239.239 0 0 0 .24.252h2.595a.24.24 0 0 0 .24-.24v-2.594a.239.239 0 0 0-.251-.242"/>
        <path d="M25.017 28.958a3.087 3.087 0 0 0 2.824 2.824.239.239 0 0 0 .252-.24v-2.595a.24.24 0 0 0-.241-.24h-2.593a.239.239 0 0 0-.242.251" fill="#B1B3B2"/>
        <path d="M24.471 25.372h-2.546a.242.242 0 0 0-.242.242v2.546c0 .134.108.243.242.243h2.546a.242.242 0 0 0 .242-.243v-2.546a.242.242 0 0 0-.242-.242" fill="#DB2730"/>
        <path d="M24.471 28.706h-2.546a.242.242 0 0 0-.242.242v2.546c0 .134.108.243.242.243h2.546a.242.242 0 0 0 .242-.243v-2.546a.242.242 0 0 0-.242-.242" fill="#B1B3B2"/>
    </g>
</svg>
