<svg width="72" height="72" viewBox="0 0 72 72" xmlns="http://www.w3.org/2000/svg">
    <g fill="none" fill-rule="evenodd">
        <path opacity=".853" d="M0 72h72V0H0z"/>
        <g fill="#FFF">
            <path d="M69.049 48.278c0 7.607-6.164 13.772-13.772 13.772-7.6 0-13.767-6.165-13.767-13.772 0-7.601 6.167-13.767 13.767-13.767 7.608 0 13.772 6.166 13.772 13.767z"/>
            <path d="M53.936 33.821a8.275 8.275 0 0 0-8.232-7.427H12.608a8.274 8.274 0 0 0-8.274 8.273V51.215c0 1.143.926 2.068 2.07 2.068h4.136a2.068 2.068 0 0 0 2.068-2.068v-3.103h27.837M8.471 26.393l3.456-9.675a7.239 7.239 0 0 1 6.817-4.805h20.824a7.24 7.24 0 0 1 6.818 4.805l3.455 9.675"/>
        </g>
        <path d="M51.506 61.416v-8.639a7.799 7.799 0 0 1-3.91-6.77 7.79 7.79 0 0 1 4.046-6.85c.524-.288 1.165.07 1.166.668l.006 4.881c0 .72.583 1.302 1.302 1.304l2.604.004a1.304 1.304 0 0 0 1.306-1.305l.001-4.883c0-.597.641-.956 1.165-.669a7.793 7.793 0 0 1 4.046 6.85 7.791 7.791 0 0 1-3.91 6.77v.867l.008 7.746" fill="#E2E8EE"/>
        <g stroke="#16171D" stroke-linecap="round" stroke-linejoin="round">
            <path d="M53.936 33.821a8.275 8.275 0 0 0-8.232-7.427H12.608a8.274 8.274 0 0 0-8.274 8.273V51.215c0 1.143.926 2.068 2.07 2.068h4.136a2.068 2.068 0 0 0 2.068-2.068v-3.103h27.837M8.471 26.393l3.456-9.675a7.239 7.239 0 0 1 6.817-4.805h20.824a7.24 7.24 0 0 1 6.818 4.805l3.455 9.675"/>
            <path d="M5.217 21.885h1.337c1.06 0 1.917.857 1.917 1.916v3.255H4.258a.958.958 0 0 1-.958-.959v-2.296c0-1.059.858-1.916 1.917-1.916zM53.096 21.885h-1.338a1.916 1.916 0 0 0-1.916 1.916v3.255h4.212a.958.958 0 0 0 .959-.959v-2.296a1.916 1.916 0 0 0-1.917-1.916zM69.049 48.278c0 7.607-6.164 13.772-13.772 13.772-7.6 0-13.767-6.165-13.767-13.772 0-7.601 6.167-13.767 13.767-13.767 7.608 0 13.772 6.166 13.772 13.767z"/>
            <path d="M51.506 61.416v-8.639a7.799 7.799 0 0 1-3.91-6.77 7.79 7.79 0 0 1 4.046-6.85c.524-.288 1.165.07 1.166.668l.006 4.881c0 .72.583 1.302 1.302 1.304l2.604.004a1.304 1.304 0 0 0 1.306-1.305l.001-4.883c0-.597.641-.956 1.165-.669a7.793 7.793 0 0 1 4.046 6.85 7.791 7.791 0 0 1-3.91 6.77v.867l.008 7.746"/>
        </g>
        <g stroke="#B70F28" stroke-linecap="round" stroke-linejoin="round">
            <path d="M15.711 34.227h-4.137a2.069 2.069 0 0 0-2.069 2.07v2.067a2.07 2.07 0 0 0 2.07 2.07h4.136a3.103 3.103 0 0 0 0-6.207zM22.251 37.383h13.81"/>
        </g>
    </g>
</svg>
