<svg width="72" height="72" viewBox="0 0 72 72" xmlns="http://www.w3.org/2000/svg">
    <g fill="none" fill-rule="evenodd">
        <path d="M0 72h72V0H0z"/>
        <path d="M9.347 62.242V23.949c0-.714.386-1.372 1.01-1.721L34.002 8.994a3.945 3.945 0 0 1 3.845-.004L61.64 22.239a1.971 1.971 0 0 1 1.013 1.722v38.281" fill="#FFF"/>
        <path d="M20.343 62.242V45.595a3.37 3.37 0 0 1 3.37-3.37h24.573a3.371 3.371 0 0 1 3.372 3.37v16.647" fill="#E2E8EE"/>
        <g stroke="#16171D" stroke-linecap="round" stroke-linejoin="round">
            <path d="M20.343 62.242V45.595a3.37 3.37 0 0 1 3.37-3.37h24.573a3.371 3.371 0 0 1 3.372 3.37v16.647M20.41 48.947h31.18M20.41 55.9h31.18"/>
            <path d="M9.347 62.242V23.949c0-.714.386-1.372 1.01-1.721L34.002 8.994a3.945 3.945 0 0 1 3.845-.004L61.64 22.239a1.971 1.971 0 0 1 1.013 1.722v38.281M6.492 62.242h59.016"/>
        </g>
        <path d="m33.975 30.843 2.477-2.84h-1.619L32.8 30.425v-2.422h-1.376v6.014H32.8v-2.634l1.572 2.028c.296.383.753.606 1.236.606h.94l-2.572-3.174zM46.499 31.988v.28c0 .628-.416 1.019-1.087 1.019-.28 0-.695-.19-.695-.594 0-.626.864-.72 1.38-.72.081 0 .163.004.244.008l.158.007m.98 1.097v-1.76c0-1.269-.574-1.86-1.809-1.86-.501 0-.99.14-1.451.415l-.052.03.006.093c.01.159.096.303.23.389a.48.48 0 0 0 .44.042c.227-.09.47-.138.703-.138.652 0 .926.257.95.908-.258-.011-.463-.011-.733-.011-.771 0-2.077.315-2.077 1.5 0 .905.605 1.425 1.659 1.425.653 0 1.06-.308 1.273-.538a.65.65 0 0 0 .613.437h.295l-.014-.11a7.065 7.065 0 0 1-.033-.822M50.535 29.523c-.159-.032-.284-.057-.52-.057-.403 0-.817.238-1.073.6a.757.757 0 0 0-.712-.5h-.173v4.452h.98v-2.034c0-.995.416-1.638 1.062-1.638.154 0 .287.023.396.068l.136.056v-.929l-.096-.018zM43.274 32.67l-.081.039-.17.08a3.247 3.247 0 0 1-1.145.252c-1.13 0-1.95-.854-1.95-2.031 0-1.195.818-2.03 1.99-2.03.173 0 .344.02.508.06a.732.732 0 0 0 .9-.65l.015-.176-.118-.053c-.395-.174-.836-.258-1.345-.258-1.868 0-3.172 1.268-3.172 3.083 0 1.903 1.242 3.131 3.164 3.131.556 0 1.012-.073 1.357-.216l.12-.05-.073-1.182z" fill="#DB2730"/>
        <path fill="#DB2730" d="M35.928 31.611h1.983v-.95h-1.983zM28.523 27.258a3.588 3.588 0 0 0-3.281 3.281.278.278 0 0 0 .281.294h3.013a.28.28 0 0 0 .28-.28v-3.015a.278.278 0 0 0-.293-.28"/>
        <path d="M25.242 31.478a3.588 3.588 0 0 0 3.282 3.28.278.278 0 0 0 .293-.28v-3.013a.28.28 0 0 0-.28-.28h-3.014a.278.278 0 0 0-.28.293" fill="#B1B3B2"/>
        <path d="M24.609 27.311H21.65a.281.281 0 0 0-.281.282v2.957c0 .157.126.283.281.283h2.958a.281.281 0 0 0 .281-.283v-2.957a.281.281 0 0 0-.281-.282" fill="#DB2730"/>
        <path d="M24.609 31.184H21.65a.281.281 0 0 0-.281.282v2.957c0 .157.126.283.281.283h2.958a.281.281 0 0 0 .281-.283v-2.957a.281.281 0 0 0-.281-.282" fill="#B1B3B2"/>
    </g>
</svg>
