<svg width="80" height="80" viewBox="0 0 80 80" xmlns="http://www.w3.org/2000/svg">
    <g fill="none" fill-rule="evenodd">
        <path d="M62.553 58.076H58.48v-.368a7.448 7.448 0 0 0 2.545-.112c2.35-.516 4.854-3.01 5.38-5.366a7.207 7.207 0 0 0-7.925-8.794V20.562a4.515 4.515 0 0 0-4.515-4.516H16.99a4.516 4.516 0 0 0-4.516 4.517v43.994a4.516 4.516 0 0 0 4.516 4.516H71.84c.959-5.899-3.569-10.997-9.288-10.997" fill="#FFF"/>
        <path d="M48.353 16.022a5.12 5.12 0 0 1-5.12 5.12H27.756a5.12 5.12 0 1 1 0-10.24h15.477a5.12 5.12 0 0 1 5.12 5.12z" fill="#E2E8EE"/>
        <g stroke="#16171D" stroke-linecap="round" stroke-linejoin="round">
            <path d="M61.026 57.571a7.223 7.223 0 0 1-8.668-8.663c.522-2.354 3.017-4.858 5.367-5.378a7.22 7.22 0 0 1 8.68 8.675c-.526 2.355-3.03 4.85-5.379 5.366z"/>
            <path d="M62.553 58.051h-6.338c-5.719 0-10.247 5.098-9.287 10.997H71.84c.96-5.9-3.569-10.997-9.288-10.997zM58.48 43.344V20.537a4.515 4.515 0 0 0-4.515-4.515h-5.613M22.635 16.022h-5.644a4.515 4.515 0 0 0-4.516 4.516v43.994a4.515 4.515 0 0 0 4.516 4.517H46.928"/>
            <path d="M48.353 16.022a5.12 5.12 0 0 1-5.12 5.12H27.756a5.12 5.12 0 1 1 0-10.24h15.477a5.12 5.12 0 0 1 5.12 5.12z"/>
        </g>
        <g stroke="#B70F28" stroke-linecap="round" stroke-linejoin="round">
            <path d="M36.063 35.314h9.431M20.314 34.044l2.73 2.73M23.044 36.773l5.007-5.007M20.314 46.894l2.73 2.73M23.044 49.623l5.007-5.007M36.063 47.177h9.431"/>
        </g>
    </g>
</svg>
