<svg width="80" height="80" viewBox="0 0 80 80" xmlns="http://www.w3.org/2000/svg">
    <g fill="none" fill-rule="evenodd">
        <path d="M0 80h80V0H0z"/>
        <path d="M0 80h80V0H0z"/>
        <g fill="#FFF">
            <path d="M55.83 57.628v-40.09a4.825 4.825 0 0 0-4.824-4.825H11.492a4.827 4.827 0 0 0-4.825 4.827V64.554a4.826 4.826 0 0 0 4.825 4.826H55.83"/>
            <path d="M54.978 69.108h11.988v2.248c0 .827.671 1.498 1.499 1.498h2.998c.827 0 1.498-.67 1.498-1.498V59.368a5.995 5.995 0 0 0-5.995-5.995H42.92a5.995 5.995 0 0 0-5.995 5.995v11.988c0 .827.671 1.498 1.5 1.498h2.997c.827 0 1.498-.67 1.498-1.498v-2.248h12.058z"/>
            <path d="m39.923 53.374 2.503-7.01a5.246 5.246 0 0 1 4.94-3.48H62.45a5.246 5.246 0 0 1 4.94 3.48l2.503 7.01"/>
        </g>
        <path d="M44.917 12.598a5.503 5.503 0 0 1-5.503 5.503H22.782a5.503 5.503 0 1 1 0-11.006h16.632a5.503 5.503 0 0 1 5.503 5.503z" fill="#E2E8EE"/>
        <g stroke="#B70F28" stroke-linecap="round" stroke-linejoin="round">
            <path d="m24.42 34.06 3.203 10.185 3.483-7.888 3.548 7.868 3.066-10.17M36.577 37.825h3.104M22.515 37.825h3.09"/>
        </g>
        <path d="M55.8 42.884V17.45a4.853 4.853 0 0 0-4.853-4.852h-6.031" stroke="#16171D" stroke-linecap="round" stroke-linejoin="round"/>
        <path d="m33.12 69.583 3.805-.001"/>
        <path d="M17.279 12.598h-6.067a4.853 4.853 0 0 0-4.853 4.852v47.28a4.852 4.852 0 0 0 4.853 4.852H36.926" stroke="#16171D" stroke-linecap="round" stroke-linejoin="round"/>
        <path d="M44.917 12.598a5.503 5.503 0 0 1-5.503 5.503H22.782a5.503 5.503 0 1 1 0-11.006h16.632a5.503 5.503 0 0 1 5.503 5.503zM54.978 69.108h11.988v2.248c0 .827.671 1.498 1.499 1.498h2.998c.827 0 1.498-.67 1.498-1.498V59.368a5.995 5.995 0 0 0-5.995-5.995H42.92a5.995 5.995 0 0 0-5.995 5.995v11.988c0 .827.671 1.498 1.5 1.498h2.997c.827 0 1.498-.67 1.498-1.498v-2.248h12.058z" stroke="#16171D" stroke-linecap="round" stroke-linejoin="round"/>
        <path d="m39.923 53.374 2.503-7.01a5.246 5.246 0 0 1 4.94-3.48H62.45a5.246 5.246 0 0 1 4.94 3.48l2.503 7.01M45.168 59.05H42.17c-.828 0-1.498.67-1.498 1.498v1.498c0 .828.67 1.498 1.498 1.498h2.997a2.247 2.247 0 1 0 0-4.495zM64.789 59.05h2.996c.829 0 1.499.67 1.499 1.498v1.498c0 .828-.67 1.498-1.499 1.498H64.79a2.247 2.247 0 1 1 0-4.495zM37.646 50.107h.807c.812 0 1.47.659 1.47 1.47v2.276h-3.011a.734.734 0 0 1-.736-.734v-1.542c0-.811.659-1.47 1.47-1.47zM72.17 50.107h-.807a1.47 1.47 0 0 0-1.469 1.47v2.276h3.01a.734.734 0 0 0 .736-.734v-1.542a1.47 1.47 0 0 0-1.47-1.47z" stroke="#16171D" stroke-linecap="round" stroke-linejoin="round"/>
    </g>
</svg>
