<svg width="80" height="80" viewBox="0 0 80 80" xmlns="http://www.w3.org/2000/svg">
    <g stroke-linecap="round" stroke-linejoin="round" fill="none" fill-rule="evenodd">
        <g stroke="#B70F28">
            <path d="m44.336 41.935 7.675-7.676M39.778 37.375l4.558 4.56"/>
        </g>
        <g stroke="#16171D">
            <path d="M25.18 33.842c2.543-7.893 9.948-13.604 18.686-13.604 10.841 0 19.627 8.788 19.627 19.627 0 10.84-8.786 19.627-19.627 19.627"/>
            <path d="M28.584 68.952h15.441c16.064 0 29.086-13.022 29.086-29.086 0-16.066-13.022-29.088-29.086-29.088-13.999 0-25.688 9.889-28.465 23.063M43.924 59.492H14.317M33.264 50.806H19.101M21.053 41.733H6.888"/>
        </g>
    </g>
</svg>
