<svg width="80" height="80" viewBox="0 0 80 80" xmlns="http://www.w3.org/2000/svg">
    <g fill="none" fill-rule="evenodd">
        <path d="M0 80h80V0H0z"/>
        <g fill="#FFF">
            <path d="M46.423 70.037H23.197A4.41 4.41 0 0 1 18.8 65.64V21.494a4.41 4.41 0 0 1 4.397-4.396h34.94a4.41 4.41 0 0 1 4.398 4.396v25.92"/>
            <path d="M18.8 62.903h-2.736a4.41 4.41 0 0 1-4.397-4.397V14.361a4.409 4.409 0 0 1 4.397-4.397h34.94A4.41 4.41 0 0 1 55.4 14.36v2.736"/>
        </g>
        <path d="M51.978 70.037h-5.555V64.48c0-.612.24-1.197.673-1.63l16.276-16.275a2.304 2.304 0 0 1 3.253 0l3.255 3.255c.9.9.9 2.357 0 3.256L53.605 69.363a2.29 2.29 0 0 1-1.627.674z" fill="#E2E8EE"/>
        <g stroke="#16171D" stroke-linecap="round">
            <path d="M46.423 70.037H23.197A4.41 4.41 0 0 1 18.8 65.64V21.494a4.41 4.41 0 0 1 4.397-4.396h34.94a4.41 4.41 0 0 1 4.398 4.396v25.92"/>
            <path d="M18.8 62.903h-2.736a4.41 4.41 0 0 1-4.397-4.397V14.361a4.409 4.409 0 0 1 4.397-4.397h34.94A4.41 4.41 0 0 1 55.4 14.36v2.736M30.31 42.27h20.714M30.31 49.237h20.714M30.31 56.204h13.81M51.978 70.037h-5.555V64.48c0-.612.24-1.197.673-1.63l16.276-16.275a2.304 2.304 0 0 1 3.253 0l3.255 3.255c.9.9.9 2.357 0 3.256L53.605 69.363a2.29 2.29 0 0 1-1.627.674zM68.084 54.794l-6.269-6.192"/>
        </g>
        <path d="m40.412 29.742 2.176-2.494h-1.422l-1.786 2.127v-2.127h-1.21v5.283h1.21v-2.314l1.38 1.782c.26.336.66.532 1.086.532h.826l-2.26-2.789zM51.415 30.749v.245c0 .552-.366.896-.955.896-.246 0-.61-.166-.61-.523 0-.55.76-.632 1.211-.632.072 0 .144.004.216.008l.138.006m.86.963v-1.547c0-1.114-.504-1.633-1.588-1.633-.441 0-.87.123-1.276.364l-.045.027.005.082a.44.44 0 0 0 .203.341.42.42 0 0 0 .385.037c.201-.079.415-.121.618-.121.573 0 .814.225.836.798-.227-.01-.407-.01-.645-.01-.678 0-1.823.277-1.823 1.317 0 .796.53 1.253 1.456 1.253.574 0 .93-.27 1.118-.473a.57.57 0 0 0 .54.384h.26l-.014-.097a6.237 6.237 0 0 1-.03-.722M54.961 28.582c-.14-.027-.25-.05-.456-.05-.356 0-.72.21-.944.528a.665.665 0 0 0-.625-.44h-.152v3.911h.86v-1.786c0-.875.367-1.44.934-1.44.135 0 .252.02.348.06l.119.05v-.816l-.084-.017zM48.582 31.347l-.072.034s-.111.054-.149.07a2.86 2.86 0 0 1-1.007.223c-.992 0-1.712-.75-1.712-1.785 0-1.05.719-1.784 1.748-1.784.153 0 .303.017.448.053a.64.64 0 0 0 .79-.571l.013-.155-.104-.045a2.87 2.87 0 0 0-1.183-.228c-1.64 0-2.786 1.115-2.786 2.709 0 1.671 1.09 2.751 2.78 2.751.489 0 .89-.064 1.193-.19l.104-.043-.063-1.04z" fill="#DB2730"/>
        <path fill="#DB2730" d="M42.128 30.417h1.742v-.835h-1.742zM35.622 26.593a3.15 3.15 0 0 0-2.882 2.882.243.243 0 0 0 .247.258h2.646a.245.245 0 0 0 .247-.246V26.84a.244.244 0 0 0-.258-.246"/>
        <path d="M32.74 30.3a3.15 3.15 0 0 0 2.882 2.882.243.243 0 0 0 .258-.247V30.29a.245.245 0 0 0-.246-.247h-2.648a.244.244 0 0 0-.246.258" fill="#B1B3B2"/>
        <path d="M32.183 26.64h-2.599a.247.247 0 0 0-.247.247v2.598c0 .137.11.248.247.248h2.599a.248.248 0 0 0 .248-.248v-2.598a.248.248 0 0 0-.248-.248" fill="#DB2730"/>
        <path d="M32.183 30.042h-2.599a.247.247 0 0 0-.247.248v2.598c0 .136.11.248.247.248h2.599a.248.248 0 0 0 .248-.248V30.29a.248.248 0 0 0-.248-.248" fill="#B1B3B2"/>
    </g>
</svg>
