<svg width="48" height="48" viewBox="0 0 48 48" xmlns="http://www.w3.org/2000/svg">
    <g fill="none" fill-rule="evenodd">
        <path d="M0 48h48V0H0z"/>
        <path d="M26.255 6.094H8.23A2.897 2.897 0 0 0 5.333 8.99v30.072c0 1.6 1.297 2.897 2.897 2.897h22.508a2.989 2.989 0 0 0 2.989-2.989c-5.393 0-9.572-5.193-7.811-10.85 1.049-3.37 4.28-5.588 7.81-5.588v-8.967" fill="#FFF"/>
        <path d="M33.727 22.532a8.22 8.22 0 1 1 0 16.438 8.22 8.22 0 0 1 0-16.438z" fill="#E2E8EE"/>
        <g stroke="#16171D" stroke-linecap="round" stroke-linejoin="round">
            <path d="M26.255 6.094H8.23A2.897 2.897 0 0 0 5.333 8.99v30.072c0 1.6 1.297 2.897 2.897 2.897h22.508a2.989 2.989 0 0 0 2.989-2.989h0c-5.393 0-9.572-5.193-7.811-10.85 1.049-3.37 4.28-5.588 7.81-5.588h0v-8.967"/>
            <path d="M26.255 6.094v5.969c0 .83.672 1.502 1.502 1.502h5.97l-7.472-7.471zM33.727 22.532a8.22 8.22 0 1 1 0 16.438 8.22 8.22 0 0 1 0-16.438zM42.666 39.744l-3.154-3.155"/>
            <path d="M33.7 33.42h.077v-6.19h-.078zM30.603 33.42h.077v-3.095h-.077zM36.795 33.42h.077v-4.643h-.077z"/>
        </g>
        <g stroke="#B70F28" stroke-linecap="round">
            <path d="M9.806 20.968h13.11"/>
            <path d="M14.71 17.29h-3.742a1.275 1.275 0 0 1-1.275-1.275v-3.742c0-.704.57-1.275 1.275-1.275h3.742c.705 0 1.276.57 1.276 1.275v3.742c0 .705-.571 1.276-1.276 1.276z" stroke-linejoin="round"/>
            <path d="M9.806 24.846h8.74M9.806 28.846h8.74"/>
        </g>
    </g>
</svg>
