<svg width="56" height="88" viewBox="0 0 56 88" xmlns="http://www.w3.org/2000/svg">
    <g fill="none" fill-rule="evenodd">
        <path d="M0 72h56V16H0z"/>
        <g fill="#FFF">
            <path d="M4.832 28.444c-.95 0-1.72.771-1.72 1.722v24.85c0 .95.77 1.72 1.72 1.72H34.88v-26.57c0-.95-.77-1.722-1.72-1.722H4.831z"/>
            <path d="M48.58 40.632c-1.435-2.152-2.893-3.458-6.437-3.444h-4.708c-.94 0-1.793.066-2.555.198v16.215c0 .94-.014 1.986-.04 3.136h17.145V46.514c0-.504-.149-.997-.429-1.417l-2.977-4.465z"/>
        </g>
        <g fill="#E2E8EE">
            <path d="M18.04 56.157a4.286 4.286 0 0 1-5.147 5.146 4.244 4.244 0 0 1-3.19-3.19 4.287 4.287 0 0 1 5.147-5.146 4.244 4.244 0 0 1 3.19 3.19zM47.651 56.156a4.286 4.286 0 0 1-5.146 5.147 4.244 4.244 0 0 1-3.19-3.19 4.287 4.287 0 0 1 5.147-5.146 4.244 4.244 0 0 1 3.19 3.19z"/>
        </g>
        <g stroke="#16171D" stroke-linecap="round" stroke-linejoin="round">
            <path d="M9.596 57.135H4.884c-.95 0-1.722-.77-1.722-1.72V30.563c0-.95.771-1.721 1.721-1.721H33.21c.95 0 1.72.771 1.72 1.72v26.572H18.149 34.93V30.564c0-.95-.77-1.721-1.721-1.721H4.884c-.95 0-1.722.771-1.722 1.72v24.851c0 .95.771 1.721 1.722 1.721h4.712zM39.21 57.135H34.93v-19.55h8.63c1.733 0 3.35.866 4.312 2.308l4.164 6.246v9.275c0 .95-.771 1.721-1.721 1.721H47.76h2.556c.95 0 1.72-.77 1.72-1.72v-9.276l-4.163-6.246a5.181 5.181 0 0 0-4.311-2.307h-8.63v19.55h4.277z"/>
            <path d="M18.04 56.157a4.286 4.286 0 0 1-5.147 5.146 4.244 4.244 0 0 1-3.19-3.19 4.287 4.287 0 0 1 5.147-5.146 4.244 4.244 0 0 1 3.19 3.19zM47.651 56.156a4.286 4.286 0 0 1-5.146 5.147 4.244 4.244 0 0 1-3.19-3.19 4.287 4.287 0 0 1 5.147-5.146 4.244 4.244 0 0 1 3.19 3.19zM52.037 46.139h-6.69a1.864 1.864 0 0 1-1.864-1.864v-6.69M29.338 52.725h2.221-2.221zM6.483 46.139H31.56 6.483z"/>
        </g>
        <path d="m18.067 37.393 1.6-1.833h-1.045l-1.313 1.563V35.56h-.89v3.883h.89v-1.701l1.014 1.31c.192.247.486.391.799.391h.607l-1.662-2.05zM26.156 38.133v.18c0 .406-.27.659-.702.659-.181 0-.448-.122-.448-.384 0-.405.557-.465.89-.465.052 0 .105.003.158.006l.102.004m.633.708v-1.137c0-.82-.371-1.2-1.168-1.2-.325 0-.64.09-.938.267l-.033.02.004.06a.323.323 0 0 0 .148.251c.086.055.19.065.284.027.147-.058.304-.089.454-.089.421 0 .598.166.614.586-.167-.007-.299-.007-.474-.007-.498 0-1.34.204-1.34.969 0 .585.39.92 1.07.92.422 0 .684-.198.822-.347a.42.42 0 0 0 .397.282h.19l-.01-.071a4.585 4.585 0 0 1-.02-.531M28.763 36.54c-.103-.02-.184-.036-.336-.036-.261 0-.528.153-.693.388a.489.489 0 0 0-.46-.324h-.112v2.875h.633V38.13c0-.643.27-1.058.686-1.058.099 0 .185.015.256.044l.087.036v-.6l-.061-.011zM24.073 38.573l-.053.025s-.081.04-.11.051c-.208.094-.526.164-.74.164-.729 0-1.258-.552-1.258-1.312 0-.772.529-1.312 1.285-1.312.113 0 .223.013.33.04a.47.47 0 0 0 .58-.42l.01-.114-.077-.033a2.11 2.11 0 0 0-.87-.168c-1.205 0-2.048.82-2.048 1.992 0 1.228.802 2.022 2.044 2.022.36 0 .654-.047.877-.14l.077-.032-.047-.763z" fill="#DB2730"/>
        <path fill="#DB2730" d="M19.329 37.89h1.28v-.614h-1.28zM14.546 35.078a2.316 2.316 0 0 0-2.119 2.119.18.18 0 0 0 .182.19h1.946c.1 0 .18-.082.18-.182v-1.946a.179.179 0 0 0-.189-.181"/>
        <path d="M12.428 37.804a2.316 2.316 0 0 0 2.118 2.118.18.18 0 0 0 .19-.181v-1.946c0-.1-.081-.181-.181-.181h-1.946a.179.179 0 0 0-.181.19" fill="#B1B3B2"/>
        <path d="M12.018 35.112h-1.91c-.1 0-.181.082-.181.182v1.91c0 .1.08.182.181.182h1.91c.1 0 .183-.082.183-.182v-1.91c0-.1-.082-.182-.183-.182" fill="#DB2730"/>
        <path d="M12.018 37.614h-1.91c-.1 0-.181.081-.181.182v1.91c0 .1.08.182.181.182h1.91c.1 0 .183-.082.183-.183v-1.91c0-.1-.082-.181-.183-.181" fill="#B1B3B2"/>
    </g>
</svg>
