<svg width="24" height="24" viewBox="0 0 24 24" xmlns="http://www.w3.org/2000/svg">
    <g fill="none" fill-rule="evenodd">
        <circle stroke="#D8DEE8" fill="#FFF" cx="12" cy="12" r="11.5"/>
        <g stroke="#16171D" stroke-linecap="round" stroke-linejoin="round">
            <path d="M15.85 12.274v.236c0 .39-.235.74-.594.89l-2.739 1.14a1.283 1.283 0 0 1-.988 0L8.791 13.4a.963.963 0 0 1-.594-.89V8.692c0-.39.235-.74.594-.89l2.739-1.14c.315-.13.671-.13.987.001l2.739 1.14c.36.15.593.501.593.89v3.581zM12.023 9.596v4.993"/>
            <path d="m8.477 8.167 3.321 1.384c.144.06.306.06.45 0l3.36-1.4M6.734 12.35c-.81.498-1.284 1.114-1.284 1.78 0 1.651 2.936 2.99 6.557 2.99 3.62 0 6.555-1.339 6.555-2.99 0-.666-.479-1.282-1.289-1.78"/>
            <path d="m6.525 13.637.209-1.287-1.297-.132"/>
        </g>
    </g>
</svg>
