<svg width="56" height="72" viewBox="0 0 56 72" xmlns="http://www.w3.org/2000/svg">
    <g fill="none" fill-rule="evenodd">
        <path d="M43.787 48.653h-2.851v-.257c.57.071 1.168.057 1.782-.079 1.645-.361 3.397-2.107 3.765-3.756a5.045 5.045 0 0 0-5.547-6.156V22.393a3.16 3.16 0 0 0-3.16-3.16H11.893a3.162 3.162 0 0 0-3.161 3.161V53.19a3.16 3.16 0 0 0 3.16 3.161H50.29a6.596 6.596 0 0 0-6.502-7.698" fill="#FFF"/>
        <path d="M33.847 19.215a3.584 3.584 0 0 1-3.584 3.585H19.43a3.584 3.584 0 1 1 0-7.169h10.834a3.584 3.584 0 0 1 3.584 3.584z" fill="#E2E8EE"/>
        <g stroke="#16171D" stroke-linecap="round" stroke-linejoin="round">
            <path d="M42.718 48.3a5.056 5.056 0 0 1-6.067-6.064c.365-1.648 2.111-3.4 3.756-3.765a5.055 5.055 0 0 1 6.076 6.073c-.368 1.648-2.12 3.394-3.765 3.756z"/>
            <path d="M43.787 48.636H39.35a6.595 6.595 0 0 0-6.5 7.698h17.439a6.596 6.596 0 0 0-6.502-7.698zM40.936 38.341V22.376a3.16 3.16 0 0 0-3.16-3.16h-3.93M15.845 19.215h-3.952a3.16 3.16 0 0 0-3.16 3.161v30.797a3.16 3.16 0 0 0 3.16 3.161H32.85"/>
            <path d="M33.847 19.215a3.584 3.584 0 0 1-3.584 3.585H19.43a3.584 3.584 0 1 1 0-7.169h10.834a3.584 3.584 0 0 1 3.584 3.584z"/>
        </g>
        <g stroke="#B70F28" stroke-linecap="round" stroke-linejoin="round">
            <path d="M25.244 32.72h6.602M14.22 31.831l1.911 1.91M16.131 33.741l3.505-3.505M14.22 40.826l1.911 1.91M16.131 42.736l3.505-3.505M25.244 41.024h6.602"/>
        </g>
    </g>
</svg>
