<svg width="56" height="72" viewBox="0 0 56 72" xmlns="http://www.w3.org/2000/svg">
    <g fill="none" fill-rule="evenodd">
        <path d="M40.708 17.1H9.917A3.617 3.617 0 0 0 6.3 20.717v23.2a3.617 3.617 0 0 0 3.617 3.617h36.166a3.617 3.617 0 0 0 3.617-3.616V20.717a3.617 3.617 0 0 0-3.617-3.617h-5.375" fill="#FFF"/>
        <path d="M6.3 40.45v3.617c1.08 2.312 2.285 3.467 3.617 3.467h36.166c1.332 0 2.538-1.155 3.617-3.467v-3.616H6.3z" fill="#E2E8EE"/>
        <g stroke="#16171D" stroke-linecap="round" stroke-linejoin="round">
            <path d="M40.708 17.1H9.917A3.617 3.617 0 0 0 6.3 20.717v23.2a3.617 3.617 0 0 0 3.617 3.617h36.166a3.617 3.617 0 0 0 3.617-3.616V20.717a3.617 3.617 0 0 0-3.617-3.617h-5.375M49.7 40.451H6.3M28 54.377H16.505M21.787 47.534l-1.861 6.843M27.189 54.377h11.495M33.402 47.534l1.861 6.843"/>
        </g>
        <path d="m26.543 30.227 1.782-2.044h-1.164l-1.464 1.743v-1.743h-.99v4.327h.99v-1.895l1.131 1.46c.213.275.542.435.89.435h.675l-1.85-2.283zM35.554 31.05v.201c0 .453-.3.734-.782.734-.201 0-.5-.136-.5-.427 0-.45.622-.518.992-.518.059 0 .118.003.177.006l.113.005m.705.789v-1.267c0-.913-.413-1.337-1.3-1.337-.362 0-.714.1-1.046.298l-.037.022.005.067a.36.36 0 0 0 .165.28c.096.06.21.071.316.03.165-.066.34-.1.506-.1.47 0 .666.185.684.654-.186-.008-.333-.008-.528-.008-.555 0-1.493.227-1.493 1.079 0 .65.434 1.025 1.193 1.025.47 0 .762-.222.915-.387a.468.468 0 0 0 .441.314h.214l-.011-.08a4.984 4.984 0 0 1-.024-.59M38.458 29.277a1.613 1.613 0 0 0-.374-.041c-.29 0-.588.171-.772.432a.546.546 0 0 0-.512-.36h-.126v3.203h.706v-1.463c0-.717.3-1.179.764-1.179a.76.76 0 0 1 .285.049l.098.04v-.667l-.069-.014zM33.234 31.54l-.06.029-.122.057a2.327 2.327 0 0 1-.823.182c-.813 0-1.403-.615-1.403-1.46 0-.86.589-1.462 1.432-1.462.125 0 .248.015.366.043a.523.523 0 0 0 .648-.468l.01-.126-.085-.038a2.36 2.36 0 0 0-.968-.186c-1.344 0-2.282.912-2.282 2.219 0 1.368.893 2.252 2.276 2.252.4 0 .729-.052.977-.155l.086-.036-.052-.85z" fill="#B70F28"/>
        <path fill="#B70F28" d="M27.948 30.78h1.427v-.684h-1.427zM22.62 27.647a2.582 2.582 0 0 0-2.36 2.361.2.2 0 0 0 .202.21h2.168c.112 0 .202-.089.202-.2v-2.169a.2.2 0 0 0-.211-.202"/>
        <path d="M20.26 30.683a2.582 2.582 0 0 0 2.361 2.361.2.2 0 0 0 .21-.202v-2.168a.201.201 0 0 0-.201-.202h-2.168a.2.2 0 0 0-.202.211" fill="#B1B3B2"/>
        <path d="M19.804 27.686h-2.128a.202.202 0 0 0-.202.202v2.128c0 .112.09.203.202.203h2.128c.112 0 .203-.09.203-.203v-2.128a.202.202 0 0 0-.203-.202" fill="#B70F28"/>
        <path d="M19.804 30.472h-2.128a.202.202 0 0 0-.202.203v2.128c0 .112.09.202.202.202h2.128c.112 0 .203-.09.203-.202v-2.128a.202.202 0 0 0-.203-.203" fill="#B1B3B2"/>
    </g>
</svg>
