<svg width="72" height="72" viewBox="0 0 72 72" xmlns="http://www.w3.org/2000/svg">
    <g fill="none" fill-rule="evenodd">
        <path d="M0 72h72V0H0z"/>
        <path d="M14.369 56.613h-2.463a3.968 3.968 0 0 1-3.957-3.957V12.924a3.968 3.968 0 0 1 3.957-3.957h31.446a3.968 3.968 0 0 1 3.957 3.957v2.463" fill="#D8DEE8"/>
        <g fill="#FFF">
            <path d="M44.045 63.033H18.326a3.968 3.968 0 0 1-3.957-3.957V19.345a3.968 3.968 0 0 1 3.957-3.957h31.446a3.968 3.968 0 0 1 3.957 3.957V39.21"/>
            <path d="M55.076 50.88a5.924 5.924 0 0 1-7.11-7.107c.428-1.93 2.475-3.984 4.402-4.41a5.923 5.923 0 0 1 7.119 7.115c-.431 1.931-2.484 3.977-4.411 4.401zM56.416 53.658h-5.395a8.02 8.02 0 0 0-7.904 9.36h21.204a8.02 8.02 0 0 0-7.905-9.36z"/>
        </g>
        <g stroke="#16171D" stroke-linecap="round">
            <path d="M44.045 63.033H18.326a3.968 3.968 0 0 1-3.957-3.957V19.345a3.968 3.968 0 0 1 3.957-3.957h31.446a3.968 3.968 0 0 1 3.957 3.957V39.21"/>
            <path d="M14.369 56.613h-2.463a3.968 3.968 0 0 1-3.957-3.957V12.924a3.968 3.968 0 0 1 3.957-3.957h31.446a3.968 3.968 0 0 1 3.957 3.957v2.463M24.727 38.044H43.37M24.727 44.313H43.37M24.727 50.584h12.43"/>
            <path d="M55.076 50.88a5.924 5.924 0 0 1-7.11-7.107c.428-1.93 2.475-3.984 4.402-4.41a5.923 5.923 0 0 1 7.119 7.115c-.431 1.931-2.484 3.977-4.411 4.401zM56.416 53.659h-5.395a8.02 8.02 0 0 0-7.904 9.36h21.204a8.02 8.02 0 0 0-7.905-9.36z" stroke-linejoin="round"/>
        </g>
        <g stroke="#B70F28" stroke-linecap="round" stroke-linejoin="round">
            <path d="M28.214 22.771 31 31.634l3.03-6.865 3.089 6.848 2.668-8.85M38.793 26.047h2.701M26.555 26.047h2.69"/>
        </g>
    </g>
</svg>
