<svg width="72" height="72" viewBox="0 0 72 72" xmlns="http://www.w3.org/2000/svg">
    <g fill="none" fill-rule="evenodd">
        <path d="M0 72h72V0H0z"/>
        <path d="M0 72h72V0H0z"/>
        <g fill="#FFF">
            <path d="M6.213 16A2.213 2.213 0 0 0 4 18.213v31.95c0 1.222.991 2.213 2.213 2.213h38.632V18.213A2.213 2.213 0 0 0 42.632 16H6.213z"/>
            <path d="M62.46 31.67c-1.845-2.767-3.72-4.446-8.277-4.429h-6.052c-1.21 0-2.305.085-3.286.256v20.847c0 1.21-.017 2.554-.051 4.032H66.838V39.232c0-.648-.192-1.282-.552-1.822l-3.827-5.74z"/>
        </g>
        <g fill="#E2E8EE">
            <path d="M23.193 51.63a5.51 5.51 0 0 1-6.617 6.617 5.456 5.456 0 0 1-4.1-4.101 5.511 5.511 0 0 1 6.617-6.617 5.456 5.456 0 0 1 4.1 4.1zM61.266 51.63a5.51 5.51 0 0 1-6.617 6.616 5.456 5.456 0 0 1-4.1-4.1 5.512 5.512 0 0 1 6.616-6.617 5.456 5.456 0 0 1 4.101 4.1z"/>
        </g>
        <g stroke="#16171D" stroke-linecap="round" stroke-linejoin="round">
            <path d="M12.338 52.888H6.28a2.213 2.213 0 0 1-2.214-2.213v-31.95c0-1.221.991-2.213 2.213-2.213h36.42c1.222 0 2.212.992 2.212 2.213v34.163H23.333 44.91V18.725c0-1.221-.99-2.213-2.213-2.213H6.28a2.214 2.214 0 0 0-2.214 2.213v31.95c0 1.223.991 2.213 2.214 2.213h6.058z"/>
            <path d="M50.412 52.888h-5.5V27.753h11.096a6.662 6.662 0 0 1 5.543 2.967l5.353 8.03v11.925a2.213 2.213 0 0 1-2.212 2.213h-3.286 3.286c1.221 0 2.212-.99 2.212-2.213V38.75l-5.353-8.03a6.662 6.662 0 0 0-5.543-2.967H44.911v25.135h5.501zM23.193 51.63a5.51 5.51 0 0 1-6.617 6.617 5.456 5.456 0 0 1-4.1-4.101 5.511 5.511 0 0 1 6.617-6.617 5.456 5.456 0 0 1 4.1 4.1z"/>
            <path d="M61.266 51.63a5.51 5.51 0 0 1-6.617 6.616 5.456 5.456 0 0 1-4.1-4.1 5.512 5.512 0 0 1 6.616-6.617 5.456 5.456 0 0 1 4.101 4.1zM66.904 38.75h-8.6a2.397 2.397 0 0 1-2.397-2.397v-8.6M37.72 47.218h2.856-2.856zM8.336 38.75h32.24-32.24z"/>
        </g>
        <path d="m23.23 27.506 2.057-2.358h-1.344l-1.69 2.01v-2.01H21.11v4.993h1.144v-2.187l1.304 1.684a1.3 1.3 0 0 0 1.027.503h.78l-2.136-2.635zM33.629 28.457v.232c0 .522-.346.846-.902.846-.234 0-.577-.156-.577-.494 0-.52.717-.597 1.145-.597.067 0 .135.003.203.007l.13.006m.815.91v-1.462c0-1.053-.477-1.543-1.502-1.543-.417 0-.822.116-1.206.344l-.043.025.005.078c.009.131.08.25.192.322.11.07.243.083.364.035.19-.075.392-.115.584-.115.542 0 .77.214.79.754-.215-.009-.385-.009-.61-.009-.64 0-1.723.263-1.723 1.245 0 .752.502 1.184 1.377 1.184.542 0 .879-.255 1.056-.446a.539.539 0 0 0 .51.362h.245l-.012-.091a5.895 5.895 0 0 1-.027-.683M36.98 26.41c-.132-.027-.236-.048-.43-.048-.337 0-.68.197-.892.499a.629.629 0 0 0-.592-.416h-.144v3.696h.814v-1.688c0-.827.347-1.36.882-1.36.127 0 .239.019.33.057l.111.046v-.771l-.078-.016zM30.951 29.022l-.068.033-.14.066c-.27.12-.678.21-.952.21-.938 0-1.618-.71-1.618-1.687 0-.992.68-1.686 1.652-1.686.145 0 .286.017.423.05a.605.605 0 0 0 .748-.54l.011-.146-.099-.043a2.713 2.713 0 0 0-1.117-.215c-1.55 0-2.634 1.053-2.634 2.56 0 1.58 1.032 2.6 2.628 2.6.462 0 .84-.06 1.128-.18l.098-.04-.06-.982z" fill="#DB2730"/>
        <path fill="#DB2730" d="M24.851 28.143h1.647v-.788H24.85zM18.702 24.529a2.978 2.978 0 0 0-2.724 2.724.23.23 0 0 0 .233.244h2.503a.232.232 0 0 0 .232-.234v-2.5a.23.23 0 0 0-.244-.234"/>
        <path d="M15.978 28.033a2.978 2.978 0 0 0 2.724 2.724.23.23 0 0 0 .244-.233v-2.502a.232.232 0 0 0-.233-.233h-2.501a.23.23 0 0 0-.234.244" fill="#B1B3B2"/>
        <path d="M15.452 24.573h-2.456a.233.233 0 0 0-.233.234v2.455c0 .13.104.234.233.234h2.456c.13 0 .234-.105.234-.234v-2.455a.234.234 0 0 0-.234-.234" fill="#DB2730"/>
        <path d="M15.452 27.789h-2.456a.233.233 0 0 0-.233.234v2.455c0 .13.104.235.233.235h2.456c.13 0 .234-.105.234-.235v-2.455a.234.234 0 0 0-.234-.234" fill="#B1B3B2"/>
    </g>
</svg>
