<svg width="72" height="72" viewBox="0 0 72 72" xmlns="http://www.w3.org/2000/svg">
    <g fill="none" fill-rule="evenodd">
        <g fill="#FFF">
            <path d="M8.903 61.009V24.981c0-.726.392-1.395 1.026-1.75l24.04-13.454a4.008 4.008 0 0 1 3.908-.004l24.19 13.469a2.004 2.004 0 0 1 1.03 1.752v36.015"/>
            <path d="M48.398 42.52a6.163 6.163 0 0 1 6.164 6.163v12.326h-6.164v-3.063H23.673v3.063h-6.162V48.683a6.163 6.163 0 0 1 6.162-6.164z"/>
        </g>
        <path d="m20.592 42.52 2.574-7.208a5.391 5.391 0 0 1 5.079-3.578h15.51a5.392 5.392 0 0 1 5.08 3.578l2.573 7.207" fill="#E2E8EE"/>
        <g stroke="#16171D" stroke-linecap="round" stroke-linejoin="round">
            <path d="M8.903 61.009V24.981c0-.726.392-1.395 1.026-1.75l24.04-13.454a4.008 4.008 0 0 1 3.908-.004l24.19 13.469a2.004 2.004 0 0 1 1.03 1.752v36.015M6 61.009h60"/>
            <path d="M54.562 61.009V48.683a6.163 6.163 0 0 0-6.164-6.164H23.673a6.163 6.163 0 0 0-6.162 6.164v12.326"/>
            <path d="M23.673 61.009v-3.063h24.725v3.063M20.592 42.52l2.574-7.208a5.391 5.391 0 0 1 5.079-3.578h15.51a5.392 5.392 0 0 1 5.08 3.578l2.573 7.207M16.912 38.091h2.438c.686 0 1.242.556 1.242 1.242v3.68h-4.3a.62.62 0 0 1-.622-.621v-3.06c0-.685.556-1.24 1.242-1.24zM55.088 38.091H52.65c-.686 0-1.242.556-1.242 1.242v3.68h4.3a.62.62 0 0 0 .622-.621v-3.06c0-.685-.556-1.24-1.242-1.24zM29 24.5h-6M39 24.5h-6M49 24.5h-6"/>
        </g>
        <g stroke="#B70F28" stroke-linecap="round" stroke-linejoin="round">
            <path d="M25.985 48.355h-3.082c-.851 0-1.541.69-1.541 1.54v1.541c0 .852.69 1.542 1.541 1.542h3.082a2.312 2.312 0 0 0 0-4.623zM46.159 48.355h3.081c.852 0 1.542.69 1.542 1.54v1.541c0 .852-.69 1.542-1.542 1.542H46.16a2.312 2.312 0 0 1 0-4.623z"/>
        </g>
    </g>
</svg>
