<svg width="40" height="40" viewBox="0 0 40 40" xmlns="http://www.w3.org/2000/svg">
    <g fill="none" fill-rule="evenodd">
        <path d="M40 20c0 11.046-8.954 20-20 20S0 31.046 0 20 8.954 0 20 0s20 8.954 20 20" fill="#FAE100"/>
        <path d="M20.02 11.355c-5.232 0-9.474 3.65-9.474 8.152 0 2.932 1.796 5.5 4.493 6.937-.197.805-.716 2.916-.82 3.368-.13.562.187.553.395.403.163-.118 2.597-1.918 3.647-2.696.57.093 1.157.142 1.758.142 5.232 0 9.474-3.65 9.474-8.154 0-4.502-4.242-8.152-9.474-8.152" fill="#FFF"/>
    </g>
</svg>
