<svg width="40" height="40" viewBox="0 0 40 40" xmlns="http://www.w3.org/2000/svg">
    <g fill="none" fill-rule="evenodd">
        <path d="M40 20c0 11.046-8.954 20-20 20S0 31.046 0 20 8.954 0 20 0s20 8.954 20 20" fill="#161616"/>
        <path d="M24.994 19.739c-.022-2.315 1.89-3.425 1.974-3.478-1.075-1.572-2.75-1.792-3.343-1.817-1.425-.143-2.783.84-3.503.84-.724 0-1.838-.817-3.018-.793-1.557.021-2.986.905-3.785 2.291-1.614 2.799-.416 6.949 1.16 9.217.768 1.112 1.681 2.36 2.884 2.315 1.16-.045 1.599-.748 2.999-.748 1.398 0 1.795.748 3.022.73 1.244-.027 2.036-1.139 2.796-2.249.88-1.291 1.247-2.538 1.268-2.605-.028-.008-2.431-.931-2.454-3.703M22.689 12.942c.64-.772 1.071-1.849.951-2.92-.918.035-2.033.615-2.692 1.385-.593.686-1.113 1.785-.971 2.831 1.023.079 2.075-.521 2.712-1.296" fill="#FFF"/>
    </g>
</svg>
