<svg width="48" height="48" viewBox="0 0 48 48" xmlns="http://www.w3.org/2000/svg">
    <g stroke="#16171D" stroke-linejoin="round" fill="none" fill-rule="evenodd">
        <path d="M41.276 23.055V11.69c0-2.234-1.788-4.044-3.992-4.044H8.992C6.796 7.645 5 9.465 5 11.69v18.262c0 2.224 1.796 4.044 3.992 4.044h16.73M11.044 25.494h2.59M17.951 25.494h2.59" stroke-linecap="round"/>
        <path d="M33.744 21.174c-1.504 1.114-5 2.644-7.214 2.988a.956.956 0 0 0-.808.952v7.298c0 2.912 6.376 6.862 8.186 7.826.29.156.616.156.906 0 1.81-.964 8.186-4.914 8.186-7.826v-7.298a.956.956 0 0 0-.808-.952c-2.214-.344-5.71-1.874-7.214-2.988a1.023 1.023 0 0 0-1.234 0z"/>
        <path d="M15.951 17.143h-2.908a2 2 0 0 1-2-2v-.318a2 2 0 0 1 2-2h2.908a2 2 0 0 1 2 2v.318a2 2 0 0 1-2 2z" stroke-linecap="round"/>
    </g>
</svg>
