<svg width="48" height="48" viewBox="0 0 48 48" xmlns="http://www.w3.org/2000/svg">
    <g stroke="#16171D" stroke-linecap="round" stroke-linejoin="round" fill="none" fill-rule="evenodd">
        <path d="M37.091 6.5H10.909a4.908 4.908 0 0 0-4.908 4.91v29.638a.45.45 0 0 0 .77.318l1.35-1.35a1.63 1.63 0 0 1 2.304 0l.968.968a1.63 1.63 0 0 0 2.304 0l.958-.956a1.627 1.627 0 0 1 2.314.01l.916.934c.63.644 1.662.654 2.304.024l1.024-1.004a1.63 1.63 0 0 1 2.292.012l.98.98a1.63 1.63 0 0 0 2.304 0l.968-.968a1.63 1.63 0 0 1 2.304 0l1.334 1.334a.46.46 0 0 0 .786-.326V11.41"/>
        <path d="M42 11.41v4.595h-9.818V11.41c0-1.456.622-2.766 1.636-3.65A4.903 4.903 0 0 1 42 11.41zM12.545 16.182h13.09M12.545 22.728h13.09M12.545 29.273h13.09"/>
    </g>
</svg>
