<svg width="48" height="48" viewBox="0 0 48 48" xmlns="http://www.w3.org/2000/svg">
    <g stroke="#16171D" stroke-linecap="round" stroke-linejoin="round" fill="none" fill-rule="evenodd">
        <path d="M21.213 14.795a5.412 5.412 0 1 1-10.824 0 5.412 5.412 0 1 1 10.824 0M25.603 38.619v-9.752a4.308 4.308 0 0 0-4.308-4.308H10.309a4.308 4.308 0 0 0-4.308 4.308v9.752h19.602zM37.61 14.795a5.412 5.412 0 1 1-10.824 0 5.412 5.412 0 1 1 10.824 0"/>
        <path d="M24.342 25.572a4.916 4.916 0 0 1 2.998-1.012h10.352A4.308 4.308 0 0 1 42 28.868v9.752H25.602"/>
    </g>
</svg>
