<svg width="48" height="48" viewBox="0 0 48 48" xmlns="http://www.w3.org/2000/svg">
    <g stroke="#16171D" stroke-linecap="round" stroke-linejoin="round" fill="none" fill-rule="evenodd">
        <path d="M22.002 8.716c5.088-3.36 11.916-2.666 16.232 1.65 4.29 4.29 5 11.09 1.69 16.168"/>
        <path d="M24.932 13.154A7.591 7.591 0 0 1 35.47 23.63M14.917 19.044l2.736-2.736a2.501 2.501 0 0 0 0-3.536L13.93 9.048a2.5 2.5 0 0 0-3.538 0l-3.354 3.354M7.037 12.401c-3.03 3.03.808 11.772 8.58 19.544M14.917 19.044c-1.144 1.146.934 5.078 4.65 8.794M28.36 32.487l2.737-2.736a2.501 2.501 0 0 1 3.536 0l3.724 3.724a2.5 2.5 0 0 1 0 3.538l-3.354 3.354"/>
        <path d="M35.003 40.367c-3.03 3.03-11.772-.808-19.544-8.58M28.36 32.487c-1.145 1.144-5.077-.934-8.793-4.65"/>
    </g>
</svg>
