<svg width="48" height="48" viewBox="0 0 48 48" xmlns="http://www.w3.org/2000/svg">
    <g fill="none" fill-rule="evenodd">
        <path d="M37.532 34.846h-2.444v-.22c.49.06 1.001.048 1.527-.068 1.41-.31 2.912-1.807 3.228-3.22a4.324 4.324 0 0 0-4.755-5.276V12.337a2.71 2.71 0 0 0-2.709-2.71H10.194a2.71 2.71 0 0 0-2.71 2.71V38.735a2.71 2.71 0 0 0 2.71 2.71h32.911a5.654 5.654 0 0 0-5.573-6.598" fill="#FFF"/>
        <path d="M29.012 9.613a3.072 3.072 0 0 1-3.072 3.072h-9.286a3.072 3.072 0 1 1 0-6.144h9.286a3.072 3.072 0 0 1 3.072 3.072z" fill="#E2E8EE"/>
        <g stroke="#16171D" stroke-linecap="round" stroke-linejoin="round">
            <path d="M36.616 34.543a4.334 4.334 0 0 1-5.201-5.198c.313-1.413 1.81-2.915 3.22-3.227a4.333 4.333 0 0 1 5.208 5.205c-.315 1.413-1.818 2.91-3.227 3.22z"/>
            <path d="M37.532 34.83h-3.803a5.653 5.653 0 0 0-5.572 6.599h14.948a5.654 5.654 0 0 0-5.573-6.598zM35.088 26.007V12.322a2.71 2.71 0 0 0-2.709-2.709h-3.368M13.581 9.613h-3.387a2.71 2.71 0 0 0-2.71 2.71V38.72a2.71 2.71 0 0 0 2.71 2.71h17.962"/>
            <path d="M29.012 9.613a3.072 3.072 0 0 1-3.072 3.072h-9.286a3.072 3.072 0 1 1 0-6.144h9.286a3.072 3.072 0 0 1 3.072 3.072z"/>
        </g>
        <g stroke="#B70F28" stroke-linecap="round" stroke-linejoin="round">
            <path d="M21.638 21.189h5.659M12.189 20.427l1.638 1.637M13.827 22.064l3.004-3.004M12.189 28.137l1.638 1.637M13.827 29.774l3.004-3.004M21.638 28.307h5.659"/>
        </g>
    </g>
</svg>
