<svg width="48" height="48" viewBox="0 0 48 48" xmlns="http://www.w3.org/2000/svg">
    <g fill="none" fill-rule="evenodd">
        <path d="M36.63 17.35H5.332v19.125a3.538 3.538 0 0 0 3.538 3.537h24.221a3.538 3.538 0 0 0 3.537-3.537V17.349z" fill="#FFF"/>
        <path d="M36.63 16.966H5.332v-4.762a3.537 3.537 0 0 1 3.538-3.537h24.221a3.537 3.537 0 0 1 3.537 3.537v4.762z" fill="#E2E8EE"/>
        <g fill="#FFF">
            <path d="M12.832 11.935c-.95 0-1.721-.772-1.721-1.722V7.088c0-.95.772-1.721 1.721-1.721.95 0 1.722.772 1.722 1.72v3.126c0 .95-.772 1.722-1.722 1.722zM29.133 11.935c-.95 0-1.721-.772-1.721-1.722V7.088c0-.95.772-1.721 1.721-1.721.95 0 1.721.772 1.721 1.72v3.126c0 .95-.772 1.722-1.721 1.722zM42.667 33.707a8.925 8.925 0 1 1-17.85.002 8.925 8.925 0 0 1 17.85-.002z"/>
        </g>
        <g stroke="#16171D" stroke-linecap="round" stroke-linejoin="round">
            <path d="M30.854 8.699h2.46a3.317 3.317 0 0 1 3.316 3.317v13.186"/>
            <path d="M42.667 33.707a8.925 8.925 0 1 1-17.85.002 8.925 8.925 0 0 1 17.85-.002zM5.333 17.334H36.63M14.553 8.699h12.858"/>
            <path d="M27.41 39.996H8.65a3.316 3.316 0 0 1-3.317-3.315V12.015A3.317 3.317 0 0 1 8.65 8.7h2.46M14.553 8.699h12.858"/>
            <path d="M12.832 11.935c-.95 0-1.721-.772-1.721-1.722V7.088c0-.95.772-1.721 1.721-1.721.95 0 1.722.772 1.722 1.72v3.126c0 .95-.772 1.722-1.722 1.722zM29.133 11.935c-.95 0-1.721-.772-1.721-1.722V7.088c0-.95.772-1.721 1.721-1.721.95 0 1.721.772 1.721 1.72v3.126c0 .95-.772 1.722-1.721 1.722zM10.868 25.195h4.007M19.081 25.195h4.006M10.868 30.437h4.007M19.081 30.437h4.006"/>
        </g>
        <text transform="translate(30.3 26.667)" fill="#B70F28" font-family="SpoqaHanSansNeo-Regular, Spoqa Han Sans Neo" font-size="16" letter-spacing="-.5">
                                                <tspan x="0" y="16">3</tspan>
                                            </text>
    </g>
</svg>
