<svg width="48" height="48" viewBox="0 0 48 48" xmlns="http://www.w3.org/2000/svg">
    <g fill="none" fill-rule="evenodd">
        <path d="M30.75 17.008a5.181 5.181 0 0 1 5.134 4.485l.02.166-.014.017.112.13a10.773 10.773 0 0 0 3.633 2.676l.326.143c.377.158.742.288 1.088.395l.292.086.28.076.27.065.256.057.357.068.322.052.367.048.348.03.258.013c0 6.232-1.987 9.868-3.974 11.946l-.238.242a11.21 11.21 0 0 1-.474.44l-.234.2-.23.186-.227.173-.222.16-.217.149-.107.07-.207.13-.298.176-.188.103-.264.137-.241.115-.147.065-.256.106-.201.074-.223.07-.17-.052-.227-.082-.175-.07-.276-.12-.235-.113-.256-.133-.182-.1-.19-.11-.196-.12-.203-.132-.209-.142c-.07-.049-.142-.1-.214-.153l-.218-.165a10.79 10.79 0 0 1-.11-.086l-.224-.183-.226-.196a11.166 11.166 0 0 1-.229-.208l-.23-.222a11.415 11.415 0 0 1-.114-.116l-.23-.242c-1.305-1.412-2.589-3.507-3.29-6.578l-.028-.127H10.028v1.943c0 .68-.526 1.239-1.194 1.29l-.1.004H6.142c-.682 0-1.24-.525-1.292-1.193l-.003-.101V22.189a5.18 5.18 0 0 1 5.015-5.178l.165-.003H30.75z" fill="#FFF"/>
        <path d="M7.438 17.008 9.6 10.951a4.532 4.532 0 0 1 4.269-3.009h13.038a4.533 4.533 0 0 1 4.269 3.009l2.163 6.057" fill="#E2E8EE"/>
        <g stroke="#16171D" stroke-linecap="round" stroke-linejoin="round">
            <path d="M35.904 21.659a5.18 5.18 0 0 0-5.154-4.65H10.028a5.18 5.18 0 0 0-5.18 5.18V32.55c0 .715.58 1.294 1.295 1.294h2.59c.715 0 1.295-.58 1.295-1.294v-1.943h18.391M7.438 17.008 9.6 10.951a4.532 4.532 0 0 1 4.269-3.009h13.038a4.533 4.533 0 0 1 4.269 3.009l2.163 6.057"/>
            <path d="M5.4 14.185h.838a1.2 1.2 0 0 1 1.2 1.2v2.038H4.8a.6.6 0 0 1-.6-.6v-1.438a1.2 1.2 0 0 1 1.2-1.2zM35.378 14.185h-.838a1.2 1.2 0 0 0-1.2 1.2v2.038h2.638a.6.6 0 0 0 .6-.6v-1.438a1.2 1.2 0 0 0-1.2-1.2zM43.8 25.515c0 12.465-7.949 14.543-7.949 14.543s-7.95-2.078-7.95-14.543c0 0 4.693-.027 7.95-3.884 3.257 3.857 7.949 3.884 7.949 3.884M33.155 31.232l2.107 2.107M35.262 33.34l3.867-3.868"/>
        </g>
        <g stroke="#B70F28" stroke-linecap="round" stroke-linejoin="round">
            <path d="M11.97 21.913H9.38c-.715 0-1.295.58-1.295 1.296v1.294c0 .716.58 1.296 1.295 1.296h2.59a1.943 1.943 0 0 0 0-3.886zM16.066 23.89h8.646"/>
        </g>
    </g>
</svg>
