<svg width="48" height="48" viewBox="0 0 48 48" xmlns="http://www.w3.org/2000/svg">
    <g fill="none" fill-rule="evenodd">
        <g fill="#FFF">
            <path d="M38.62 42.074a1.99 1.99 0 1 1-3.978 0 1.99 1.99 0 0 1 3.978 0zM34.821 26.267a7.55 7.55 0 0 1 4.912 1.812l.077-.022V9.37a3.77 3.77 0 0 0-3.77-3.77H5.97A3.77 3.77 0 0 0 2.2 9.37v18.82a3.769 3.769 0 0 0 3.77 3.77h19.737l.172-.047c.86-3.247 3.81-5.645 7.328-5.645h1.614z"/>
        </g>
        <g fill="#E2E8EE">
            <path d="M26.113 33.387h-1.228a1.925 1.925 0 0 0-1.925 1.926v2.044c0 1.063.862 1.925 1.925 1.925h1.228a.4.4 0 0 0 .4-.4v-5.094a.4.4 0 0 0-.4-.4zM42.647 33.387h1.228c1.063 0 1.925.862 1.925 1.926v2.044a1.925 1.925 0 0 1-1.925 1.925h-1.228a.4.4 0 0 1-.401-.4v-5.094a.4.4 0 0 1 .4-.4z"/>
        </g>
        <g stroke="#B70F28" stroke-linecap="round" stroke-linejoin="round">
            <path d="M27.78 18.782a6.7 6.7 0 1 1-13.398 0 6.7 6.7 0 0 1 13.398 0zM18.25 18.618l1.997 1.997M20.248 20.615l3.664-3.665"/>
        </g>
        <g stroke="#16171D" stroke-linecap="round" stroke-linejoin="round">
            <path d="M26.113 33.387h-1.228a1.925 1.925 0 0 0-1.925 1.926v2.044c0 1.063.862 1.925 1.925 1.925h1.228a.4.4 0 0 0 .4-.4v-5.094a.4.4 0 0 0-.4-.4zM42.647 33.387h1.228c1.063 0 1.925.862 1.925 1.926v2.044a1.925 1.925 0 0 1-1.925 1.925h-1.228a.4.4 0 0 1-.401-.4v-5.094a.4.4 0 0 1 .4-.4z"/>
            <path d="M42.246 33.737a7.11 7.11 0 0 0-7.11-7.11h-1.512a7.11 7.11 0 0 0-7.11 7.11M44.023 39.282v.818a2.002 2.002 0 0 1-2.001 2.002H38.62"/>
            <path d="M38.62 42.074a1.99 1.99 0 1 1-3.978 0 1.99 1.99 0 0 1 3.978 0zM26.514 31.818H6a3.8 3.8 0 0 1-3.8-3.801V9.4A3.8 3.8 0 0 1 6 5.6H36.01a3.8 3.8 0 0 1 3.8 3.8v18.904M16.421 31.818v5.22M10.742 37.04h10.932"/>
        </g>
    </g>
</svg>
