<svg width="48" height="48" viewBox="0 0 48 48" xmlns="http://www.w3.org/2000/svg">
    <g fill="none" fill-rule="evenodd">
        <path d="M0 48h48V0H0z"/>
        <g fill="#FFF">
            <path d="M25.644 22.162h-18a1.8 1.8 0 0 1-1.8-1.8V7.3a1.8 1.8 0 0 1 1.8-1.8h18a1.8 1.8 0 0 1 1.8 1.8v13.062a1.8 1.8 0 0 1-1.8 1.8zM40.356 42.5h-18a1.8 1.8 0 0 1-1.8-1.8V27.638a1.8 1.8 0 0 1 1.8-1.8h18a1.8 1.8 0 0 1 1.8 1.8V40.7a1.8 1.8 0 0 1-1.8 1.8z"/>
        </g>
        <g stroke="#B70F28" stroke-linecap="round" stroke-linejoin="round">
            <path d="M9.68 17.387c-.2 0-.37-.171-.35-.37a3.496 3.496 0 0 1 6.955 0c.02.199-.15.37-.35.37H9.68z"/>
            <path d="M14.642 12.055a1.834 1.834 0 1 1-3.67 0 1.835 1.835 0 1 1 3.67 0zM24.391 37.724c-.2 0-.37-.17-.35-.37a3.496 3.496 0 0 1 6.955 0c.02.2-.15.37-.35.37h-6.255z"/>
            <path d="M29.353 32.392a1.834 1.834 0 1 1-3.67 0 1.835 1.835 0 1 1 3.67 0z"/>
        </g>
        <g stroke="#16171D" stroke-linecap="round" stroke-linejoin="round">
            <path d="M25.644 22.162h-18a1.8 1.8 0 0 1-1.8-1.8V7.3a1.8 1.8 0 0 1 1.8-1.8h18a1.8 1.8 0 0 1 1.8 1.8v13.062a1.8 1.8 0 0 1-1.8 1.8zM18.944 10.521h4.597M18.944 13.898h4.597M18.944 17.275h4.597M40.356 42.5h-18a1.8 1.8 0 0 1-1.8-1.8V27.638a1.8 1.8 0 0 1 1.8-1.8h18a1.8 1.8 0 0 1 1.8 1.8V40.7a1.8 1.8 0 0 1-1.8 1.8zM33.655 30.86h4.597M33.655 34.236h4.597M33.655 37.613h4.597M32.032 15.183h2.992a2.932 2.932 0 0 1 2.932 2.932v2.257M32.032 15.183l2.011-2.01M32.032 15.183l2.011 2.011M15.948 33.307h-2.992a2.932 2.932 0 0 1-2.932-2.933v-2.256M15.948 33.306l-2.01 2.011M15.948 33.306l-2.01-2.01"/>
        </g>
    </g>
</svg>
