<svg width="48" height="48" viewBox="0 0 48 48" xmlns="http://www.w3.org/2000/svg">
    <g fill="none" fill-rule="evenodd">
        <path d="M0 48h48V0H0z"/>
        <g fill="#FFF">
            <path d="M9.6 34.333h29.333a2.933 2.933 0 0 0 2.934-2.933v-6.6a5.852 5.852 0 0 0-2.318-4.664h.005l-3.07-8.063a5.135 5.135 0 0 0-4.835-3.406H16.884a5.134 5.134 0 0 0-4.834 3.406l-3.067 8.063h.002A5.852 5.852 0 0 0 6.667 24.8v6.6A2.934 2.934 0 0 0 9.6 34.333"/>
            <path d="M6.4 32.067v5.866c0 .81.656 1.467 1.466 1.467H10.8c.81 0 1.467-.657 1.467-1.467v-3.666M35.733 34.267v3.666c0 .81.657 1.467 1.467 1.467h2.933c.81 0 1.467-.657 1.467-1.467v-5.867"/>
        </g>
        <g fill="#E2E8EE">
            <path d="M33.533 28.4h2.934c.81 0 1.466-.656 1.466-1.466v-1.467c0-.81-.656-1.467-1.466-1.467h-2.934a2.2 2.2 0 1 0 0 4.4zM14.467 24h-2.934c-.81 0-1.466.656-1.466 1.466v1.467c0 .81.656 1.467 1.466 1.467h2.934a2.2 2.2 0 1 0 0-4.4z"/>
        </g>
        <g stroke="#16171D" stroke-linecap="round" stroke-linejoin="round">
            <path d="M31.933 18.867h3.8a5.867 5.867 0 0 1 5.867 5.866v6.6a2.933 2.933 0 0 1-2.933 2.934H9.333"/>
            <path d="M9.333 34.267A2.933 2.933 0 0 1 6.4 31.333v-6.6a5.867 5.867 0 0 1 5.867-5.867h3.066"/>
            <path d="M6.4 32.067v5.866c0 .81.656 1.467 1.466 1.467H10.8c.81 0 1.467-.657 1.467-1.467v-3.666M35.733 34.267v3.666c0 .81.657 1.467 1.467 1.467h2.933c.81 0 1.467-.657 1.467-1.467v-5.867M9.013 19.28l2.77-7.273A5.134 5.134 0 0 1 16.617 8.6h14.765a5.134 5.134 0 0 1 4.835 3.407l2.77 7.273M33.533 28.4h2.934c.81 0 1.466-.656 1.466-1.466v-1.467c0-.81-.656-1.467-1.466-1.467h-2.934a2.2 2.2 0 1 0 0 4.4zM14.467 24h-2.934c-.81 0-1.466.656-1.466 1.466v1.467c0 .81.656 1.467 1.466 1.467h2.934a2.2 2.2 0 1 0 0-4.4zM9.333 19.6l-1.466-1.467M5.4 14.467h1.267a1.2 1.2 0 0 1 1.2 1.2v2.466H4.8a.6.6 0 0 1-.6-.6v-1.866a1.2 1.2 0 0 1 1.2-1.2zM38.667 19.6l1.466-1.467M42.6 14.467h-1.267a1.2 1.2 0 0 0-1.2 1.2v2.466H43.2a.6.6 0 0 0 .6-.6v-1.866a1.2 1.2 0 0 0-1.2-1.2z"/>
        </g>
        <g stroke="#B70F28" stroke-linecap="round" stroke-linejoin="round">
            <path d="M28.18 19.28a4.232 4.232 0 1 1-8.464 0 4.232 4.232 0 0 1 8.463 0zM22.16 19.175l1.262 1.262M23.422 20.437l2.314-2.315"/>
        </g>
    </g>
</svg>
