<svg width="48" height="48" viewBox="0 0 48 48" xmlns="http://www.w3.org/2000/svg">
    <g fill="none" fill-rule="evenodd">
        <path d="M0 48h48V0H0z"/>
        <g fill="#FFF">
            <path d="M37.985 16.836c0 7.184-5.825 13.009-13.01 13.009s-13.009-5.825-13.009-13.01c0-7.184 5.824-13.009 13.01-13.009a12.97 12.97 0 0 1 9.2 3.812l3.809 3.994M26.53 36.414h1.03c.897 0 1.725-.596 1.91-1.475a1.879 1.879 0 0 0-1.833-2.272h-7.581c-.554 0-1.097.164-1.559.472l-5.164 3.442 3.586 5.738 1.864-1.226a2.808 2.808 0 0 1 1.544-.464h7.295c.629 0 1.25-.126 1.828-.371l8.273-3.507a1.879 1.879 0 0 0 1.014-2.448 1.88 1.88 0 0 0-2.448-1.014l-8.02 3.014"/>
        </g>
        <path d="m13.616 44.016-4.132-6.534a.338.338 0 0 1 .105-.467l2.643-1.672a.339.339 0 0 1 .468.106l4.132 6.534c.1.158.052.367-.106.467l-2.642 1.671a.34.34 0 0 1-.468-.105z" fill="#E2E8EE"/>
        <g stroke="#16171D" stroke-linecap="round" stroke-linejoin="round">
            <path d="M21.743 35.568h5.452c.882 0 1.696-.586 1.878-1.45a1.847 1.847 0 0 0-1.802-2.236h-7.456c-.545 0-1.079.162-1.533.464l-5.079 3.386"/>
            <path d="m27.893 35.459 7.888-2.965a1.85 1.85 0 0 1 2.408.998c.388.936-.061 2.02-.998 2.408l-8.136 3.448a4.602 4.602 0 0 1-1.798.366h-7.174c-.54 0-1.07.158-1.52.455l-1.833 1.206"/>
            <path d="m13.787 43.697-4.063-6.426a.333.333 0 0 1 .103-.46l2.6-1.643a.333.333 0 0 1 .46.103l4.063 6.426a.333.333 0 0 1-.103.46l-2.6 1.644a.333.333 0 0 1-.46-.104zM37.754 16.647c0 6.904-5.597 12.5-12.5 12.5s-12.5-5.596-12.5-12.5c0-6.903 5.597-12.5 12.5-12.5s12.5 5.597 12.5 12.5z"/>
        </g>
        <g stroke="#B70F28" stroke-linecap="round" stroke-linejoin="round">
            <path d="m19.397 12.85 2.808 8.933 3.056-6.92 3.112 6.903 2.69-8.921M30.06 16.152h2.723M17.725 16.152h2.71"/>
        </g>
    </g>
</svg>
