<svg width="48" height="48" viewBox="0 0 48 48" xmlns="http://www.w3.org/2000/svg">
    <g fill="none" fill-rule="evenodd">
        <path d="M0 48h48V0H0z"/>
        <g fill="#FFF">
            <path d="M33.498 34.577V10.523a2.895 2.895 0 0 0-2.894-2.895H6.895A2.896 2.896 0 0 0 4 10.524V38.732c0 1.6 1.297 2.896 2.895 2.896h26.603"/>
            <path d="M32.987 41.465h7.193v1.349a.9.9 0 0 0 .899.899h1.799a.9.9 0 0 0 .899-.9v-7.192a3.597 3.597 0 0 0-3.597-3.597H25.752a3.597 3.597 0 0 0-3.597 3.597v7.193a.9.9 0 0 0 .9.899h1.798a.9.9 0 0 0 .899-.9v-1.348H32.987zM23.954 32.024l1.501-4.205a3.148 3.148 0 0 1 2.964-2.089h9.052c1.33 0 2.516.837 2.964 2.089l1.501 4.205"/>
        </g>
        <path d="M26.95 7.559a3.302 3.302 0 0 1-3.302 3.301H13.67a3.302 3.302 0 1 1 0-6.603h9.98a3.302 3.302 0 0 1 3.3 3.302z" fill="#E2E8EE"/>
        <g stroke="#B70F28" stroke-linecap="round" stroke-linejoin="round">
            <path d="m14.652 20.437 1.922 6.11 2.09-4.733 2.128 4.721 1.84-6.102M21.946 22.695h1.863M13.509 22.695h1.855"/>
        </g>
        <path d="M33.48 25.73V10.47a2.912 2.912 0 0 0-2.912-2.911H26.95" stroke="#16171D" stroke-linecap="round" stroke-linejoin="round"/>
        <path d="m19.872 41.75 2.284-.001"/>
        <path d="M10.367 7.559h-3.64a2.912 2.912 0 0 0-2.911 2.911v28.368a2.911 2.911 0 0 0 2.911 2.911h15.428" stroke="#16171D" stroke-linecap="round" stroke-linejoin="round"/>
        <path d="M26.95 7.559a3.302 3.302 0 0 1-3.302 3.301H13.67a3.302 3.302 0 1 1 0-6.603h9.98a3.302 3.302 0 0 1 3.3 3.302zM32.987 41.465h7.193v1.349a.9.9 0 0 0 .899.899h1.799a.9.9 0 0 0 .899-.9v-7.192a3.597 3.597 0 0 0-3.597-3.597H25.752a3.597 3.597 0 0 0-3.597 3.597v7.193a.9.9 0 0 0 .9.899h1.798a.9.9 0 0 0 .899-.9v-1.348H32.987zM23.954 32.024l1.501-4.205a3.148 3.148 0 0 1 2.964-2.089h9.052c1.33 0 2.516.837 2.964 2.089l1.501 4.205" stroke="#16171D" stroke-linecap="round" stroke-linejoin="round"/>
        <path d="M27.1 35.43h-1.797a.899.899 0 0 0-.9.899v.899c0 .497.403.899.9.899H27.1a1.348 1.348 0 1 0 0-2.697zM38.873 35.43h1.798c.497 0 .9.402.9.899v.899a.898.898 0 0 1-.9.899h-1.798a1.348 1.348 0 1 1 0-2.697zM22.588 30.064h.484c.487 0 .881.395.881.882v1.366h-1.806a.44.44 0 0 1-.441-.44v-.926c0-.487.395-.882.882-.882zM43.302 30.064h-.484a.882.882 0 0 0-.881.882v1.366h1.806a.44.44 0 0 0 .441-.44v-.926a.882.882 0 0 0-.882-.882z" stroke="#16171D" stroke-linecap="round" stroke-linejoin="round"/>
    </g>
</svg>
