<svg width="48" height="48" viewBox="0 0 48 48" xmlns="http://www.w3.org/2000/svg">
    <g fill="none" fill-rule="evenodd">
        <path d="M0 48h48V0H0z"/>
        <g fill="#FFF">
            <path d="M36.58 22.33a5.358 5.358 0 0 0-5.33-4.81H9.82a5.357 5.357 0 0 0-5.357 5.358v10.714c0 .74.6 1.34 1.34 1.34h2.678c.74 0 1.34-.6 1.34-1.34v-2.01h17.334"/>
            <path d="M42.362 30.033a7.681 7.681 0 1 1-15.363 0 7.681 7.681 0 0 1 15.363 0z"/>
        </g>
        <path d="m7.143 17.52 2.237-6.264a4.688 4.688 0 0 1 4.414-3.111h13.483a4.687 4.687 0 0 1 4.414 3.111l2.237 6.264" fill="#E2E8EE"/>
        <path d="M36.58 22.33a5.358 5.358 0 0 0-5.33-4.81H9.82a5.357 5.357 0 0 0-5.357 5.358v10.714c0 .74.6 1.34 1.34 1.34h2.678c.74 0 1.34-.6 1.34-1.34v-2.01h17.334M7.143 17.52l2.237-6.264a4.688 4.688 0 0 1 4.414-3.111h13.483a4.687 4.687 0 0 1 4.414 3.111l2.237 6.264" stroke="#16171D" stroke-linecap="round" stroke-linejoin="round"/>
        <path fill="#16171D" d="M16.064 24.602h8.942"/>
        <path d="M5.173 14.6h.59c.762 0 1.38.618 1.38 1.38v1.97h-2.66a.69.69 0 0 1-.689-.69v-1.28c0-.762.617-1.38 1.38-1.38zM35.898 14.6h-.59c-.762 0-1.38.618-1.38 1.38v1.97h2.66a.69.69 0 0 0 .689-.69v-1.28c0-.762-.617-1.38-1.379-1.38zM32.39 29.88l1.857 1.856M34.247 31.737l3.406-3.407M42.362 30.033a7.681 7.681 0 1 1-15.363 0 7.681 7.681 0 0 1 15.363 0zM44.205 39.558l-4.093-4.093" stroke="#16171D" stroke-linecap="round" stroke-linejoin="round"/>
        <g stroke="#B70F28" stroke-linecap="round" stroke-linejoin="round">
            <path d="M11.83 22.592H9.152c-.74 0-1.34.6-1.34 1.34v1.339c0 .74.6 1.34 1.34 1.34h2.678a2.01 2.01 0 0 0 0-4.019zM16.065 24.601h8.941"/>
        </g>
    </g>
</svg>
