<svg xmlns="http://www.w3.org/2000/svg" width="44" height="44" viewBox="0 0 44 44">
    <g data-name="그룹 531" transform="translate(2839 2883)">
        <rect data-name="사각형 1" width="40" height="40" rx="3" transform="translate(-2837 -2881)" style="fill:#fff"/>
        <g data-name="그룹 28">
            <g data-name="그룹 527">
                <path data-name="패스 32" d="M497.492 173.433a6.5 6.5 0 0 0-5.943 5.943.5.5 0 0 0 .509.531h5.458a.506.506 0 0 0 .508-.508v-5.457a.5.5 0 0 0-.531-.508" transform="translate(-3307.834 -3047.723)" style="fill:#cb0f22"/>
                <path data-name="패스 33" d="M491.549 196.219a6.5 6.5 0 0 0 5.943 5.943.5.5 0 0 0 .531-.509V196.2a.506.506 0 0 0-.508-.507h-5.458a.5.5 0 0 0-.509.531" transform="translate(-3307.834 -3062.867)" style="fill:#999"/>
                <path data-name="패스 34" d="M475.47 173.737h-5.357a.51.51 0 0 0-.51.51v5.353a.51.51 0 0 0 .51.51h5.357a.51.51 0 0 0 .51-.51v-5.357a.51.51 0 0 0-.51-.51" transform="translate(-3292.903 -3047.931)" style="fill:#cb0f22"/>
                <path data-name="패스 35" d="M475.47 195.688h-5.357a.51.51 0 0 0-.51.51v5.357a.51.51 0 0 0 .51.51h5.357a.51.51 0 0 0 .51-.51V196.2a.51.51 0 0 0-.51-.51" transform="translate(-3292.903 -3062.867)" style="fill:#999"/>
            </g>
            <g data-name="그룹 528">
                <path data-name="패스 36" d="m451.357 234.032 3.526-4.042h-2.3l-2.895 3.446v-3.446h-1.96v8.561h1.96V234.8l2.237 2.887a2.225 2.225 0 0 0 1.759.863h1.338z" transform="translate(-3278.016 -3086.207)" style="fill:#cb0f22"/>
                <path data-name="패스 37" d="M506.761 240.094v.4a1.393 1.393 0 0 1-1.547 1.452.939.939 0 0 1-.989-.846c0-.891 1.23-1.024 1.962-1.024.117 0 .233.006.35.012l.223.01m1.4 1.561v-2.506c0-1.805-.818-2.646-2.575-2.646a4 4 0 0 0-2.067.59l-.073.043.008.132a.708.708 0 0 0 .327.552.684.684 0 0 0 .625.061 2.754 2.754 0 0 1 1-.2c.929 0 1.319.365 1.354 1.293-.368-.017-.659-.017-1.045-.017-1.1 0-2.955.45-2.955 2.135 0 1.289.861 2.028 2.361 2.028a2.4 2.4 0 0 0 1.811-.765.925.925 0 0 0 .873.623h.421l-.021-.158a10.033 10.033 0 0 1-.046-1.169" transform="translate(-3315.463 -3090.639)" style="fill:#cb0f22"/>
                <path data-name="패스 38" d="M525.751 236.584a3.219 3.219 0 0 0-.74-.081 1.948 1.948 0 0 0-1.528.855 1.08 1.08 0 0 0-1.014-.713h-.246v6.337h1.4v-2.9c0-1.416.593-2.331 1.511-2.331a1.483 1.483 0 0 1 .564.1l.193.079v-1.321z" transform="translate(-3328.707 -3090.639)" style="fill:#cb0f22"/>
                <path data-name="패스 39" d="m487.075 236.328-.117.056s-.18.086-.242.113a4.633 4.633 0 0 1-1.63.36 2.892 2.892 0 0 1 .057-5.781 3.063 3.063 0 0 1 .724.086 1.04 1.04 0 0 0 1.281-.925l.021-.25-.169-.074a4.67 4.67 0 0 0-1.915-.368 4.26 4.26 0 0 0-4.515 4.388 4.2 4.2 0 0 0 4.5 4.458 5.119 5.119 0 0 0 1.933-.308l.17-.071z" transform="translate(-3300.367 -3085.904)" style="fill:#cb0f22"/>
            </g>
        </g>
    </g>
    <path data-name="사각형 3" style="fill:none" d="M0 0h44v44H0z"/>
</svg>
