<svg xmlns="http://www.w3.org/2000/svg" width="44" height="44" viewBox="0 0 44 44">
    <defs>
        <clipPath id="s9jxmbog8a">
            <path data-name="패스 20" d="m368.986 300.029-.359-15.194 9.524 5.5.359 15.194z" transform="translate(-368.627 -284.835)" style="fill:none"/>
        </clipPath>
        <clipPath id="854w07bpob">
            <path data-name="패스 22" d="m422.946 304.844.439-14.787 10.794-7.558-.439 14.787z" transform="translate(-422.946 -282.499)" style="fill:none"/>
        </clipPath>
    </defs>
    <g data-name="3d">
        <g data-name="3d">
            <path data-name="패스 7" d="M374.729 244.1h14.813l-13.065-7.6a3.347 3.347 0 0 0-3.357 0l-16.177 9.344a3.347 3.347 0 0 0-1.673 2.9l.018 18.733a3.348 3.348 0 0 0 1.685 2.9l15.645 8.953a3.344 3.344 0 0 0 2.111.41z" transform="translate(-352.152 -236.05)" style="fill:#a81e31"/>
            <path data-name="패스 8" d="m401.254 245.843-16.059-9.343a3.347 3.347 0 0 0-3.357 0l-13.162 7.6h14.771v35.641a3.345 3.345 0 0 0 1.189-.4l16.574-9.3a3.347 3.347 0 0 0 1.709-2.919v-18.385a3.347 3.347 0 0 0-1.665-2.894z" transform="translate(-360.87 -236.05)" style="fill:#979696"/>
            <path data-name="패스 9" d="M428.719 245.837 412.66 236.5a3.345 3.345 0 0 0-1.748-.449v22l19.055 10.675a3.337 3.337 0 0 0 .417-1.607V248.73a3.347 3.347 0 0 0-1.665-2.893z" transform="translate(-388.335 -236.048)" style="fill:#a6a5a5"/>
            <path data-name="패스 10" d="M374.393 236.05a3.343 3.343 0 0 0-1.609.444l-16.177 9.344a3.348 3.348 0 0 0-1.673 2.9l.018 18.733a3.336 3.336 0 0 0 .369 1.508l19.073-10.929z" transform="translate(-351.934 -236.049)" style="fill:#c02a29"/>
            <path data-name="패스 11" d="M375.016 278.228v14.445l12.554-7.194z" transform="translate(-364.993 -263.477)" style="fill:#911d22"/>
            <path data-name="패스 12" d="m423.634 277.97-12.722 7.342 12.646 7.084z" transform="translate(-388.335 -263.309)" style="fill:#817f80"/>
            <path data-name="패스 13" d="M410.913 313.386v-14.423l12.646 7.084z" transform="translate(-388.335 -276.96)" style="fill:#747272"/>
            <path data-name="패스 14" d="M428.719 245.839 412.66 236.5a3.344 3.344 0 0 0-1.748-.449v22l19.029-10.982a3.348 3.348 0 0 0-1.222-1.23z" transform="translate(-388.335 -236.049)" style="fill:#f3acaf"/>
            <path data-name="패스 15" d="M375.558 236.05a3.343 3.343 0 0 0-1.609.444l-16.177 9.344a3.344 3.344 0 0 0-1.227 1.231l19.014 10.983z" transform="translate(-352.981 -236.049)" style="fill:#ef9195"/>
            <path data-name="패스 16" d="m387.569 257.393-12.554 7.287 12.554 7.25z" transform="translate(-364.993 -249.928)" style="fill:#ca132e"/>
            <path data-name="패스 17" d="m410.912 271.931 12.722-7.342-12.722-7.2z" transform="translate(-388.335 -249.928)" style="fill:#e51d36"/>
            <path data-name="패스 18" d="m387.569 298.963-12.554 7.194 12.554 7.23z" transform="translate(-364.993 -276.96)" style="fill:#7f1a26"/>
            <g data-name="그룹 18">
                <g data-name="그룹 17">
                    <g data-name="그룹 16">
                        <g data-name="그룹 15" style="clip-path:url(#s9jxmbog8a)" transform="translate(7.789 17.062)">
                            <g data-name="그룹 14">
                                <g data-name="그룹 13">
                                    <g data-name="그룹 12">
                                        <g data-name="그룹 11">
                                            <path data-name="패스 19" d="m371.626 289.085-2.345.575.026 2.591 3.244 2.014-.019-1.84 2.849 1.771.029 3.081-1.462-.909.027 2.827 1.462.909.032 3.338-2.849-1.768-.019-1.963-3.244-2.014.046 4.775 7.226 4.489 2.18-.688-.052-5.475-2.069-1.286 1.79-.337-.057-5.866-6.8-4.224" transform="translate(-369.052 -287.599)" style="fill:#fff"/>
                                        </g>
                                    </g>
                                </g>
                            </g>
                        </g>
                    </g>
                </g>
            </g>
            <g data-name="그룹 26">
                <g data-name="그룹 25">
                    <g data-name="그룹 24">
                        <g data-name="그룹 23" style="clip-path:url(#854w07bpob)" transform="translate(26.785 16.245)">
                            <g data-name="그룹 22">
                                <g data-name="그룹 21">
                                    <g data-name="그룹 20">
                                        <g data-name="그룹 19">
                                            <path data-name="패스 21" d="m430.455 302.614-3.007 1.774.116-8.523 3.129-1.854-.238 8.6m-6.6-7.148-.188 13.02 7.835-3.894 2.641-3.456.407-9.843-2.848-.476-7.846 4.649" transform="translate(-423.412 -287.909)" style="fill:#fff"/>
                                        </g>
                                    </g>
                                </g>
                            </g>
                        </g>
                    </g>
                </g>
            </g>
        </g>
        <path data-name="사각형 2" style="fill:none" d="M0 0h44v44H0z"/>
    </g>
</svg>
