<svg width="25" height="24" viewBox="0 0 25 24" xmlns="http://www.w3.org/2000/svg">
    <g stroke="#16171D" stroke-linecap="round" stroke-linejoin="round" fill="none" fill-rule="evenodd">
        <path d="M7.572 15.936a2.292 2.292 0 1 0 4.583 0 2.292 2.292 0 0 0-4.583 0zM7.571 15.935H2.923"/>
        <path d="M2.922 5.772h4.441c.908 0 1.276.25 1.753.552 1.238.782 3.271 2.73 3.728 3.178l1.133.203c.616.101 1.098.684 1.098 1.327v3.136a.431.431 0 0 1-.12.298l-1.302 1.34a.431.431 0 0 1-.307.13h-1.19"/>
        <path d="M2.922 10.854h6.005c.218 0 .42-.072.537-.19.117-.12.133-.268.041-.395A9.552 9.552 0 0 0 8.18 8.847C6.95 7.754 5.887 7.55 5.77 7.532H2.922v3.322zM20.63 16.893a6.35 6.35 0 0 0 0-8.98l-3.837 4.49 3.837 4.49z"/>
    </g>
</svg>
