<svg width="25" height="24" viewBox="0 0 25 24" xmlns="http://www.w3.org/2000/svg">
    <g stroke="#16171D" fill="none" fill-rule="evenodd">
        <path d="M12.86 6.98c.952.002 1.764.363 2.438 1.082.677.722 1.016 1.593 1.017 2.613 0 .78-.195 1.492-.584 2.133a48.149 48.149 0 0 1-2.871 4.172 47.851 47.851 0 0 1-2.867-4.172 4.026 4.026 0 0 1-.588-2.133c-.001-1.02.336-1.891 1.011-2.613.675-.72 1.49-1.08 2.444-1.082z" stroke-linecap="round" stroke-linejoin="round"/>
        <path d="M14.348 10.51a1.487 1.487 0 1 1-2.974 0 1.487 1.487 0 0 1 2.974 0z"/>
        <path d="M20.327 19.785h-15a2 2 0 0 1-2-2V6.215a2 2 0 0 1 2-2h15a2 2 0 0 1 2 2v11.57a2 2 0 0 1-2 2z" stroke-linecap="round" stroke-linejoin="round"/>
    </g>
</svg>
