<?xml version="1.0" encoding="UTF-8"?>
<svg width="32px" height="32px" viewBox="0 0 32 32" version="1.1" xmlns="http://www.w3.org/2000/svg" xmlns:xlink="http://www.w3.org/1999/xlink">
    <title>B38AA690-877D-4D46-8FD2-E88660DC6E60</title>
    <g id="메인_v0.5" stroke="none" stroke-width="1" fill="none" fill-rule="evenodd">
        <g id="[PC]메인_0516_시안(백업)" transform="translate(-591.000000, -8003.000000)">
            <g id="Group" transform="translate(591.000000, 8003.000557)">
                <ellipse id="stroke" fill="#000000" cx="16" cy="15.9997217" rx="16" ry="15.9997217"></ellipse>
                <path d="M25.1897436,12.0678431 C25.1897436,12.0678431 25.0461538,10.7068081 24.4717949,10.1019037 C23.7538462,9.34577319 23.0358974,9.34577319 22.6051282,9.19454709 C20.0205128,9.04332099 16.1435897,9.04332099 16.1435897,9.04332099 L16.1435897,9.04332099 C16.1435897,9.04332099 12.2666667,9.04332099 9.68205128,9.19454709 C9.25128205,9.19454709 8.53333333,9.19454709 7.81538462,10.1019037 C7.0974359,10.7068081 6.81025641,12.0678431 6.81025641,12.0678431 C6.81025641,12.0678431 6.66666667,13.7313302 6.66666667,15.2435912 L6.66666667,16.7558523 C6.66666667,18.4193394 6.81025641,19.9316004 6.81025641,19.9316004 C6.81025641,19.9316004 6.95384615,21.2926354 7.52820513,21.8975398 C8.24615385,22.6536703 9.10769231,22.6536703 9.53846154,22.8048964 C10.974359,22.9561225 15.8564103,22.9561225 15.8564103,22.9561225 C15.8564103,22.9561225 19.7333333,22.9561225 22.3179487,22.8048964 C22.7487179,22.8048964 23.4666667,22.8048964 24.1846154,21.8975398 C24.7589744,21.2926354 24.9025641,19.9316004 24.9025641,19.9316004 C24.9025641,19.9316004 25.3333333,18.2681133 25.3333333,16.7558523 L25.3333333,15.2435912 C25.3333333,13.7313302 25.1897436,12.0678431 25.1897436,12.0678431 L25.1897436,12.0678431 Z M14.6666667,18.782282 L14.6666667,13.2171614 L20,15.9245174 C20,16.0749261 14.6666667,18.782282 14.6666667,18.782282 Z" id="fill" fill="#FFFFFF" fill-rule="nonzero"></path>
            </g>
        </g>
    </g>
</svg>