<?xml version="1.0" encoding="UTF-8"?>
<svg width="32px" height="32px" viewBox="0 0 32 32" version="1.1" xmlns="http://www.w3.org/2000/svg" xmlns:xlink="http://www.w3.org/1999/xlink">
    <title>DF4F1FF3-17F8-449C-8ACD-746305200613</title>
    <g id="메인_v0.5" stroke="none" stroke-width="1" fill="none" fill-rule="evenodd">
        <g id="[PC]메인_0516_시안(백업)" transform="translate(-495.000000, -8003.000000)">
            <g id="Group-4" transform="translate(351.000000, 8003.000000)">
                <g id="Group" transform="translate(144.000000, 0.000000)">
                    <ellipse id="stroke" fill="#000000" cx="16" cy="15.9997217" rx="16" ry="15.9997217"></ellipse>
                    <path d="M22.3484778,8.34768091 C23.6290743,8.34768091 24.6672,9.43092364 24.6672,10.767175 L24.6672,10.767175 L24.6672,18.6295858 C24.6672,19.9658372 23.6290743,21.0490799 22.3484778,21.0490799 L22.3484778,21.0490799 L17.9055944,21.0490799 L16.3803069,24.798363 C16.3803069,24.798363 16.2753725,25.1235553 16.0212164,25.1235553 L16.0212164,25.1235553 L15.9326657,25.1095822 C15.7422599,25.0473383 15.662009,24.798363 15.662009,24.798363 L15.662009,24.798363 L14.1367215,21.0490799 L9.65258883,21.0490799 C8.37199234,21.0490799 7.33386667,19.9658372 7.33386667,18.6295858 L7.33386667,18.6295858 L7.33386667,10.767175 C7.33386667,9.43092364 8.37199234,8.34768091 9.65258883,8.34768091 L9.65258883,8.34768091 Z M21.5434747,13.8803395 C21.2075212,13.4078535 20.6598292,13.4688194 20.6598292,13.4688194 C19.272195,13.5755098 19.2429817,14.9092006 19.2429817,14.9092006 L19.2429817,15.3969281 C19.2429817,16.6831874 20.5065176,16.7781723 20.5065176,16.7781723 C21.397408,16.7781723 21.5216231,16.3647013 21.5216231,16.3647013 C21.5276606,17.2156842 21.087464,17.3151772 20.9405641,17.3247031 L20.6160092,17.3249148 L20.6160092,18.3308527 L21.0760611,18.3308527 C22.5879105,18.3308527 22.573309,16.7781723 22.573309,16.7781723 L22.573309,13.5527086 L21.5434747,13.5527086 Z M17.0117827,13.508935 C16.0719308,13.508935 15.3101634,14.2406482 15.3101634,15.1435537 C15.3101634,16.0463372 16.0719308,16.7781723 17.0117827,16.7781723 C17.9516347,16.7781723 18.7135189,16.0463372 18.7135189,15.1435537 C18.7135189,14.2406482 17.9516347,13.508935 17.0117827,13.508935 Z M10.4863379,12.1885348 C10.4863379,12.1885348 10.1553141,12.1930988 9.86670376,12.194748 L9.63842035,12.1952734 C9.53818204,12.1950048 9.46533124,12.1938084 9.4492639,12.1910954 L9.4492639,12.1910954 L9.4492639,16.6542895 L10.4863379,16.6542895 L10.4863379,16.3951843 C10.4863379,16.3951843 10.7975185,16.7762214 11.3481318,16.7762214 C11.3481318,16.7762214 12.7722242,16.7350084 12.779586,15.2977975 C12.779586,15.2977975 12.9715762,13.618186 11.4357718,13.4688194 C11.4357718,13.4688194 10.7303278,13.4616255 10.4863379,13.895581 L10.4863379,13.895581 Z M13.1009329,12.0438017 L13.1009329,13.1107055 C13.1009329,13.1107055 13.590315,13.2249557 13.590315,13.6364758 L13.590315,13.6364758 L13.590315,16.6619712 L14.6054205,16.6619712 L14.6058335,13.5995302 C14.6118379,13.4932036 14.6599146,12.1096918 13.1009329,12.0438017 L13.1009329,12.0438017 Z M17.0118061,14.472904 C17.3666899,14.472904 17.6544998,14.7731003 17.6544998,15.1435293 C17.6544998,15.5139583 17.3666899,15.8141546 17.0118061,15.8141546 C16.6569223,15.8141546 16.3691124,15.5139583 16.3691124,15.1435293 C16.3691124,14.7731003 16.6569223,14.472904 17.0118061,14.472904 Z M20.9592661,14.4881455 C21.3062039,14.4881455 21.5873532,14.7815136 21.5873532,15.1435293 C21.5873532,15.505545 21.3062039,15.7989131 20.9592661,15.7989131 C20.6123283,15.7989131 20.331179,15.505545 20.331179,15.1435293 C20.331179,14.7815136 20.6123283,14.4881455 20.9592661,14.4881455 Z M11.1164231,14.5378571 C11.4460666,14.5378571 11.7133104,14.8167153 11.7133104,15.1606851 C11.7133104,15.5046549 11.4460666,15.7835131 11.1164231,15.7835131 C10.7867797,15.7835131 10.5196528,15.5046549 10.5196528,15.1606851 C10.5196528,14.8167153 10.7867797,14.5378571 11.1164231,14.5378571 Z" id="Combined-Shape" fill="#FFFFFF"></path>
                </g>
            </g>
        </g>
    </g>
</svg>