<svg width="25" height="24" viewBox="0 0 25 24" xmlns="http://www.w3.org/2000/svg">
    <g stroke="#16171D" stroke-linecap="round" stroke-linejoin="round" fill="none" fill-rule="evenodd">
        <path d="M7.702 15.936a2.292 2.292 0 1 0 4.584 0 2.292 2.292 0 0 0-4.584 0zM7.702 15.935H3.054"/>
        <path d="M3.053 5.772h4.44c.909 0 1.277.25 1.754.552 1.238.782 3.27 2.73 3.728 3.178l1.133.203c.616.101 1.098.684 1.098 1.327v3.136a.431.431 0 0 1-.121.298l-1.301 1.34a.431.431 0 0 1-.307.13h-1.19"/>
        <path d="M3.053 10.854h6.005c.218 0 .42-.072.537-.19.117-.12.133-.268.041-.395A9.552 9.552 0 0 0 8.31 8.847C7.08 7.754 6.018 7.55 5.901 7.532H3.053v3.322zM17.933 10.828c.87.87.87 2.28 0 3.15M19.508 9.253a4.457 4.457 0 0 1 0 6.302"/>
        <path d="M21.084 7.677a6.684 6.684 0 0 1 0 9.452"/>
    </g>
</svg>
