<svg width="25" height="24" viewBox="0 0 25 24" xmlns="http://www.w3.org/2000/svg">
    <g fill="none" fill-rule="evenodd">
        <path d="M20.327 19.785h-15a2 2 0 0 1-2-2V6.215a2 2 0 0 1 2-2h15a2 2 0 0 1 2 2v11.57a2 2 0 0 1-2 2z" stroke="#16171D" stroke-linecap="round" stroke-linejoin="round"/>
        <path fill="#16171D" d="M10.69 11.994h-.691l-.192.532h.69zM9.296 11.308l-.778 2.146h.664l.779-2.146zM8.167 11.254c-.294 0-.546.125-.773.342l.526-1.472h-.664l-1.19 3.33h.663l.367-1.026c.291-.66.57-.74.688-.74.178 0 .371.081.156.736l-.377 1.03h.665l.38-1.036c.307-.783-.038-1.164-.44-1.164M12.186 12.496c-.36.652-.686.674-.967.674 0 0 .046-.21.246-.685.3-.713.549-.797.672-.797.122 0 .444.09.049.808m.332-1.242c-.281 0-.505.117-.712.318l.098-.264h-.665l-1.171 3.166h.664l.375-1.015c.068.006.139.01.215.01.488 0 1.226-.231 1.595-1.051.345-.766.004-1.164-.4-1.164M18.447 12.27c-.215-.22-.37-.353-.36-.464.008-.111.131-.243.375-.243s.485.113.485.113l.118-.301s-.197-.153-.597-.155c-.619-.003-1.02.29-1.073.663-.032.234.113.377.29.559.066.07.135.133.2.205.117.13.176.265.068.393-.084.1-.265.128-.388.116-.3-.028-.475-.177-.475-.177l-.226.343s.263.213.736.2c.74-.022 1.053-.446 1.071-.753.012-.188-.048-.317-.224-.498M14.565 12.234c-.375.713-.633.797-.755.797s-.411-.22.018-.825c.393-.557.837-.658 1.055-.658 0 0-.068.21-.318.686m.234-.96c-.53.007-1.307.277-1.706 1.052-.398.775-.106 1.184.298 1.184.4 0 .686-.215 1.015-.634l-.21.578h.665l.72-2.01s-.293-.175-.782-.17M16.696 12.27c-.216-.22-.371-.353-.362-.464.01-.111.132-.243.376-.243.245 0 .42.088.42.088l.183-.276s-.196-.153-.596-.155c-.62-.003-1.021.29-1.073.663-.033.234.113.377.289.559.066.07.135.133.2.205.117.13.176.265.068.393-.084.1-.264.128-.387.116a.916.916 0 0 1-.476-.177l-.226.343s.263.213.736.2c.74-.022 1.054-.446 1.072-.753.01-.188-.05-.317-.224-.498M13.32 9.74c.843-.022 1.684.067 2.528.078a15.91 15.91 0 0 0 2.047-.088c.312-.036.641-.09.936-.203 0 0-1.274.68-3.692.688-1.586.004-3.106-.077-4.655.393a4.043 4.043 0 0 0-1.076.49c.026-.018.244-.308.681-.6.626-.42 1.475-.604 2.213-.69.335-.037.675-.06 1.017-.068"/>
        <path d="M9.439 11.134c-.008.005.966-.669 3.07-.812.872-.045.882-.045 1.789-.034-.013 0 2.85.131 4.469-.666-.08.04-.153.09-.231.13a6.824 6.824 0 0 1-.6.283 7.452 7.452 0 0 1-1.167.374c-.6.14-1.207.212-1.804.253-.768.053-1.522.055-2.262.055-.818 0-1.625.038-2.443.206-.138.03-.277.053-.415.088-.121.031-.29.058-.406.123" fill="#16171D"/>
    </g>
</svg>
