<svg width="25" height="24" viewBox="0 0 25 24" xmlns="http://www.w3.org/2000/svg">
    <g stroke="#16171D" fill="none" fill-rule="evenodd">
        <path d="M17.286 10.41c1.084.084 1.503.678 2.116 1.71l1.045 1.761 1.984.827c.543.226.896.756.896 1.344v1.987c0 .61-.495 1.105-1.105 1.105h-2M5.328 19.145H3.433a1.106 1.106 0 0 1-1.106-1.105v-1.426c0-.747.487-1.405 1.199-1.627l2.953-1 1.516-2.126a3.677 3.677 0 0 1 1.784-1.337" stroke-linecap="round" stroke-linejoin="round"/>
        <path d="M8.692 19.145a1.575 1.575 0 1 1-3.15 0 1.575 1.575 0 0 1 3.15 0zM20.154 19.145a1.575 1.575 0 1 1-3.15 0 1.575 1.575 0 0 1 3.15 0zM9.008 19.145h7.996"/>
        <path stroke-linecap="round" stroke-linejoin="round" d="M11.593 3.28 9.247 5.765h5.284v4.628M11.593 8.248 9.247 5.765"/>
    </g>
</svg>
