<?xml version="1.0" encoding="UTF-8"?>
<svg width="32px" height="32px" viewBox="0 0 32 32" version="1.1" xmlns="http://www.w3.org/2000/svg" xmlns:xlink="http://www.w3.org/1999/xlink">
    <title>155BFAD1-C497-49A1-851D-3A047EF050BC</title>
    <g id="메인_v0.5" stroke="none" stroke-width="1" fill="none" fill-rule="evenodd">
        <g id="[PC]메인_0516_시안(백업)" transform="translate(-399.000000, -8003.000000)">
            <g id="Group" transform="translate(399.000000, 8003.000557)">
                <ellipse id="stroke" fill="#000000" cx="16" cy="15.9997217" rx="16" ry="15.9997217"></ellipse>
                <path d="M16.9394776,8.34850581 C17.8105676,8.35039151 18.2454535,8.35582124 18.638443,8.36791347 L18.908665,8.37738777 C19.0300961,8.38210571 19.1561756,8.38752255 19.2983898,8.39372914 C20.1498965,8.43087755 20.731445,8.56024393 21.240304,8.74941833 C21.7663747,8.94494107 22.2125155,9.20658981 22.6572907,9.63198922 C23.1020342,10.057419 23.3755808,10.4841549 23.5800262,10.9873442 C23.7777712,11.4740704 23.9130202,12.0303246 23.9518578,12.8447951 C23.9840198,13.5190237 23.9958978,13.8141096 23.9990565,15.0679073 L23.9990565,16.9315533 C23.9970615,17.7234147 23.9915885,18.1328605 23.9797239,18.4969345 L23.9732455,18.6767508 C23.9673805,18.8260476 23.9603215,18.9772198 23.9518578,19.1546484 C23.9130202,19.9691189 23.7777712,20.5253731 23.5800262,21.0120993 C23.3755808,21.5152886 23.1020342,21.9420245 22.6572907,22.3674543 C22.2125155,22.7928537 21.7663747,23.0545024 21.240304,23.2500555 C20.731445,23.4391996 20.1498965,23.5685659 19.2983898,23.6057143 C19.1561756,23.6119209 19.0300961,23.6173378 18.908665,23.6220557 L18.638443,23.63153 C18.2454535,23.6436222 17.8105676,23.649052 16.9394776,23.6509377 L16.5050272,23.6515677 C16.3489289,23.6517014 16.1810704,23.6517626 16.0000159,23.6517626 L15.7381479,23.6517153 C15.6540379,23.6516833 15.5730475,23.6516346 15.4949972,23.6515677 L15.0605408,23.6509377 C14.1894389,23.649052 13.7545487,23.6436222 13.3615578,23.63153 L13.0913352,23.6220557 C12.9699039,23.6173378 12.8438244,23.6119209 12.7016102,23.6057143 C11.8501035,23.5685659 11.268555,23.4391996 10.759696,23.2500555 C10.2336253,23.0545024 9.78748454,22.7928537 9.34270931,22.3674543 C8.89796583,21.9420245 8.62441921,21.5152886 8.42000552,21.0120993 C8.22222884,20.5253731 8.08697982,19.9691189 8.04814217,19.1546484 C8.03967849,18.9772198 8.03261953,18.8260476 8.02675451,18.6767508 L8.0202761,18.4969345 C8.00841151,18.1328605 8.0029385,17.7234147 8.00094353,16.9315533 L8.00094353,15.0679073 C8.00410223,13.8141096 8.0159802,13.5190237 8.04814217,12.8447951 C8.08697982,12.0303246 8.22222884,11.4740704 8.42000552,10.9873442 C8.62441921,10.4841549 8.89796583,10.057419 9.34270931,9.63198922 C9.78748454,9.20658981 10.2336253,8.94494107 10.759696,8.74941833 C11.268555,8.56024393 11.8501035,8.43087755 12.7016102,8.39372914 C12.8438244,8.38752255 12.9699039,8.38210571 13.0913352,8.37738777 L13.3615578,8.36791347 C13.7545487,8.35582124 14.1894389,8.35039151 15.0605408,8.34850581 Z M16.7294345,9.73936758 L15.2705871,9.73936758 C13.7550241,9.74136109 13.464317,9.75134438 12.7140287,9.78349251 C11.9211799,9.81744433 11.4906038,9.94185349 11.2040588,10.0464372 C10.8244843,10.1849728 10.5535948,10.3504576 10.2690512,10.6177069 C9.98447518,10.8849259 9.80826145,11.139322 9.66074419,11.4957858 C9.54937995,11.7648842 9.41690493,12.1692443 9.3807519,12.9138198 C9.34673213,13.6140497 9.33602193,13.8880252 9.33380675,15.2883317 L9.33380675,16.7111318 C9.33602193,18.1114183 9.34673213,18.3853938 9.3807519,19.0856237 C9.41690493,19.8301992 9.54937995,20.2345593 9.66074419,20.5036577 C9.80826145,20.8601215 9.98450746,21.1145176 10.2690512,21.3817366 C10.5535948,21.6489859 10.8244843,21.8144707 11.2040588,21.9530063 C11.4906038,22.05759 11.9211799,22.1819992 12.7140287,22.215951 C13.4285083,22.2465682 13.7261566,22.2570814 15.0621658,22.2597352 L16.9378551,22.2597352 C18.2738524,22.2570814 18.5715186,22.2465682 19.2859713,22.215951 C20.0788201,22.1819992 20.5093962,22.05759 20.7959412,21.9530063 C21.1755157,21.8144707 21.4464052,21.6489859 21.7309488,21.3817366 C22.0155248,21.1145176 22.1917385,20.8601215 22.3392558,20.5036577 C22.45062,20.2345593 22.5830951,19.8301992 22.6192481,19.0856237 C22.6532679,18.3853938 22.6639781,18.1114183 22.6661933,16.7111318 L22.6661933,15.2883317 C22.6639781,13.8880252 22.6532679,13.6140497 22.6192481,12.9138198 C22.5830951,12.1692443 22.45062,11.7648842 22.3392558,11.4957858 C22.1917385,11.139322 22.0155248,10.8849259 21.7309488,10.6177069 C21.4464052,10.3504576 21.1755157,10.1849728 20.7959412,10.0464372 C20.5093962,9.94185349 20.0788201,9.81744433 19.2859713,9.78349251 C18.535683,9.75134438 18.2449759,9.74136109 16.7294345,9.73936758 Z M16.0000155,12.5215214 C18.2091532,12.5215214 20,14.3901986 20,16.695378 C20,19.0005251 18.2091532,20.8692023 16.0000155,20.8692023 C13.7908468,20.8692023 12,19.0005251 12,16.695378 C12,14.3901986 13.7908468,12.5215214 16.0000155,12.5215214 Z M16.0000159,13.9128015 C14.5272338,13.9128015 13.3333333,15.158589 13.3333333,16.6953784 C13.3333333,18.2321346 14.5272338,19.4779221 16.0000159,19.4779221 C17.4727662,19.4779221 18.6666667,18.2321346 18.6666667,16.6953784 C18.6666667,15.158589 17.4727662,13.9128015 16.0000159,13.9128015 Z M19.3333223,11.1302412 C19.7015156,11.1302412 20,11.4416978 20,11.8258928 C20,12.2100878 19.7015156,12.5215214 19.3333223,12.5215214 C18.9651511,12.5215214 18.6666667,12.2100878 18.6666667,11.8258928 C18.6666667,11.4416978 18.9651511,11.1302412 19.3333223,11.1302412 Z" id="fill" fill="#FFFFFF" fill-rule="nonzero"></path>
            </g>
        </g>
    </g>
</svg>