<svg width="24" height="24" viewBox="0 0 24 24" xmlns="http://www.w3.org/2000/svg">
    <g stroke="#16171D" fill="none" fill-rule="evenodd">
        <path d="M10.502.595c3.762-.474 7.225.87 9.63 3.273 2.403 2.404 3.747 5.868 3.273 9.63-.323 2.561-1.52 4.876-3.275 6.632-1.756 1.755-4.07 2.952-6.633 3.275-3.761.474-7.225-.87-9.629-3.273C1.464 17.728.12 14.264.594 10.502.918 7.942 2.114 5.627 3.87 3.87 5.626 2.115 7.94.918 10.502.595z"/>
        <path stroke-linecap="round" stroke-linejoin="round" d="M12 16.387v.402M9.702 9.461c0-1.363.935-2.299 2.298-2.299 1.334 0 2.298.965 2.298 2.299 0 .78-.568 1.607-1.134 2.06-.926.74-1.164 1.35-1.164 2.537"/>
    </g>
</svg>
