<svg width="24" height="24" viewBox="0 0 24 24" xmlns="http://www.w3.org/2000/svg">
    <g fill="#FFF" fill-rule="evenodd">
        <path d="m12.189 3.61-.28.003c-.06 0-.114.004-.172.013a7.828 7.828 0 0 0-2.681.535C6 5.347 4.019 8.464 4.019 11.885v4.847a1.59 1.59 0 0 1-1.053 1.496c-.605.216-.43 1.093.193 1.093H20.84c.622 0 .797-.877.192-1.093a1.59 1.59 0 0 1-1.051-1.496v-4.847c0-3.422-1.982-6.538-5.038-7.725a8.303 8.303 0 0 0-2.755-.55zm-.032 1a7.296 7.296 0 0 1 2.425.483c2.658 1.032 4.4 3.77 4.4 6.792v4.847l.006.182c.034.482.2.934.468 1.312l.072.094H4.472l.072-.093c.301-.426.475-.945.475-1.495v-4.847c0-3.021 1.74-5.76 4.399-6.792a7.06 7.06 0 0 1 2.412-.474l.08-.006.247-.003z" fill-rule="nonzero"/>
        <path d="M14.3 18.743a.5.5 0 0 1 .49.51 2.806 2.806 0 0 1-5.612 0 .5.5 0 1 1 1-.02 1.807 1.807 0 0 0 3.612-.001.5.5 0 0 1 .51-.49zM11.984 2c1.057 0 1.914.857 1.914 1.914a.5.5 0 1 1-1 0 .914.914 0 0 0-1.823-.106l-.006.106a.5.5 0 0 1-1 0c0-1.057.857-1.914 1.915-1.914z" fill-rule="nonzero"/>
        <path d="M12.182 18.82h8.659c.07 0 .09-.097.024-.121a2.09 2.09 0 0 1-1.383-1.967v-4.847c0-3.14-1.792-6.122-4.72-7.258a7.56 7.56 0 0 0-2.58-.507v-.01c-.061 0-.121.005-.182.005-.06 0-.121-.005-.182-.005v.01a7.56 7.56 0 0 0-2.581.507C6.31 5.763 4.519 8.746 4.519 11.885v4.847a2.09 2.09 0 0 1-1.384 1.967c-.067.024-.047.122.024.122h9.023zM14.29 19.243a2.306 2.306 0 0 1-4.612 0M13.398 3.914a1.414 1.414 0 1 0-2.83 0"/>
    </g>
</svg>
