<svg width="25" height="24" viewBox="0 0 25 24" xmlns="http://www.w3.org/2000/svg">
    <g fill="none" fill-rule="evenodd">
        <path d="M.5 24h24V0H.5z"/>
        <path d="M18.855 7.792c.035.034.112.095.12.101C21.475 9.746 23 12 23 12s-4.4 6.5-10.5 6.5a9.357 9.357 0 0 1-3.347-.642 1.074 1.074 0 0 1-.183-.117m-2.755-1.476a1.739 1.739 0 0 0-.137-.119C3.548 14.286 2 12 2 12s4.4-6.5 10.5-6.5c1.171 0 2.28.24 3.307.627.049.018.234.117.3.183m-2.465 2.465a.983.983 0 0 0-.284-.17 3.5 3.5 0 0 0-4.246 4.274c.01.044.163.235.195.267m2.13 2.113c.07.06.251.146.276.152a3.5 3.5 0 0 0 4.203-4.177 1.066 1.066 0 0 0-.182-.306M4 20.625 21.5 3" stroke="#16171D"/>
    </g>
</svg>
