<?xml version="1.0" encoding="UTF-8"?>
<svg width="32px" height="32px" viewBox="0 0 32 32" version="1.1" xmlns="http://www.w3.org/2000/svg" xmlns:xlink="http://www.w3.org/1999/xlink">
    <title>A1ADBE23-3A87-4369-9C51-C33AB30EC644</title>
    <g id="메인_v0.5" stroke="none" stroke-width="1" fill="none" fill-rule="evenodd">
        <g id="[PC]메인_0516_시안(백업)" transform="translate(-543.000000, -8003.000000)">
            <g id="Group-4" transform="translate(351.000000, 8003.000000)">
                <g id="Group" transform="translate(192.000000, 0.000557)">
                    <ellipse id="stroke" fill="#000000" cx="16" cy="15.9997217" rx="16" ry="15.9997217"></ellipse>
                    <path d="M20.2961734,6.95640076 L20.2961734,17.7773083 L12,17.7773083 L12,6.95640076 L20.2961734,6.95640076 Z M15.36538,10.5633699 L14.0740433,10.5633699 L14.0740433,14.1703391 L15.3612571,14.1703391 L15.3612571,12.3503877 L16.5560598,14.1703391 L17.8468278,14.1703391 L17.8468278,10.5633699 L16.5600406,10.5633699 L16.5600406,12.3830246 L15.36538,10.5633699 Z M17.8764562,23.5487475 L16.1538445,26.4343229 L14.4197172,23.5487475 L17.8764562,23.5487475 Z M12,18.4989907 L20.2961734,18.4989907 L18.1791493,22.8273537 L14.1294052,22.8273537 L12,18.4989907 Z" id="Combined-Shape" fill="#FFFFFF"></path>
                </g>
            </g>
        </g>
    </g>
</svg>