<svg width="25" height="24" viewBox="0 0 25 24" xmlns="http://www.w3.org/2000/svg">
    <g stroke="#16171D" stroke-linecap="round" stroke-linejoin="round" fill="none" fill-rule="evenodd">
        <path d="M22.327 12c0 5.246-4.253 9.5-9.5 9.5a9.499 9.499 0 0 1-9.5-9.5c0-5.247 4.252-9.5 9.5-9.5a9.5 9.5 0 0 1 9.5 9.5z"/>
        <path d="M19.335 12a6.508 6.508 0 1 1-13.017 0 6.508 6.508 0 0 1 13.017 0z"/>
        <path d="M7.252 8.747c1.05-.323 3.3-.921 5.575-.921 2.302 0 4.629.63 5.65.947M6.637 14.01H8.81s.832 0 1.497.57c.676.561.676 1.343.676 1.343v2.32M19.017 14.01h-2.173s-.832 0-1.497.57c-.676.561-.676 1.343-.676 1.343v2.32M10.904 9.976c1.228 1.312-1.175 1.664 0 2.881M12.786 9.976c1.228 1.312-1.175 1.664 0 2.881M14.657 9.976c1.228 1.312-1.175 1.664 0 2.881"/>
    </g>
</svg>
