<?xml version="1.0" encoding="UTF-8"?>
<svg width="32px" height="32px" viewBox="0 0 32 32" version="1.1" xmlns="http://www.w3.org/2000/svg" xmlns:xlink="http://www.w3.org/1999/xlink">
    <title>6763CFFB-090F-48C8-BDB3-76E05C799CD1</title>
    <g id="메인_v0.5" stroke="none" stroke-width="1" fill="none" fill-rule="evenodd">
        <g id="[PC]메인_0516_시안(백업)" transform="translate(-447.000000, -8003.000000)">
            <g id="Group-4" transform="translate(351.000000, 8003.000000)">
                <g id="Group" transform="translate(96.000000, 0.000417)">
                    <ellipse id="stroke" fill="#000000" cx="16" cy="15.9997217" rx="16" ry="15.9997217"></ellipse>
                    <path d="M21.588247,15.2624784 C20.9564749,15.2624784 20.4442763,15.7970952 20.4442763,16.4566401 C20.4442763,17.1158691 20.9564749,17.649854 21.588247,17.649854 C22.2200191,17.649854 22.7322177,17.1158691 22.7322177,16.4566401 C22.7322177,15.7970952 22.2200191,15.2624784 21.588247,15.2624784 M21.643493,18.9296175 L20.0699657,18.9296175 C19.7663397,20.6808229 18.5937621,24.2574641 14.0885639,24.2574641 C8.12320616,24.2574641 8,17.9849964 8,17.9849964 L8,14.218199 C8,14.1038526 8.08839361,14.0117754 8.19782611,14.0117754 L18.0060354,14.0117754 L19.9791503,14.0117754 L21.643493,14.0117754 C22.9427579,14.0117754 24,15.1146494 24,16.4705385 C24,17.8264276 22.9427579,18.9296175 21.643493,18.9296175 M14.7556026,8.34973409 L18.5326131,8.34768091 C18.5855887,8.34768091 18.6367481,8.36947622 18.6745878,8.40943427 C18.711368,8.44891852 18.7318015,8.50214329 18.7309223,8.55805299 C18.677615,11.8530925 15.566281,12.3790227 15.5352524,12.3837608 C15.5254141,12.3853402 15.5152731,12.3866037 15.5055861,12.3866037 L11.5154623,12.3866037 C11.4600649,12.3866037 11.4069379,12.3619655 11.3697036,12.3193225 C11.3318639,12.2766795 11.3133981,12.2199802 11.3180902,12.1618593 C11.5858442,8.8590809 14.7239686,8.35478807 14.7556026,8.34973409" id="Fill-1" fill="#FFFFFF"></path>
                </g>
            </g>
        </g>
    </g>
</svg>