<svg width="20" height="20" viewBox="0 0 20 20" xmlns="http://www.w3.org/2000/svg">
    <g stroke="#16171D" stroke-linecap="round" stroke-linejoin="round" fill="none" fill-rule="evenodd">
        <path d="M4.625 5.83H2.42a.337.337 0 0 1-.337-.337V3.288c0-.186.15-.336.337-.336h2.205c.186 0 .336.15.336.336v2.205c0 .185-.15.336-.336.336zM7.448 4.39h10.469M4.627 11.439h-2.21a.335.335 0 0 1-.334-.334v-2.21c0-.184.15-.334.334-.334h2.21c.184 0 .334.15.334.334v2.21c0 .184-.15.334-.334.334zM7.448 10h10.469M4.624 17.049H2.42a.338.338 0 0 1-.338-.338v-2.203c0-.186.152-.337.338-.337h2.203c.187 0 .337.151.337.337v2.203c0 .187-.15.338-.337.338zM7.448 15.61h10.469"/>
    </g>
</svg>
