<svg width="32" height="32" viewBox="0 0 32 32" xmlns="http://www.w3.org/2000/svg" xmlns:xlink="http://www.w3.org/1999/xlink">
    <defs>
        <path id="xhw8ezyzsa" d="M0 0h32v32H0z"/>
        <path id="yjs510lxxc" d="M0 0h30v27.56H0z"/>
        <path d="M.68 1.48h1.544s.01 4.241 0 5.229c.004.721 1.608.731 1.606.011l.006-5.184s.518.004 1.537.004c.96 0 .96-1.51 0-1.511C4.294.029.679 0 .679 0-.228.002-.224 1.48.68 1.48z" id="3s3wnjzbie"/>
        <path d="M2.257.464C1.877 1.301.507 5.252.05 6.3c-.329.757 1.091 1.375 1.421.618l.31-1.08h2.824s-.097.044.278 1.034c.304.801 1.771.246 1.466-.556C5.915 5.171 4.414 1.048 4.141.464 4.015.194 3.562 0 3.124 0c-.363 0-.716.133-.867.464zm.963 1.261.86 2.692H2.288l.932-2.692z" id="tnugh10ovg"/>
        <path d="M0 .709c.003 1.343.008 5.67.008 5.67s-.124.861.613.861c.738 0 2.375-.008 3.101-.008.725 0 .722-1.544-.004-1.544s-2.05-.007-2.05-.007.006-4.003.004-4.976C1.671.235 1.254 0 .837 0 .418 0 0 .237 0 .709z" id="8j91q1q4pi"/>
        <path d="M.019.492C.035 1.082 0 6.406 0 6.8c.001.623 1.586.622 1.586-.001V4.705l.465-.373 2.035 2.777c.412.543 1.706-.438 1.296-.981L3.22 3.281s1.467-1.586 2.045-2.162C5.602.785 4.558-.267 4.221.068c-.328.324-2.626 2.626-2.626 2.626s.021-1.446 0-2.244C1.587.147 1.215 0 .834 0 .426 0 .011.168.019.492z" id="s4gwmxmjfk"/>
    </defs>
    <g fill="none" fill-rule="evenodd">
        <mask id="tn7pqo35nb" fill="#fff">
            <use xlink:href="#xhw8ezyzsa"/>
        </mask>
        <g mask="url(#tn7pqo35nb)">
            <g transform="translate(1 4)">
                <mask id="fomx7ag2rd" fill="#fff">
                    <use xlink:href="#yjs510lxxc"/>
                </mask>
                <path d="M15 0C6.716 0 0 5.309 0 11.858c0 4.263 2.845 7.999 7.116 10.09a633.74 633.74 0 0 0-1.3 4.9c-.204.815.297.805.627.586.259-.172 4.11-2.792 5.772-3.922.903.134 1.833.204 2.785.204 8.284 0 15-5.308 15-11.858C30 5.309 23.284 0 15 0" fill="#3C1C1C" mask="url(#fomx7ag2rd)"/>
            </g>
            <path d="M5.535 13.675H7.08s.01 4.241 0 5.23c.002.72 1.606.73 1.604.01l.008-5.185s.517.004 1.537.005c.959 0 .96-1.51 0-1.51-1.081 0-4.695-.03-4.695-.03-.907.001-.904 1.48.002 1.48" fill="#FAE500"/>
            <g transform="translate(4.855 12.195)">
                <mask id="2v3rzjlv5f" fill="#fff">
                    <use xlink:href="#3s3wnjzbie"/>
                </mask>
                <path fill="#FAE500" mask="url(#2v3rzjlv5f)" d="M-.228 7.44h6.56V0h-6.56z"/>
            </g>
            <path d="M11.962 12.689c-.38.837-1.752 4.788-2.208 5.836-.329.757 1.091 1.375 1.421.618l.31-1.081h2.824s-.097.045.278 1.035c.304.8 1.771.246 1.466-.556-.433-1.145-1.934-5.268-2.208-5.852-.126-.27-.578-.464-1.016-.464-.363 0-.716.133-.867.464zm.963 1.26.86 2.693h-1.792l.932-2.692z" fill="#FAE500"/>
            <g transform="translate(9.705 12.225)">
                <mask id="wsv1xrgvjh" fill="#fff">
                    <use xlink:href="#tnugh10ovg"/>
                </mask>
                <path fill="#FAE500" mask="url(#wsv1xrgvjh)" d="M-.28 7.675h6.933V0H-.28z"/>
            </g>
            <path d="M16.595 12.936c.003 1.343.008 5.67.008 5.67s-.124.86.613.86c.738 0 2.374-.007 3.1-.007.725 0 .722-1.544-.004-1.544s-2.05-.007-2.05-.007.006-4.004.004-4.976c-.001-.47-.418-.705-.835-.705-.418 0-.837.236-.836.709" fill="#FAE500"/>
            <g transform="translate(16.594 12.227)">
                <mask id="kogo23echj" fill="#fff">
                    <use xlink:href="#8j91q1q4pi"/>
                </mask>
                <path fill="#FAE500" mask="url(#kogo23echj)" d="M-.116 7.24h4.563V0H-.116z"/>
            </g>
            <path d="M21.235 12.722c.016.59-.02 5.914-.02 6.308.002.623 1.587.622 1.587 0v-2.096l.465-.373 2.035 2.777c.412.543 1.707-.438 1.296-.98l-2.162-2.847s1.467-1.587 2.046-2.162c.337-.335-.708-1.387-1.045-1.05-.327.323-2.625 2.624-2.625 2.624s.02-1.445-.001-2.244c-.008-.303-.38-.45-.761-.45-.407 0-.823.17-.815.493" fill="#FAE500"/>
            <g transform="translate(21.216 12.23)">
                <mask id="cja39d05jl" fill="#fff">
                    <use xlink:href="#s4gwmxmjfk"/>
                </mask>
                <path fill="#FAE500" mask="url(#cja39d05jl)" d="M0 7.651h5.793V-.268H0z"/>
            </g>
        </g>
    </g>
</svg>
