<svg width="64" height="64" viewBox="0 0 64 64" xmlns="http://www.w3.org/2000/svg">
    <g stroke="#16171D" stroke-linecap="round" stroke-linejoin="round" fill="none" fill-rule="evenodd">
        <path d="M43.594 4.754h-4.35c-3.426 0-6.085 3.069-6.085 7.65v36.198c0 1.869 4.006 4.848 9.158 4.848h1.277M33.16 19.735l-4.637 1.829"/>
        <path d="M43.594 25.623c-2.483 0-4.987.8-5.797 1.16-1.702-1.304-4.638-4.954-4.638-6.957 2.072-.837 8.8-1.16 10.435-1.16"/>
        <path d="M43.594 25.623c2.483 0 4.987.8 5.797 1.16 1.704-1.304 4.638-4.954 4.638-6.957-2.072-.837-8.8-1.16-10.435-1.16M37.797 26.783v11.826c0 1.152.933 2.086 2.088 2.086h7.419a2.087 2.087 0 0 0 2.088-2.086V26.783"/>
        <path d="M43.594 4.754h4.35c3.426 0 6.085 3.069 6.085 7.65v36.198c0 1.869-4.006 4.848-9.158 4.848h-1.277M54.029 19.735l4.638 1.829M26.203 59.246V53.45c0-4.581-2.659-8.115-6.085-8.115h-8.7c-3.426 0-6.084 3.534-6.084 8.115v5.797M23.884 24.464a4.639 4.639 0 0 0 4.637 4.637M18.087 24.464c0 5.762 4.672 10.434 10.435 10.434M12.29 24.464c0 8.965 7.267 16.232 16.232 16.232"/>
    </g>
</svg>
