<svg width="32" height="32" viewBox="0 0 32 32" xmlns="http://www.w3.org/2000/svg">
    <g fill="none" fill-rule="evenodd">
        <path d="M9.885 26.32 4 28l1.868-5.593A11.789 11.789 0 0 1 4 16C4 9.373 9.375 4 16 4c6.627 0 12 5.373 12 12s-5.373 12-12 12c-2.233 0-4.33-.616-6.115-1.68z" fill="#FFF"/>
        <g stroke="#16171D" stroke-linecap="round" stroke-linejoin="round">
            <path d="M9.885 26.32 4 28l1.868-5.593A11.789 11.789 0 0 1 4 16C4 9.373 9.375 4 16 4c6.627 0 12 5.373 12 12s-5.373 12-12 12c-2.233 0-4.33-.616-6.115-1.68zM10.26 13.391h11.48M10.26 16.522h11.48M10.26 19.652h11.48"/>
        </g>
    </g>
</svg>
