<svg width="32" height="32" viewBox="0 0 32 32" xmlns="http://www.w3.org/2000/svg">
    <g fill="none" fill-rule="evenodd">
        <path d="M28.667 16c0 6.996-5.671 12.667-12.667 12.667-6.996 0-12.667-5.671-12.667-12.667C3.333 9.004 9.004 3.333 16 3.333c6.996 0 12.667 5.671 12.667 12.667z" fill="#FFF"/>
        <path d="M12.207 23.842a8.02 8.02 0 0 1-3.827-3.681" stroke="#16171D" stroke-linecap="round" stroke-linejoin="round"/>
        <g stroke="#16171D">
            <path d="M21.097 16a5.098 5.098 0 1 1-10.196-.001A5.098 5.098 0 0 1 21.097 16z"/>
            <path d="M28.667 16c0 6.996-5.671 12.667-12.667 12.667-6.996 0-12.667-5.671-12.667-12.667C3.333 9.004 9.004 3.333 16 3.333c6.996 0 12.667 5.671 12.667 12.667z"/>
        </g>
    </g>
</svg>
