<svg width="64" height="64" viewBox="0 0 64 64" xmlns="http://www.w3.org/2000/svg">
    <g stroke="#16171D" stroke-linecap="round" stroke-linejoin="round" fill="none" fill-rule="evenodd">
        <path d="M19.857 44.944c2.672-.867 7.093-1.933 12.144-1.933 5.077 0 9.49 1.069 12.155 1.936M16.004 39.805v-14.89c0-6.102 4.541-11.014 10.178-11.014h11.635c5.64 0 10.179 4.912 10.179 11.013v14.89"/>
        <path d="m19.857 44.944-1.712-2.816a4.706 4.706 0 0 0-6.448-1.728 4.711 4.711 0 0 0-1.728 6.448l5.51 9.539h33.045l5.506-9.539a4.711 4.711 0 0 0-1.728-6.448 4.707 4.707 0 0 0-6.448 1.728l-1.698 2.819M40.72 13.91 39.15 9.986a3.78 3.78 0 0 0-3.509-2.374h-7.477a3.779 3.779 0 0 0-3.507 2.374l-1.568 3.922M26.42 23.621c4.77 5.099-4.562 6.467 0 11.192M32.383 23.621c4.771 5.099-4.562 6.467 0 11.192M38.45 23.621c4.771 5.099-4.562 6.467 0 11.192"/>
    </g>
</svg>
