<svg width="64" height="64" viewBox="0 0 64 64" xmlns="http://www.w3.org/2000/svg">
    <g stroke="#16171D" stroke-linecap="round" stroke-linejoin="round" fill="none" fill-rule="evenodd">
        <path d="M28.188 22.125h7.573-7.573zm-.4 37.643c2.837.386 5.61.394 8.402 0 8.171-1.088 12.326-5.494 12.47-13.222v-.008c.101-9.005-1.419-18.008-4.56-27.01v.01c-.48-1.448-1.326-2.536-2.536-3.266a6.982 6.982 0 0 0-1.622-.699c-.013-.003-.026-.008-.04-.01-1.952-.427-4.224-.614-6.813-.558l-2.595-.01c-2.42-.025-4.554.165-6.405.567-.019.003-.035.008-.05.011-2.1.619-3.48 1.939-4.147 3.965v-.01a85.203 85.203 0 0 0-2.302 7.746c-1.576 6.422-2.325 12.843-2.25 19.264v.008c.136 7.728 4.285 12.134 12.448 13.222zm9.205-19.304H26.966h10.027zm-5.008-7.696c1.384.002 2.568.49 3.547 1.472.261.261.488.538.68.832.522.794.784 1.701.781 2.717v2.675h1.997V48.3a2.613 2.613 0 0 1-.802 1.835 2.616 2.616 0 0 1-1.864.802h-8.688a2.645 2.645 0 0 1-1.875-.802 2.624 2.624 0 0 1-.8-1.864l.008-7.808h1.997v-2.675c.003-1.016.27-1.923.803-2.717.19-.294.416-.57.677-.832.98-.982 2.158-1.47 3.54-1.472zM35.507 10.509a4.878 4.878 0 0 0-6.901 0M39.82 7.154c-4.288-4.288-11.238-4.288-15.526 0"/>
    </g>
</svg>
