<svg width="32" height="32" viewBox="0 0 32 32" xmlns="http://www.w3.org/2000/svg">
    <g fill="none" fill-rule="evenodd">
        <circle fill="#658BEF" cx="16" cy="16" r="16"/>
        <g stroke="#FFF" stroke-linecap="round" stroke-linejoin="round">
            <path d="M20.182 18.716H9.64c-.63 0-1.14-.51-1.14-1.14V9.702c0-.63.51-1.14 1.14-1.14h7.023c.63 0 1.14.51 1.14 1.14v3.52"/>
            <path d="M11.54 13.284h10.82c.63 0 1.14.51 1.14 1.14v7.875c0 .63-.51 1.14-1.14 1.14h-7.023c-.63 0-1.14-.51-1.14-1.14v-3.52M13.409 15.075l-1.87-1.79M13.409 11.493l-1.87 1.79"/>
            <path d="m18.592 20.507 1.727-1.657a.186.186 0 0 0 0-.269l-1.727-1.657"/>
        </g>
    </g>
</svg>
