<svg width="64" height="64" viewBox="0 0 64 64" xmlns="http://www.w3.org/2000/svg">
    <g stroke="#16171D" fill="none" fill-rule="evenodd">
        <path d="M43.89 27.76c2.891.225 4.008 1.809 5.643 4.558l2.787 4.699 5.29 2.205A3.88 3.88 0 0 1 60 42.806v5.299a2.948 2.948 0 0 1-2.947 2.946h-5.33M12.002 51.052H6.948c-1.63 0-2.95-1.32-2.95-2.947v-3.802a4.543 4.543 0 0 1 3.198-4.336l7.875-2.67 4.043-5.666a9.805 9.805 0 0 1 4.757-3.566" stroke-linecap="round" stroke-linejoin="round"/>
        <path d="M20.972 51.052a4.2 4.2 0 1 1-8.399.001 4.2 4.2 0 0 1 8.4-.001zM51.538 51.052a4.2 4.2 0 1 1-8.399.001 4.2 4.2 0 0 1 8.4-.001zM21.816 51.052h21.323"/>
        <path stroke-linecap="round" stroke-linejoin="round" d="m28.709 8.748-6.256 6.624h14.09v12.341M28.709 21.996l-6.256-6.624"/>
    </g>
</svg>
