<svg width="32" height="32" viewBox="0 0 32 32" xmlns="http://www.w3.org/2000/svg">
    <g fill="none" fill-rule="evenodd">
        <path d="M27.333 19.028c0-.753-.368-1.37-.977-1.743.564-.388.977-.977.977-1.65 0-1.182-.96-2.142-2.141-2.142h-8.296c.61-1.62 1.679-4.598 1.61-6.97-.037-1.255-.883-2.334-2.014-2.563-.865-.177-2.035.17-2.721 1.665l-.282.615c-.997 2.197-2.364 5.207-4.677 7.373-.285.27-.576.519-.884.758h-1.25c-1.111 0-2.011.9-2.011 2.01v9.69c0 1.112.9 2.012 2.01 2.012h17.459a2.132 2.132 0 0 0 2.132-2.132v-.16c0-.575-.23-1.098-.61-1.482.203-.113.365-.252.506-.393a2.11 2.11 0 0 0 .621-1.503c0-.588-.237-1.12-.622-1.506.242-.112.41-.247.537-.364.403-.376.633-.928.633-1.515z" fill="#FFF"/>
        <path d="M27.333 19.028c0-.753-.368-1.37-.977-1.743.564-.388.977-.977.977-1.65 0-1.182-.96-2.142-2.141-2.142h-8.296c.61-1.62 1.679-4.598 1.61-6.97-.037-1.255-.883-2.334-2.014-2.563-.865-.177-2.035.17-2.721 1.665l-.282.615c-.997 2.197-2.364 5.207-4.677 7.373-.285.27-.576.519-.884.758h-1.25c-1.111 0-2.011.9-2.011 2.01v9.69c0 1.112.9 2.012 2.01 2.012h17.459a2.132 2.132 0 0 0 2.132-2.132v-.16c0-.575-.23-1.098-.61-1.482.203-.113.365-.252.506-.393a2.11 2.11 0 0 0 .621-1.503c0-.588-.237-1.12-.622-1.506.242-.112.41-.247.537-.364.403-.376.633-.928.633-1.515z" stroke="#16171D"/>
    </g>
</svg>
