<svg width="32" height="32" viewBox="0 0 32 32" xmlns="http://www.w3.org/2000/svg">
    <g fill="none" fill-rule="evenodd">
        <circle fill="#F57153" cx="16" cy="16" r="16"/>
        <g stroke="#FFF" stroke-linecap="round" stroke-linejoin="round">
            <path d="M18.447 21.163H10.8c-.74 0-1.338-.6-1.338-1.34v-10.4c0-.74.599-1.34 1.338-1.34h7.648c.74 0 1.34.6 1.34 1.34v10.4c0 .74-.6 1.34-1.34 1.34z"/>
            <path d="M19.786 10.837h1.56c.657 0 1.194.538 1.194 1.194v10.692c0 .657-.537 1.194-1.195 1.194h-7.937a1.198 1.198 0 0 1-1.194-1.194v-1.56"/>
        </g>
    </g>
</svg>
