<svg width="32" height="32" viewBox="0 0 32 32" xmlns="http://www.w3.org/2000/svg">
    <g fill="none" fill-rule="evenodd">
        <path d="M23.156 13.25c0 5.473-4.437 9.912-9.912 9.912-5.473 0-9.91-4.44-9.91-9.912 0-5.474 4.437-9.912 9.91-9.912 5.475 0 9.912 4.438 9.912 9.912z" fill="#FFF"/>
        <g stroke="#16171D" stroke-linecap="round">
            <path d="M23.156 13.25c0 5.473-4.437 9.912-9.912 9.912-5.473 0-9.91-4.44-9.91-9.912 0-5.474 4.437-9.912 9.91-9.912 5.475 0 9.912 4.438 9.912 9.912zM28.183 28.178h0a1.651 1.651 0 0 1-2.336 0l-3.894-3.893a1.651 1.651 0 1 1 2.336-2.336l3.894 3.893c.645.645.645 1.69 0 2.336z" stroke-linejoin="round"/>
            <path d="m21.953 21.949-1.702-1.692"/>
        </g>
    </g>
</svg>
