<svg width="64" height="64" viewBox="0 0 64 64" xmlns="http://www.w3.org/2000/svg">
    <g stroke="#16171D" stroke-linecap="round" stroke-linejoin="round" fill="none" fill-rule="evenodd">
        <path d="M56 6.273v4.776M56 38.336V33.56M56 48.032v-4.776M56 57.727V52.95M49.932 14.382l-3.306-3.307c-2.606-2.605-6.96-2.293-10.446 1.19L8.66 39.786c-1.421 1.421-.642 6.73 3.275 10.648l.973.97M30.608 17.838l-4.918-2.136"/>
        <path d="M34.065 30.25c-1.888-1.889-4.4-3.185-5.288-3.526-.304-2.288.24-7.293 1.762-8.816 2.21.939 7.574 5.81 8.814 7.053M34.065 30.25c1.888 1.887 3.184 4.4 3.525 5.287 2.288.304 7.293-.24 8.816-1.762-.939-2.211-5.81-7.574-7.053-8.814M28.775 26.723l-8.992 8.992a2.242 2.242 0 0 0 0 3.174l5.643 5.642a2.247 2.247 0 0 0 3.173 0l8.992-8.992"/>
        <path d="m49.932 14.382 3.307 3.306c2.605 2.606 2.293 6.96-1.19 10.446 0 0-26.098 26.096-27.52 27.52-1.423 1.424-6.733.642-10.65-3.275l-.97-.973M46.476 33.706l2.136 4.917"/>
    </g>
</svg>
