<svg width="32" height="32" viewBox="0 0 32 32" xmlns="http://www.w3.org/2000/svg">
    <g fill="none" fill-rule="evenodd">
        <path d="M26.134 16a10.1 10.1 0 0 0-.108-1.4l1.844-1.721a1.07 1.07 0 0 0 .196-1.315l-2.191-3.795a1.069 1.069 0 0 0-1.237-.488l-1.908.583c-.318.096-.654.03-.924-.16-.48-.337-.99-.633-1.526-.884a1.065 1.065 0 0 1-.598-.72l-.45-1.94a1.07 1.07 0 0 0-1.041-.827h-4.383c-.496 0-.928.343-1.04.827l-.45 1.94c-.075.323-.3.58-.6.72-.534.25-1.043.547-1.523.884-.27.19-.608.256-.925.16l-1.907-.583a1.068 1.068 0 0 0-1.237.488l-2.191 3.795c-.25.43-.168.976.196 1.315L5.974 14.6a10.31 10.31 0 0 0-.107 1.4c0 .476.044.941.107 1.4L4.13 19.121a1.066 1.066 0 0 0-.196 1.315l2.19 3.795c.249.43.762.633 1.238.488l1.907-.583c.317-.096.654-.03.925.16.48.337.99.633 1.524.884.3.14.524.397.599.72l.45 1.94c.112.484.544.827 1.04.827h4.383a1.07 1.07 0 0 0 1.041-.827l.45-1.94c.074-.323.3-.58.598-.72.536-.25 1.046-.547 1.526-.884.27-.19.606-.256.924-.16l1.908.583c.476.145.988-.058 1.237-.488l2.19-3.795a1.07 1.07 0 0 0-.195-1.315L26.026 17.4a10.1 10.1 0 0 0 .108-1.4z" fill="#FFF"/>
        <path d="M19.8 16a3.8 3.8 0 1 1-7.6 0 3.8 3.8 0 0 1 7.6 0z" stroke="#16171D" stroke-linecap="round" stroke-linejoin="round"/>
        <path d="M26.134 16a10.1 10.1 0 0 0-.108-1.4l1.844-1.721a1.07 1.07 0 0 0 .196-1.315l-2.191-3.795a1.069 1.069 0 0 0-1.237-.488l-1.908.583c-.318.096-.654.03-.924-.16-.48-.337-.99-.633-1.526-.884a1.065 1.065 0 0 1-.598-.72l-.45-1.94a1.07 1.07 0 0 0-1.041-.827h-4.383c-.496 0-.928.343-1.04.827l-.45 1.94c-.075.323-.3.58-.6.72-.534.25-1.043.547-1.523.884-.27.19-.608.256-.925.16l-1.907-.583a1.068 1.068 0 0 0-1.237.488l-2.191 3.795c-.25.43-.168.976.196 1.315L5.974 14.6a10.31 10.31 0 0 0-.107 1.4c0 .476.044.941.107 1.4L4.13 19.121a1.066 1.066 0 0 0-.196 1.315l2.19 3.795c.249.43.762.633 1.238.488l1.907-.583c.317-.096.654-.03.925.16.48.337.99.633 1.524.884.3.14.524.397.599.72l.45 1.94c.112.484.544.827 1.04.827h4.383a1.07 1.07 0 0 0 1.041-.827l.45-1.94c.074-.323.3-.58.598-.72.536-.25 1.046-.547 1.526-.884.27-.19.606-.256.924-.16l1.908.583c.476.145.988-.058 1.237-.488l2.19-3.795a1.07 1.07 0 0 0-.195-1.315L26.026 17.4a10.1 10.1 0 0 0 .108-1.4z" stroke="#16171D" stroke-linecap="round" stroke-linejoin="round"/>
    </g>
</svg>
