<svg width="32" height="32" viewBox="0 0 32 32" xmlns="http://www.w3.org/2000/svg">
    <g fill="none" fill-rule="evenodd">
        <path d="M25.333 28.224H6.667A2.667 2.667 0 0 1 4 25.557V6.442a2.668 2.668 0 0 1 2.667-2.666h18.666A2.667 2.667 0 0 1 28 6.444v19.113a2.666 2.666 0 0 1-2.667 2.667z" fill="#FFF"/>
        <g stroke="#16171D" stroke-linecap="round">
            <path d="M25.333 28.224H6.667A2.667 2.667 0 0 1 4 25.557V6.442a2.668 2.668 0 0 1 2.667-2.666h18.666A2.667 2.667 0 0 1 28 6.444v19.113a2.666 2.666 0 0 1-2.667 2.667zM4 7.13h24M4 24.869h24"/>
        </g>
        <g stroke="#16171D" stroke-linecap="round">
            <path d="M16 21.267V10.65M22.085 21.018V10.402M9.904 21.267V10.65"/>
        </g>
    </g>
</svg>
