<svg width="64" height="64" viewBox="0 0 64 64" xmlns="http://www.w3.org/2000/svg">
    <g fill="none" fill-rule="evenodd">
        <path d="M52 52.76H12a5.332 5.332 0 0 1-5.333-5.334V16.573A5.334 5.334 0 0 1 12 11.24h40a5.334 5.334 0 0 1 5.333 5.333v30.853A5.332 5.332 0 0 1 52 52.76z" stroke="#16171D" stroke-linecap="round" stroke-linejoin="round"/>
        <path fill="#16171D" d="M26.301 31.983H24.46l-.512 1.419h1.84zM22.583 30.155l-2.074 5.723h1.77l2.078-5.723zM19.575 30.01c-.784 0-1.456.334-2.062.913l1.403-3.925h-1.77l-3.177 8.88h1.771l.979-2.736c.776-1.763 1.52-1.974 1.834-1.974.475 0 .99.216.416 1.963l-1.005 2.747h1.773l1.011-2.763c.821-2.088-.099-3.104-1.173-3.104M30.29 33.322c-.96 1.739-1.83 1.797-2.579 1.797 0 0 .123-.56.656-1.826.8-1.902 1.464-2.126 1.792-2.126.326 0 1.184.24.131 2.155m.885-3.312c-.749 0-1.346.312-1.898.848l.261-.704h-1.773l-3.123 8.443h1.77l1-2.707c.182.016.371.03.574.03 1.301 0 3.27-.62 4.253-2.806.92-2.043.011-3.104-1.064-3.104M46.988 32.722c-.574-.59-.99-.944-.963-1.24.024-.296.352-.648 1.003-.648.65 0 1.293.3 1.293.3l.315-.802s-.526-.408-1.592-.413c-1.65-.008-2.723.773-2.862 1.768-.085.624.302 1.005.771 1.49.179.187.363.355.533.547.315.35.472.707.184 1.048-.224.267-.706.342-1.034.31-.8-.075-1.267-.472-1.267-.472l-.603.914s.702.568 1.963.534c1.973-.06 2.808-1.19 2.856-2.008.032-.502-.128-.846-.597-1.328M36.634 32.623c-1 1.902-1.688 2.126-2.013 2.126-.325 0-1.096-.587.048-2.2 1.048-1.486 2.232-1.755 2.813-1.755 0 0-.18.56-.848 1.83m.624-2.558c-1.413.016-3.485.736-4.549 2.803-1.061 2.066-.283 3.157.795 3.157 1.066 0 1.83-.573 2.706-1.69l-.56 1.54h1.774l1.92-5.357s-.782-.469-2.086-.453M42.317 32.722c-.576-.59-.99-.944-.966-1.24.027-.296.352-.648 1.003-.648.653 0 1.12.234 1.12.234l.488-.736s-.523-.408-1.59-.413c-1.653-.008-2.722.773-2.86 1.768-.089.624.3 1.005.77 1.49.176.187.36.355.533.547.312.35.47.707.182 1.048-.224.267-.704.342-1.032.31-.8-.075-1.27-.472-1.27-.472l-.602.914s.7.568 1.962.534c1.974-.06 2.81-1.19 2.859-2.008.03-.502-.13-.846-.597-1.328M33.313 25.973c2.25-.059 4.493.179 6.744.208 1.816.024 3.65-.024 5.458-.235.832-.096 1.71-.24 2.496-.54 0 0-3.397 1.815-9.845 1.834-4.23.01-8.283-.206-12.413 1.048-.968.296-1.699.581-2.87 1.306.07-.048.651-.82 1.816-1.6 1.67-1.12 3.934-1.61 5.902-1.837.893-.101 1.8-.16 2.712-.184"/>
        <path d="M22.965 29.692c-.022.013 2.576-1.784 8.186-2.166 2.326-.12 2.352-.12 4.771-.09-.035-.003 7.6.35 11.917-1.776-.21.104-.408.237-.616.346-.517.278-1.053.528-1.597.755-1.01.421-2.056.75-3.115.997-1.6.374-3.218.566-4.81.675-2.048.141-4.059.147-6.032.147-2.182-.003-4.334.101-6.515.55-.368.076-.739.14-1.107.234-.322.082-.77.154-1.082.328" fill="#16171D"/>
    </g>
</svg>
