<svg width="24" height="24" viewBox="0 0 24 24" xmlns="http://www.w3.org/2000/svg">
    <g stroke="#B70F28" stroke-linecap="round" stroke-linejoin="round" fill="none" fill-rule="evenodd">
        <path d="m8.081 9.012 1.405-1.405a1.286 1.286 0 0 0 0-1.818L7.573 3.876a1.284 1.284 0 0 0-1.817 0L4.032 5.6"/>
        <path d="M4.033 5.6c-1.557 1.557.415 6.048 4.408 10.04M8.081 9.012c-.588.588.48 2.61 2.39 4.518M14.988 15.919l1.405-1.405a1.286 1.286 0 0 1 1.818 0l1.913 1.913a1.284 1.284 0 0 1 0 1.817L18.4 19.968"/>
        <path d="M18.4 19.967c-1.557 1.557-6.048-.415-10.04-4.408M14.988 15.919c-.588.588-2.61-.48-4.518-2.39"/>
    </g>
</svg>
