<svg width="24" height="24" viewBox="0 0 24 24" xmlns="http://www.w3.org/2000/svg">
    <g stroke="#16171D" stroke-linecap="round" stroke-linejoin="round" fill="none" fill-rule="evenodd">
        <path d="M16.24 15.587h1.681c.872 0 1.579-.708 1.579-1.58v-3.896c0-.257-.076-.508-.218-.722l-.613-.923a1.58 1.58 0 0 0-1.316-.705H6.65c-.529 0-1.022.263-1.316.703l-.616.925c-.142.213-.219.465-.219.723v3.896a1.58 1.58 0 0 0 1.58 1.579H7.76"/>
        <path d="M16.24 7.76H7.76V6.079c0-.871.707-1.578 1.578-1.578h5.322c.872 0 1.578.707 1.578 1.578v1.683zM14.661 19.5H9.34a1.578 1.578 0 0 1-1.578-1.578V13.63h8.478v4.292c0 .871-.706 1.578-1.578 1.578zM9.718 15.587h4.565M9.718 17.543h3.26M6.457 13.63h11.086"/>
    </g>
</svg>
