<svg width="64" height="64" viewBox="0 0 64 64" xmlns="http://www.w3.org/2000/svg">
    <g fill="none" fill-rule="evenodd">
        <g fill="#E2E8EE">
            <path d="m41.311 49.017-.57 1.16c-.497 1.009-1.624 1.494-2.66 1.145l-1.195-.401a2.144 2.144 0 0 0-1.368 0l-1.194.4c-1.037.35-2.165-.135-2.66-1.143l-.571-1.161c-.038-.076-.099-.134-.143-.205v11.35l5.252-2.728 5.252 2.728v-11.35c-.044.071-.106.13-.143.205z"/>
            <path d="M44.111 43.417a2.39 2.39 0 0 1 0-1.42l.387-1.24c.336-1.077-.132-2.248-1.102-2.762l-1.118-.594a2.26 2.26 0 0 1-.967-1.004l-.57-1.16c-.497-1.008-1.624-1.493-2.66-1.144l-1.195.4c-.445.15-.924.15-1.368 0l-1.194-.4c-1.037-.349-2.165.136-2.66 1.144l-.571 1.16a2.264 2.264 0 0 1-.967 1.004l-1.118.594c-.97.514-1.437 1.685-1.102 2.762l.387 1.24a2.39 2.39 0 0 1 0 1.42l-.387 1.24c-.335 1.077.132 2.248 1.102 2.763l1.118.593c.416.22.755.572.967 1.004l.57 1.16c.496 1.009 1.624 1.493 2.661 1.145l1.194-.402c.444-.15.923-.15 1.368 0l1.194.402c1.037.348 2.164-.136 2.66-1.144l.571-1.161a2.26 2.26 0 0 1 .967-1.004l1.118-.593c.97-.515 1.438-1.686 1.102-2.763l-.387-1.24z"/>
        </g>
        <g fill="#FFF">
            <path d="M13.09 5.616c-2.31 0-4.201 1.964-4.201 4.364v41.454c0 2.4 1.89 4.364 4.202 4.364H30.95v-6.985c.044.07.105.128.143.204a2.266 2.266 0 0 0-.967-1.004l-1.118-.593c-.97-.515-1.438-1.686-1.102-2.763l.387-1.24a2.39 2.39 0 0 0 0-1.42l-.387-1.24c-.336-1.077.132-2.247 1.102-2.762l1.118-.594a2.26 2.26 0 0 0 .967-1.003l.57-1.161c.497-1.008 1.624-1.494 2.661-1.144l1.194.4c.445.15.923.15 1.368 0l1.194-.4c1.037-.35 2.164.136 2.66 1.144l.571 1.16c.213.433.552.784.967 1.004l1.118.594c.97.515 1.438 1.685 1.102 2.762l-.387 1.24a2.39 2.39 0 0 0 0 1.42l.387 1.24c.336 1.077-.132 2.248-1.102 2.763l-1.118.593a2.27 2.27 0 0 0-.967 1.004c.038-.076.099-.134.143-.204v6.985h3.152c2.311 0 4.202-1.963 4.202-4.364V8.889c0-1.807 1.411-3.273 3.152-3.273H13.09z"/>
            <path d="M51.96 5.616c-1.74 0-3.152 1.465-3.152 3.273v5.454h6.303V8.89c0-1.808-1.411-3.273-3.151-3.273z"/>
        </g>
        <g stroke="#16171D" stroke-linecap="round" stroke-linejoin="round">
            <path d="M13.09 5.616c-2.31 0-4.201 1.964-4.201 4.364v41.454c0 2.4 1.89 4.364 4.202 4.364H30.95v-6.985c.044.07.105.128.143.204a2.266 2.266 0 0 0-.967-1.004l-1.118-.593c-.97-.515-1.438-1.686-1.102-2.763l.387-1.24a2.39 2.39 0 0 0 0-1.42l-.387-1.24c-.336-1.077.132-2.247 1.102-2.762l1.118-.594a2.26 2.26 0 0 0 .967-1.003l.57-1.161c.497-1.008 1.624-1.494 2.661-1.144l1.194.4c.445.15.923.15 1.368 0l1.194-.4c1.037-.35 2.164.136 2.66 1.144l.571 1.16c.213.433.552.784.967 1.004l1.118.594c.97.515 1.438 1.685 1.102 2.762l-.387 1.24a2.39 2.39 0 0 0 0 1.42l.387 1.24c.336 1.077-.132 2.248-1.102 2.763l-1.118.593a2.27 2.27 0 0 0-.967 1.004c.038-.076.099-.134.143-.204v6.985h3.152c2.311 0 4.202-1.963 4.202-4.364V8.889c0-1.807 1.411-3.273 3.152-3.273H13.09z"/>
            <path d="M51.96 5.616c-1.74 0-3.152 1.465-3.152 3.273v5.454h6.303V8.89c0-1.808-1.411-3.273-3.151-3.273zM41.311 49.017l-.57 1.16c-.497 1.009-1.624 1.494-2.66 1.145l-1.195-.401a2.144 2.144 0 0 0-1.368 0l-1.194.4c-1.037.35-2.165-.135-2.66-1.143l-.571-1.161c-.038-.076-.099-.134-.143-.205v11.35l5.252-2.728 5.252 2.728v-11.35c-.044.071-.106.13-.143.205z"/>
            <path d="M44.111 43.417a2.39 2.39 0 0 1 0-1.42l.387-1.24c.336-1.077-.132-2.248-1.102-2.762l-1.118-.594a2.26 2.26 0 0 1-.967-1.004l-.57-1.16c-.497-1.008-1.624-1.493-2.66-1.144l-1.195.4c-.445.15-.924.15-1.368 0l-1.194-.4c-1.037-.349-2.165.136-2.66 1.144l-.571 1.16a2.264 2.264 0 0 1-.967 1.004l-1.118.594c-.97.514-1.437 1.685-1.102 2.762l.387 1.24a2.39 2.39 0 0 1 0 1.42l-.387 1.24c-.335 1.077.132 2.248 1.102 2.763l1.118.593c.416.22.755.572.967 1.004l.57 1.16c.496 1.009 1.624 1.493 2.661 1.145l1.194-.402c.444-.15.923-.15 1.368 0l1.194.402c1.037.348 2.164-.136 2.66-1.144l.571-1.161a2.26 2.26 0 0 1 .967-1.004l1.118-.593c.97-.515 1.438-1.686 1.102-2.763l-.387-1.24z"/>
        </g>
        <g stroke="#B70F28" stroke-linecap="round" stroke-linejoin="round">
            <path d="M17.293 17.67h23.11v-.108h-23.11zM17.293 26.397h23.11v-.108h-23.11zM17.293 35.125h7.017v-.108h-7.017zM17.293 43.852h4.202v-.108h-4.202z"/>
        </g>
    </g>
</svg>
