<svg width="64" height="64" viewBox="0 0 64 64" xmlns="http://www.w3.org/2000/svg">
    <g fill="none" fill-rule="evenodd">
        <path d="M57.156 42.65v10.193a3.727 3.727 0 0 1-3.727 3.727H10.57a3.727 3.727 0 0 1-3.727-3.727V42.65" fill="#E2E8EE"/>
        <g fill="#FFF" stroke="#FFF" stroke-linecap="round" stroke-linejoin="round">
            <path d="M20.594 38.26a17.55 17.55 0 0 1-6.18-13.388c0-9.715 7.871-17.587 17.586-17.587 9.711 0 17.585 7.872 17.585 17.587a17.548 17.548 0 0 1-6.177 13.383"/>
            <path d="M49.073 29.094h4.355a3.726 3.726 0 0 1 3.727 3.727v10.863a3.726 3.726 0 0 1-3.727 3.727H10.571a3.727 3.727 0 0 1-3.727-3.727V32.821a3.727 3.727 0 0 1 3.727-3.727h4.356"/>
        </g>
        <g stroke="#16171D" stroke-linecap="round" stroke-linejoin="round">
            <path d="M20.594 38.26a17.55 17.55 0 0 1-6.18-13.388c0-9.715 7.871-17.587 17.586-17.587 9.711 0 17.585 7.872 17.585 17.587a17.548 17.548 0 0 1-6.177 13.383"/>
            <path d="M49.073 29.094h4.355a3.726 3.726 0 0 1 3.727 3.727v10.863a3.726 3.726 0 0 1-3.727 3.727H10.571a3.727 3.727 0 0 1-3.727-3.727V32.821a3.727 3.727 0 0 1 3.727-3.727h4.356"/>
            <path d="M57.156 42.65v10.193a3.727 3.727 0 0 1-3.727 3.727H10.57a3.727 3.727 0 0 1-3.727-3.727V42.65M14.506 38.254h34.987"/>
        </g>
        <g stroke="#B70F28" stroke-linecap="round" stroke-linejoin="round">
            <path d="m25.364 19.873 3.182 10.12 3.46-7.84 3.527 7.821 3.046-10.107M37.444 23.613h3.085M23.47 23.613h3.072"/>
        </g>
    </g>
</svg>
