<svg width="64" height="64" viewBox="0 0 64 64" xmlns="http://www.w3.org/2000/svg">
    <g fill="none" fill-rule="evenodd">
        <path d="M56.896 15.783a8.42 8.42 0 0 1-8.42 8.42 8.42 8.42 0 1 1 0-16.84 8.42 8.42 0 0 1 8.42 8.42z" fill="#E2E8EE"/>
        <g fill="#FFF">
            <path d="M57.778 47.336a9.301 9.301 0 1 1-18.603 0 9.301 9.301 0 0 1 18.603 0zM29.798 44.588c0 6.51-5.277 11.788-11.787 11.788-6.512 0-11.789-5.278-11.789-11.788 0-6.51 5.277-11.787 11.789-11.787 6.51 0 11.787 5.277 11.787 11.787z"/>
        </g>
        <g stroke="#B70F28">
            <path d="M53.263 47.336a4.786 4.786 0 1 1-9.572 0 4.786 4.786 0 0 1 9.572 0zM23.018 44.588a5.008 5.008 0 1 1-10.016 0 5.008 5.008 0 0 1 10.016 0z"/>
        </g>
        <g stroke="#16171D">
            <path d="M56.896 15.783a8.42 8.42 0 0 1-8.42 8.42 8.42 8.42 0 1 1 0-16.84 8.42 8.42 0 0 1 8.42 8.42zM57.778 47.336a9.301 9.301 0 1 1-18.603 0 9.301 9.301 0 0 1 18.603 0zM29.798 44.588c0 6.51-5.277 11.788-11.787 11.788-6.512 0-11.789-5.278-11.789-11.788 0-6.51 5.277-11.787 11.789-11.787 6.51 0 11.787 5.277 11.787 11.787z"/>
            <path d="M50.17 15.783a1.693 1.693 0 1 1-3.386 0 1.693 1.693 0 0 1 3.385 0zM55.897 19.763v21.965M41.7 53.707H25.48M40.261 13.93 21.006 33.184"/>
        </g>
    </g>
</svg>
