<svg width="42" height="56" viewBox="0 0 42 56" xmlns="http://www.w3.org/2000/svg">
    <g fill="none" fill-rule="evenodd">
        <path d="M18.841 54.877C2.95 31.838 0 29.474 0 21 0 9.403 9.402 0 21 0s21 9.403 21 21c0 8.467-2.95 10.832-18.841 33.87a2.627 2.627 0 0 1-4.316 0l-.002.007z" fill="#16171D"/>
        <circle cx="16" cy="16" r="16" transform="translate(5 5)" fill="#FFF"/>
        <g fill-rule="nonzero">
            <path d="M27.94 14.002c-3.65.281-6.557 3.068-6.851 6.56-.027.32.251.586.586.586h6.291a.572.572 0 0 0 .586-.561v-6.024a.57.57 0 0 0-.613-.561z" fill="#D7282F"/>
            <path d="M21.086 22.439c.295 3.493 3.205 6.278 6.85 6.56a.568.568 0 0 0 .613-.562v-6.024c0-.31-.26-.56-.585-.56h-6.292c-.332 0-.612.266-.586.586z" fill="#B2B2B2"/>
            <path d="M19.765 14.107h-6.177a.576.576 0 0 0-.588.563v5.914c0 .31.262.564.588.564h6.177a.576.576 0 0 0 .588-.564V14.67a.578.578 0 0 0-.588-.563z" fill="#D7282F"/>
            <path d="M19.765 21.852h-6.177a.576.576 0 0 0-.588.564v5.914c0 .31.262.563.588.563h6.177a.576.576 0 0 0 .588-.563v-5.914a.576.576 0 0 0-.588-.564z" fill="#B2B2B2"/>
        </g>
    </g>
</svg>
