<svg width="24" height="24" viewBox="0 0 24 24" xmlns="http://www.w3.org/2000/svg">
    <g stroke="#FFF" stroke-linecap="round" stroke-linejoin="round" fill="none" fill-rule="evenodd">
        <path d="M12.182 18.82h8.659c.07 0 .09-.097.024-.121a2.09 2.09 0 0 1-1.383-1.967v-4.847c0-3.14-1.792-6.122-4.72-7.258a7.56 7.56 0 0 0-2.58-.507v-.01c-.061 0-.121.005-.182.005-.06 0-.121-.005-.182-.005v.01a7.56 7.56 0 0 0-2.581.507C6.31 5.763 4.519 8.746 4.519 11.885v4.847a2.09 2.09 0 0 1-1.384 1.967c-.067.024-.047.122.024.122h9.023zM14.29 19.243a2.306 2.306 0 0 1-4.612 0M13.398 3.914a1.414 1.414 0 1 0-2.83 0"/>
    </g>
</svg>
