<svg width="16" height="16" viewBox="0 0 16 16" xmlns="http://www.w3.org/2000/svg">
    <g stroke="#16171D" stroke-linecap="round" stroke-linejoin="round" fill="none" fill-rule="evenodd">
        <path d="M7.334 2.905a4.316 4.316 0 0 1 5.41.55 4.32 4.32 0 0 1 .564 5.39"/>
        <path d="M8.31 4.385a2.53 2.53 0 0 1 3.513 3.492M4.972 6.348l.912-.912a.834.834 0 0 0 0-1.179l-1.24-1.241a.833.833 0 0 0-1.18 0L2.346 4.134M2.346 4.134c-1.01 1.01.269 3.924 2.86 6.514M4.972 6.348c-.38.382.312 1.693 1.55 2.931M9.454 10.829l.912-.912a.834.834 0 0 1 1.178 0l1.242 1.241a.833.833 0 0 1 0 1.18l-1.118 1.118"/>
        <path d="M11.668 13.456c-1.01 1.01-3.924-.27-6.515-2.86M9.454 10.829c-.382.381-1.693-.311-2.932-1.55"/>
    </g>
</svg>
