<svg width="44" height="44" viewBox="0 0 44 44" xmlns="http://www.w3.org/2000/svg">
    <g fill="none" fill-rule="evenodd">
        <path d="M0 44h44V0H0z"/>
        <path d="M31.985 7.15H7.792A2.842 2.842 0 0 0 4.95 9.992V28.22a2.842 2.842 0 0 0 2.842 2.842h28.416a2.842 2.842 0 0 0 2.842-2.842V9.991a2.842 2.842 0 0 0-2.842-2.841h-4.223" fill="#FFF"/>
        <path d="M4.95 25.563v3.244c0 .361.864 2.255 2.842 2.256h28.416c1.913 0 2.842-1.895 2.842-2.256V25.563H4.95z" fill="#E2E8EE"/>
        <g stroke="#16171D" stroke-linecap="round" stroke-linejoin="round">
            <path d="M31.985 7.15H7.792A2.842 2.842 0 0 0 4.95 9.992V28.22a2.842 2.842 0 0 0 2.842 2.842h28.416a2.842 2.842 0 0 0 2.842-2.842V9.991a2.842 2.842 0 0 0-2.842-2.841h-4.223M39.05 25.497H4.95M22 36.439h-9.032M17.119 31.062l-1.463 5.377M21.363 36.439h9.032M26.244 31.062l1.462 5.377"/>
        </g>
        <g>
            <path d="m20.855 17.464 1.4-1.606h-.914l-1.15 1.37v-1.37h-.778v3.4h.778V17.77l.888 1.147a.885.885 0 0 0 .7.342h.53l-1.454-1.794zM27.935 18.111v.158c0 .355-.235.577-.614.577-.158 0-.393-.107-.393-.336 0-.354.489-.407.78-.407.046 0 .092.002.138.004l.09.004m.553.62v-.995c0-.717-.324-1.05-1.022-1.05-.284 0-.56.078-.82.233l-.03.018.004.052c.005.09.054.171.13.22a.271.271 0 0 0 .247.024c.13-.052.268-.078.398-.078.37 0 .524.145.538.513-.146-.006-.262-.006-.415-.006-.436 0-1.174.178-1.174.848 0 .511.342.805.938.805a.953.953 0 0 0 .72-.304c.05.144.186.247.346.247h.168l-.009-.062a3.916 3.916 0 0 1-.019-.465M30.217 16.717a1.268 1.268 0 0 0-.294-.032c-.228 0-.462.135-.607.34a.429.429 0 0 0-.402-.283h-.098v2.517h.554v-1.15c0-.563.236-.926.6-.926.087 0 .163.013.224.038l.077.032v-.525l-.054-.01zM26.112 18.496l-.046.022s-.071.035-.096.045c-.183.082-.461.144-.647.144-.639 0-1.103-.484-1.103-1.148 0-.676.463-1.149 1.126-1.149.097 0 .195.012.287.035a.411.411 0 0 0 .509-.368l.008-.1-.067-.03a1.854 1.854 0 0 0-.76-.145c-1.056 0-1.793.716-1.793 1.743 0 1.075.702 1.77 1.788 1.77.314 0 .573-.041.768-.123l.067-.027-.04-.669z" fill="#B70F28"/>
            <path fill="#B70F28" d="M21.96 17.898h1.12v-.537h-1.12zM17.774 15.437a2.028 2.028 0 0 0-1.856 1.855.157.157 0 0 0 .16.166h1.703c.088 0 .158-.07.158-.159v-1.703a.157.157 0 0 0-.165-.159"/>
            <path d="M15.919 17.823c.08.987.867 1.774 1.855 1.855a.157.157 0 0 0 .165-.16v-1.703a.158.158 0 0 0-.158-.158h-1.704a.157.157 0 0 0-.158.166" fill="#B1B3B2"/>
            <path d="M15.56 15.467H13.89a.159.159 0 0 0-.16.16v1.671c0 .089.071.16.16.16h1.672c.088 0 .159-.071.159-.16v-1.672a.159.159 0 0 0-.16-.159" fill="#B70F28"/>
            <path d="M15.56 17.657H13.89a.159.159 0 0 0-.16.159v1.672c0 .088.071.16.16.16h1.672c.088 0 .159-.072.159-.16v-1.672a.159.159 0 0 0-.16-.16" fill="#B1B3B2"/>
        </g>
    </g>
</svg>
