<svg width="44" height="44" viewBox="0 0 44 44" xmlns="http://www.w3.org/2000/svg">
    <g fill="none" fill-rule="evenodd">
        <g fill="#FFF">
            <path d="M30.707 31.695V9.646a2.654 2.654 0 0 0-2.654-2.654H6.321a2.655 2.655 0 0 0-2.654 2.655v25.858a2.654 2.654 0 0 0 2.654 2.654h24.386"/>
            <path d="M30.238 38.01h6.593v1.236c0 .455.37.824.825.824h1.648c.455 0 .825-.37.825-.824V32.652a3.297 3.297 0 0 0-3.298-3.297H23.606a3.297 3.297 0 0 0-3.297 3.297V39.246c0 .455.369.824.825.824h1.648c.455 0 .824-.37.824-.824V38.01h6.632z"/>
            <path d="m21.958 29.356 1.376-3.856a2.886 2.886 0 0 1 2.717-1.914h8.297c1.22 0 2.307.767 2.717 1.914l1.377 3.856"/>
        </g>
        <path d="M24.704 6.929a3.026 3.026 0 0 1-3.027 3.026H12.53a3.026 3.026 0 1 1 0-6.053h9.147a3.026 3.026 0 0 1 3.027 3.027z" fill="#E2E8EE"/>
        <path d="M30.69 23.586V9.598a2.67 2.67 0 0 0-2.669-2.67h-3.317" stroke="#16171D" stroke-linecap="round" stroke-linejoin="round"/>
        <path d="M18.216 38.27h2.093"/>
        <path d="M9.503 6.929H6.167a2.67 2.67 0 0 0-2.67 2.669V35.6a2.669 2.669 0 0 0 2.67 2.67h14.142" stroke="#16171D" stroke-linecap="round" stroke-linejoin="round"/>
        <path d="M24.704 6.929a3.026 3.026 0 0 1-3.027 3.026H12.53a3.026 3.026 0 1 1 0-6.053h9.147a3.026 3.026 0 0 1 3.027 3.027zM30.238 38.01h6.593v1.236c0 .455.37.824.825.824h1.648c.455 0 .825-.37.825-.824V32.652a3.297 3.297 0 0 0-3.298-3.297H23.606a3.297 3.297 0 0 0-3.297 3.297V39.246c0 .455.369.824.825.824h1.648c.455 0 .824-.37.824-.824V38.01h6.632z" stroke="#16171D" stroke-linecap="round" stroke-linejoin="round"/>
        <path d="m21.958 29.356 1.376-3.856a2.886 2.886 0 0 1 2.717-1.914h8.297c1.22 0 2.307.767 2.717 1.914l1.377 3.856M24.842 32.477h-1.648a.824.824 0 0 0-.824.824v.824c0 .456.368.824.824.824h1.648a1.236 1.236 0 1 0 0-2.472zM35.634 32.477h1.648c.456 0 .824.37.824.824v.824a.823.823 0 0 1-.824.824h-1.648a1.236 1.236 0 1 1 0-2.472zM20.705 27.559h.444c.447 0 .808.362.808.808v1.252h-1.656a.404.404 0 0 1-.404-.404v-.848c0-.446.362-.808.808-.808zM39.694 27.559h-.444a.808.808 0 0 0-.808.808v1.252h1.656c.223 0 .404-.18.404-.404v-.848a.809.809 0 0 0-.808-.808z" stroke="#16171D" stroke-linecap="round" stroke-linejoin="round"/>
        <g stroke="#B70F28" stroke-linecap="round" stroke-linejoin="round">
            <path d="M20.94 21.81a4.013 4.013 0 1 1-8.026-.001 4.013 4.013 0 0 1 8.026 0zM15.232 21.71l1.197 1.197M16.428 22.907l2.196-2.195"/>
        </g>
    </g>
</svg>
