<svg width="44" height="44" viewBox="0 0 44 44" xmlns="http://www.w3.org/2000/svg">
    <g fill="none" fill-rule="evenodd">
        <path d="M0 44h44V0H0z"/>
        <g fill="#FFF">
            <path d="M3.797 9.778c-.747 0-1.353.605-1.353 1.352v19.525c0 .747.606 1.353 1.353 1.353h23.608V11.13c0-.747-.605-1.352-1.352-1.352H3.797z"/>
            <path d="M38.17 19.354c-1.127-1.69-2.273-2.717-5.058-2.707h-3.698c-.74 0-1.41.052-2.009.156v12.74c0 .74-.01 1.561-.031 2.465H40.846v-8.033c0-.396-.118-.783-.338-1.113l-2.338-3.508z"/>
        </g>
        <g fill="#E2E8EE">
            <path d="M14.174 31.552a3.368 3.368 0 0 1-4.044 4.043 3.334 3.334 0 0 1-2.506-2.506 3.368 3.368 0 0 1 4.044-4.043 3.334 3.334 0 0 1 2.506 2.506zM37.44 31.551a3.368 3.368 0 0 1-4.043 4.044 3.334 3.334 0 0 1-2.506-2.506 3.369 3.369 0 0 1 4.043-4.044 3.334 3.334 0 0 1 2.506 2.506z"/>
        </g>
        <g stroke="#16171D" stroke-linecap="round" stroke-linejoin="round">
            <path d="M7.54 32.32H3.838a1.352 1.352 0 0 1-1.353-1.352V11.443c0-.746.606-1.352 1.352-1.352h22.256c.747 0 1.353.606 1.353 1.352V32.32H14.259h13.187V11.443c0-.746-.606-1.352-1.353-1.352H3.838c-.747 0-1.353.606-1.353 1.352v19.525c0 .747.606 1.352 1.353 1.352H7.54z"/>
            <path d="M30.807 32.32h-3.361V16.96h6.781c1.361 0 2.632.68 3.387 1.813l3.272 4.908v7.287c0 .747-.606 1.352-1.352 1.352h-2.008 2.008c.746 0 1.352-.605 1.352-1.352v-7.287l-3.272-4.908a4.071 4.071 0 0 0-3.387-1.813h-6.781v15.36h3.361zM14.174 31.552a3.368 3.368 0 0 1-4.044 4.043 3.334 3.334 0 0 1-2.506-2.506 3.368 3.368 0 0 1 4.044-4.043 3.334 3.334 0 0 1 2.506 2.506z"/>
            <path d="M37.44 31.551a3.368 3.368 0 0 1-4.043 4.044 3.334 3.334 0 0 1-2.506-2.506 3.369 3.369 0 0 1 4.043-4.044 3.334 3.334 0 0 1 2.506 2.506zM40.886 23.68H35.63a1.465 1.465 0 0 1-1.465-1.464V16.96M23.051 28.855h1.746-1.746zM5.094 23.68h19.703H5.094z"/>
        </g>
        <path d="m14.196 16.809 1.257-1.44h-.821L13.6 16.596v-1.229h-.7v3.052h.7v-1.337l.797 1.03c.15.193.382.307.627.307h.477l-1.305-1.611zM20.55 17.39v.142c0 .319-.21.517-.55.517-.143 0-.353-.095-.353-.301 0-.318.439-.366.7-.366.04 0 .083.002.124.005l.08.003m.497.556v-.893c0-.643-.291-.943-.917-.943-.255 0-.503.071-.737.21l-.027.016.004.047c.005.08.048.154.116.197.068.043.15.05.223.021a.988.988 0 0 1 .357-.07c.331 0 .47.13.483.461-.131-.006-.235-.006-.373-.006-.391 0-1.053.16-1.053.762 0 .459.307.723.842.723a.857.857 0 0 0 .645-.273.33.33 0 0 0 .311.221h.15l-.007-.055a3.603 3.603 0 0 1-.017-.418M22.6 16.139c-.082-.016-.145-.029-.264-.029a.694.694 0 0 0-.545.305.384.384 0 0 0-.362-.254h-.088v2.259h.498v-1.032c0-.505.212-.831.539-.831.078 0 .146.011.2.034l.07.029v-.471l-.049-.01zM18.915 17.736l-.042.02-.086.04a1.651 1.651 0 0 1-.581.128c-.573 0-.99-.433-.99-1.03 0-.607.416-1.03 1.01-1.03.089 0 .175.01.259.03a.37.37 0 0 0 .457-.33l.007-.09-.06-.026a1.658 1.658 0 0 0-.683-.131c-.948 0-1.61.644-1.61 1.565 0 .965.63 1.588 1.606 1.588.282 0 .514-.037.689-.11l.06-.024-.036-.6z" fill="#DB2730"/>
        <path fill="#DB2730" d="M15.187 17.199h1.006v-.482h-1.006zM11.429 14.99a1.82 1.82 0 0 0-1.665 1.665.14.14 0 0 0 .143.148h1.53a.142.142 0 0 0 .14-.142v-1.529a.14.14 0 0 0-.148-.142"/>
        <path d="M9.765 17.131a1.82 1.82 0 0 0 1.664 1.665.14.14 0 0 0 .15-.142v-1.53a.142.142 0 0 0-.143-.142H9.907a.14.14 0 0 0-.142.15" fill="#B1B3B2"/>
        <path d="M9.443 15.017H7.942a.143.143 0 0 0-.142.143v1.5c0 .08.063.143.142.143h1.501a.143.143 0 0 0 .143-.143v-1.5a.143.143 0 0 0-.143-.143" fill="#DB2730"/>
        <path d="M9.443 16.982H7.942a.143.143 0 0 0-.142.143v1.5c0 .08.063.144.142.144h1.501a.143.143 0 0 0 .143-.143v-1.5a.143.143 0 0 0-.143-.144" fill="#B1B3B2"/>
    </g>
</svg>
