<svg width="44" height="44" viewBox="0 0 44 44" xmlns="http://www.w3.org/2000/svg">
    <g fill="none" fill-rule="evenodd">
        <path d="M0 44h44V0H0z"/>
        <path d="M34.404 31.942h-2.24v-.202c.448.056.918.044 1.4-.062 1.292-.284 2.67-1.656 2.958-2.952a3.964 3.964 0 0 0-4.358-4.836V11.309a2.483 2.483 0 0 0-2.483-2.484H9.344a2.484 2.484 0 0 0-2.483 2.485V35.507a2.484 2.484 0 0 0 2.483 2.483H39.513a5.183 5.183 0 0 0-5.109-6.048" fill="#FFF"/>
        <path d="M26.594 8.812a2.816 2.816 0 0 1-2.816 2.816h-8.512a2.816 2.816 0 1 1 0-5.632h8.512a2.816 2.816 0 0 1 2.816 2.816z" fill="#E2E8EE"/>
        <g stroke="#16171D" stroke-linecap="round" stroke-linejoin="round">
            <path d="M33.564 31.664a3.973 3.973 0 0 1-4.767-4.765c.287-1.294 1.66-2.671 2.952-2.957a3.971 3.971 0 0 1 4.774 4.77c-.29 1.296-1.666 2.668-2.959 2.952z"/>
            <path d="M34.404 31.928h-3.486a5.182 5.182 0 0 0-5.108 6.049h13.703a5.183 5.183 0 0 0-5.109-6.049zM32.164 23.84V11.295a2.483 2.483 0 0 0-2.483-2.484h-3.087M12.45 8.812H9.344a2.483 2.483 0 0 0-2.484 2.484v24.198a2.483 2.483 0 0 0 2.484 2.483H25.81"/>
            <path d="M26.594 8.812a2.816 2.816 0 0 1-2.816 2.816h-8.512a2.816 2.816 0 1 1 0-5.632h8.512a2.816 2.816 0 0 1 2.816 2.816z"/>
        </g>
        <g stroke="#B70F28" stroke-linecap="round" stroke-linejoin="round">
            <path d="M19.835 19.423h5.187M11.173 18.725l1.5 1.5M12.674 20.226l2.754-2.754M11.173 25.792l1.5 1.5M12.674 27.293l2.754-2.753M19.835 25.948h5.187"/>
        </g>
    </g>
</svg>
